<svg width="183" height="155" viewBox="0 0 183 155" fill="none" xmlns="http://www.w3.org/2000/svg">
<path d="M27.8907 5.98988C18.8637 8.04988 0.903816 19.9179 0.903816 46.0352C0.903816 72.1512 -6.93152 125.255 23.5377 142.666C54.8574 160.565 150.639 157.467 167.18 140.055C185.007 121.29 182.849 90.4339 181.979 73.8926C181.108 57.3526 184.591 26.0125 163.697 11.2125C142.804 -3.58613 62.9014 -2.00079 27.8907 5.98988Z" fill="#A3CD75"/>
<path d="M128.388 16.8992C128.388 16.8992 120.739 7.67519 113.601 0.484525C85.5454 -0.999475 53.0934 1.03919 32.3923 5.04452L45.5814 26.6752C45.5814 26.6752 105.385 34.1512 128.388 16.8992Z" fill="#87AF44"/>
<path d="M76.6347 76.7045C76.6347 76.7045 96.1853 101.431 101.936 103.157C107.687 104.882 125.513 95.1058 131.263 89.9298C131.263 89.9298 113.149 69.8032 109.268 60.8899C109.268 60.8899 70.884 66.9285 76.6347 76.7045Z" fill="#87AF44"/>
<path d="M21.2928 75.3219C21.2928 72.8566 19.295 70.8579 16.8294 70.8579C14.3636 70.8579 12.3652 72.8566 12.3652 75.3219C12.3652 76.4926 12.8168 77.5566 13.5548 78.3539H13.5444L16.745 81.9752L20.1136 78.3539H20.1038C20.8418 77.5566 21.2928 76.4926 21.2928 75.3219Z" fill="white"/>
<path d="M83.5414 108.027C83.5414 105.562 81.5427 103.563 79.0787 103.563C76.6121 103.563 74.6134 105.562 74.6134 108.027C74.6134 109.198 75.0654 110.263 75.8027 111.059H75.7934L78.9934 114.681L82.3627 111.059H82.3534C83.0907 110.263 83.5414 109.198 83.5414 108.027Z" fill="white"/>
<path d="M81.8161 50.2352C81.8161 47.7699 79.8187 45.7712 77.3534 45.7712C74.8867 45.7712 72.8881 47.7699 72.8881 50.2352C72.8881 51.4059 73.3401 52.4712 74.0787 53.2672H74.0681L77.2694 56.8885L80.6374 53.2672H80.6281C81.3654 52.4712 81.8161 51.4059 81.8161 50.2352Z" fill="white"/>
<path d="M81.8161 10.126C81.8161 7.66064 79.8187 5.66198 77.3534 5.66198C74.8867 5.66198 72.8881 7.66064 72.8881 10.126C72.8881 11.2966 73.3401 12.362 74.0787 13.158H74.0681L77.2694 16.7793L80.6374 13.158H80.6281C81.3654 12.362 81.8161 11.2966 81.8161 10.126Z" fill="white"/>
<path d="M154.056 85.8165C154.056 83.3512 152.057 81.3525 149.593 81.3525C147.128 81.3525 145.129 83.3512 145.129 85.8165C145.129 86.9872 145.58 88.0525 146.317 88.8485H146.308L149.508 92.4698L152.877 88.8485H152.868C153.605 88.0525 154.056 86.9872 154.056 85.8165Z" fill="white"/>
<path d="M51.3321 131.909C34.5965 120.245 15.6283 129.153 11.3809 131.419C14.5294 135.951 18.5122 139.795 23.5377 142.666C32.9565 148.049 48.2054 151.531 65.3761 153.298C65.3387 148.246 63.0521 140.078 51.3321 131.909Z" fill="#87AF44"/>
<path d="M22.7669 42.3365C24.8393 50.2499 24.6387 53.6552 24.4778 56.3899C24.2398 60.4379 24.2934 63.2925 28.2294 70.6725C28.6054 71.3792 28.9507 72.0232 29.2658 72.6099C30.7407 75.3645 31.6309 77.0272 31.9049 77.8725C32.0163 78.2152 32.0298 78.2592 31.8366 79.5952C31.7674 80.0739 31.6866 80.6352 31.6074 81.3165C33.9117 80.1405 36.2803 78.9499 38.7059 77.7539C38.5819 75.7179 37.6579 73.9912 35.2127 69.4259C34.8997 68.8405 34.5565 68.1992 34.1825 67.4965C30.9403 61.4192 31.0371 59.7739 31.2127 56.7859C31.3918 53.7445 31.6371 49.5779 29.2934 40.6285C25.4185 25.8325 15.9851 19.1552 11.2975 16.6672C9.85074 18.3018 8.47514 20.1325 7.22461 22.1672C10.0393 23.4698 19.1841 28.6592 22.7669 42.3365Z" fill="#20A9F9"/>
<path d="M118.431 145.157C115.289 142.333 111.011 140.362 106.875 138.455C101.607 136.026 96.16 133.517 94.148 129.637C89.1667 120.029 82.6453 119.371 73.62 118.461C69.648 118.061 64.704 117.562 58.6613 116.249C49.54 114.266 44.476 111.843 41.7293 108.151C39.3032 104.89 38.4564 100.299 38.1428 94.1259C35.9037 95.2699 33.724 96.4006 31.6157 97.5099C32.1512 103.497 33.396 108.253 36.3157 112.178C40.1209 117.293 46.3747 120.482 57.228 122.842C63.6453 124.237 68.8013 124.757 72.9426 125.174C81.6133 126.049 84.8573 126.375 88.1586 132.743C91.236 138.675 97.7493 141.678 104.051 144.582C111.359 147.951 115.4 150.214 116.355 153.825C118.641 153.646 120.897 153.442 123.112 153.21C122.577 150.175 121.013 147.478 118.431 145.157Z" fill="#20A9F9"/>
<path d="M73.5014 29.9446C72.6161 29.9446 71.7281 29.9406 70.8361 29.9299C52.6241 29.7126 39.3804 27.3833 38.8257 27.2846L39.5898 22.9992C39.7232 23.0232 53.0988 25.3712 70.9681 25.5779C87.3668 25.7712 111.024 24.1433 130.592 15.3233L132.381 19.2913C123.387 23.3446 112.859 26.2846 101.091 28.0286C92.5027 29.3019 83.2321 29.9446 73.5014 29.9446Z" fill="white"/>
<path d="M45.4587 130.11C34.0444 124.31 19.2881 128.39 11.3715 131.406C14.5215 135.943 18.5069 139.793 23.5376 142.666C32.6892 147.897 47.3453 151.333 63.9173 153.143C62.284 143.407 57.7213 136.343 45.4587 130.11Z" fill="#87AF44"/>
<path d="M47.4308 126.23C39.7852 122.346 29.7798 121.777 18.4961 124.585C14.7918 125.507 11.533 126.641 9.02515 127.631C9.75075 128.935 10.5314 130.195 11.3715 131.406C19.2882 128.39 34.0445 124.31 45.4587 130.11C57.7214 136.343 62.2841 143.407 63.9174 153.143C65.3948 153.305 66.8854 153.454 68.3894 153.589C67.6747 148.606 66.4014 144.673 64.4134 141.123C61.0707 135.153 55.6748 130.419 47.4308 126.23Z" fill="white"/>
<path d="M122.3 93.6699C113.269 99.0646 105.329 99.5726 105.251 99.578L105.279 100.09C97.472 92.15 89.7894 83.5166 82.292 74.258C91.5934 70.7393 100.881 67.738 109.685 65.662C112.904 70.5753 119.4 79.714 128.627 88.9526L128.713 89.0379C126.699 90.7633 124.564 92.3179 122.3 93.6699ZM127.628 62.7766C134.132 62.3286 140.113 62.0713 145.593 61.9593C143.311 69.3473 140.111 75.814 136.045 81.2193C134.749 82.9406 133.357 84.55 131.889 86.058L131.78 85.95C123.669 77.8406 117.641 69.6566 114.26 64.6566C118.907 63.7193 123.388 63.0686 127.628 62.7766ZM135.023 89.0766C136.576 87.4793 138.051 85.7819 139.425 83.9659C144.089 77.8019 147.691 70.3886 150.156 61.8979C163.72 61.8086 173.843 62.6126 180.687 63.4726C181.052 63.5193 181.411 63.566 181.764 63.6126C181.712 59.0873 181.619 54.1366 181.195 49.0753C173.073 48.1126 162.408 47.4046 148.935 47.5393C148.467 43.9446 146.743 33.7966 141.188 21.7299C137.863 14.5059 133.717 7.78994 128.844 1.70327C122.148 0.961939 114.952 0.476622 107.539 0.220622C110.144 2.46729 112.593 4.86595 114.872 7.41528C120.107 13.274 124.492 19.9406 127.905 27.2313C132.204 36.4126 133.883 44.3286 134.48 47.9806C131.944 48.1073 129.335 48.2606 126.64 48.446C112.043 49.4526 94.0974 54.1393 73.056 62.4153C71.2334 59.99 69.4227 57.5286 67.628 55.0313C52.3854 33.8206 41.612 14.8073 36.0704 4.37528C33.1392 4.87794 30.3991 5.41662 27.8907 5.98996C26.157 6.38596 24.0923 7.14463 21.8892 8.2953C27.0564 18.274 38.5579 39.1593 55.7894 63.1713C56.9814 64.8326 58.1827 66.4739 59.3854 68.1046C52.9427 70.9273 46.248 74.0433 39.3027 77.4593C39.1027 77.558 38.9048 77.6566 38.7059 77.754C36.2803 78.95 33.9116 80.1406 31.6074 81.3166C18.7507 87.8766 7.9351 93.9806 0.846436 98.1206C1.37937 103.315 2.2111 108.419 3.46363 113.267C8.74123 110.117 18.884 104.21 31.6158 97.51C33.724 96.4006 35.9038 95.27 38.1428 94.126C47.428 89.3833 57.7547 84.4206 68.384 79.8726C78.4747 92.6046 88.9227 104.275 99.5867 114.706C113.925 128.733 128.699 140.554 143.673 150.001C151.012 148.383 157.22 146.366 161.721 143.974C144.131 134.327 126.663 121.081 109.749 104.554C109.392 104.205 109.036 103.849 108.68 103.497C112.112 102.861 117.933 101.306 124.324 97.5299C126.996 95.9513 129.505 94.1219 131.856 92.0766C138.699 98.4753 145.771 103.677 152.924 107.562C161.781 112.373 170.785 115.171 179.756 115.914C180.115 114.49 180.432 113.057 180.709 111.621C172.163 111.006 163.551 108.373 155.052 103.765C148.272 100.089 141.551 95.1553 135.023 89.0766Z" fill="white"/>
<path d="M91.6681 63.8726C91.5307 63.822 91.4081 63.694 91.3627 63.5313C91.2894 63.2593 91.4494 62.9886 91.7227 62.914C91.8587 62.878 91.9667 62.8993 92.0481 62.9287C92.4801 63.0967 92.9201 63.1513 93.3827 63.026C93.8121 62.91 94.0241 62.6687 93.9481 62.39L93.9441 62.3766C93.8721 62.11 93.6721 62.0193 92.8201 62.0313C91.7934 62.0473 91.1027 61.95 90.8454 61.0046L90.8414 60.99C90.6067 60.126 91.1454 59.366 92.1187 59.1006C92.6974 58.9433 93.2414 58.9566 93.7441 59.1126C93.8787 59.1486 94.0334 59.2606 94.0881 59.4646C94.1627 59.7366 94.0014 60.0073 93.7294 60.0806L93.4441 60.078C93.0414 59.9686 92.6827 59.9406 92.3574 60.03C91.9547 60.1393 91.7934 60.3806 91.8574 60.6126L91.8601 60.626C91.9454 60.9393 92.1774 60.986 93.0587 60.9726C94.0934 60.962 94.7321 61.1607 94.9587 61.9913L94.9614 62.0046C95.2187 62.9513 94.6414 63.678 93.6134 63.958C92.9881 64.1273 92.3027 64.1086 91.6681 63.8726Z" fill="#939393"/>
<path d="M96.0026 62.1232L95.5333 60.3952L95.4987 60.4045C95.2547 60.4699 95.0026 60.3272 94.9373 60.0819C94.8706 59.8365 95.0146 59.5859 95.2586 59.5192L95.2933 59.5099L95.1693 59.0539C95.092 58.7685 95.26 58.4739 95.5453 58.3965C95.832 58.3179 96.1266 58.4872 96.204 58.7725L96.328 59.2286L96.784 59.1045C97.028 59.0379 97.28 59.1819 97.3467 59.4272C97.412 59.6712 97.2693 59.9232 97.024 59.9899L96.568 60.1139L96.992 61.6725C97.056 61.9112 97.1906 61.9979 97.4213 61.9352L97.5426 61.8952C97.7733 61.8326 98.0226 61.9685 98.088 62.2072C98.1373 62.3912 98.056 62.5752 97.928 62.6672C97.7573 62.7952 97.588 62.8699 97.3627 62.9312C96.7307 63.1032 96.2333 62.9685 96.0026 62.1232Z" fill="#939393"/>
<path d="M98.0774 59.2645C98.0001 58.9792 98.1681 58.6845 98.4547 58.6072C98.7401 58.5285 99.0347 58.6979 99.1121 58.9832L99.1574 59.1472C99.2107 58.7525 99.3667 58.3579 99.6721 58.2752C99.9934 58.1885 100.233 58.3499 100.313 58.6419C100.387 58.9139 100.255 59.1259 100.056 59.2312C99.5654 59.4965 99.3827 59.9765 99.5814 60.7125L99.8454 61.6792C99.9227 61.9645 99.7534 62.2592 99.4681 62.3365C99.1827 62.4139 98.8881 62.2459 98.8094 61.9606L98.0774 59.2645Z" fill="#939393"/>
<path d="M103.505 58.9298C103.319 58.4832 102.961 58.2445 102.525 58.3619C102.096 58.4792 101.901 58.8605 101.947 59.3539L103.505 58.9298ZM103.435 61.3018C102.339 61.6005 101.319 61.0525 101.016 59.9352L101.012 59.9219C100.729 58.8805 101.239 57.8205 102.3 57.5325C103.519 57.2018 104.328 58.0552 104.533 58.8112C104.615 59.1098 104.457 59.3658 104.185 59.4392L102.136 59.9965C102.365 60.4378 102.759 60.5938 103.221 60.4685C103.508 60.3898 103.721 60.2379 103.891 60.0245L104.12 59.8738C104.352 59.8098 104.569 59.9405 104.633 60.1725C104.669 60.3085 104.636 60.4272 104.58 60.5165C104.333 60.8752 103.965 61.1592 103.435 61.3018Z" fill="#939393"/>
<path d="M107.679 57.7953C107.492 57.35 107.135 57.11 106.699 57.2287C106.269 57.3447 106.075 57.7273 106.12 58.2193L107.679 57.7953ZM107.607 60.1686C106.511 60.4673 105.492 59.9166 105.189 58.802L105.185 58.7873C104.903 57.746 105.411 56.6873 106.472 56.398C107.691 56.0673 108.5 56.922 108.707 57.6766C108.788 57.9766 108.631 58.2313 108.357 58.3046L106.309 58.862C106.539 59.3033 106.932 59.4606 107.395 59.334C107.681 59.2566 107.895 59.1033 108.064 58.89L108.293 58.7393C108.524 58.6766 108.743 58.8073 108.805 59.0393C108.843 59.1753 108.809 59.294 108.753 59.382C108.507 59.742 108.137 60.0246 107.607 60.1686Z" fill="#939393"/>
<path d="M109.917 58.3419L109.448 56.6126L109.413 56.6219C109.169 56.6886 108.917 56.5446 108.852 56.3006C108.785 56.0552 108.928 55.8032 109.173 55.7379L109.208 55.7286L109.084 55.2726C109.005 54.9859 109.175 54.6912 109.46 54.6139C109.745 54.5366 110.04 54.7046 110.119 54.9913L110.243 55.4472L110.699 55.3233C110.943 55.2566 111.195 55.4006 111.261 55.6446C111.328 55.8899 111.184 56.1406 110.939 56.2072L110.483 56.3312L110.907 57.8899C110.971 58.1286 111.105 58.2166 111.336 58.1539L111.457 58.1126C111.688 58.0512 111.937 58.1873 112.003 58.4259C112.052 58.6086 111.971 58.7926 111.843 58.8859C111.672 59.0126 111.503 59.0872 111.277 59.1486C110.644 59.3206 110.148 59.1859 109.917 58.3419Z" fill="#939393"/>
<path d="M84.5361 90.1953C84.5214 90.0499 84.5827 89.8832 84.7121 89.7726C84.9241 89.5886 85.2374 89.6153 85.4227 89.8286L85.5507 90.1286C85.5881 90.5913 85.7267 91.0112 86.0414 91.3739C86.3321 91.7099 86.6401 91.7966 86.8587 91.6072L86.8694 91.5992C87.0787 91.4179 87.0734 91.1979 86.6934 90.4352C86.2347 89.5179 86.0227 88.8526 86.7641 88.2099L86.7747 88.2006C87.4521 87.6152 88.3707 87.7712 89.0307 88.5339C89.4227 88.9872 89.6481 89.4832 89.7254 90.0032C89.7507 90.1406 89.7174 90.3286 89.5561 90.4672C89.3441 90.6512 89.0307 90.6246 88.8454 90.4112L88.7241 90.1526C88.6494 89.7419 88.5187 89.4073 88.2974 89.1513C88.0241 88.8366 87.7374 88.7953 87.5561 88.9526L87.5454 88.9619C87.3001 89.1739 87.3587 89.4033 87.7521 90.1913C88.2094 91.1193 88.3067 91.7819 87.6561 92.3459L87.6454 92.3553C86.9041 92.9966 85.9987 92.7913 85.3014 91.9859C84.8774 91.4953 84.5974 90.8699 84.5361 90.1953Z" fill="#939393"/>
<path d="M87.9893 93.3446L89.344 92.1726L89.3213 92.1459C89.1547 91.9539 89.176 91.6645 89.368 91.4979C89.56 91.3325 89.848 91.3539 90.0147 91.5459L90.0373 91.5726L90.3947 91.2632C90.6187 91.0685 90.9573 91.0939 91.152 91.3179C91.3453 91.5419 91.3213 91.8792 91.0973 92.0739L90.74 92.3832L91.0493 92.7406C91.2147 92.9326 91.1933 93.2206 91.0013 93.3872C90.8107 93.5526 90.5213 93.5326 90.356 93.3406L90.0467 92.9832L88.8253 94.0406C88.6387 94.2019 88.616 94.3606 88.7733 94.5419L88.8613 94.6325C89.02 94.8139 89.004 95.0979 88.8173 95.2592C88.6733 95.3846 88.472 95.3899 88.3333 95.3152C88.1453 95.2166 88.004 95.0966 87.852 94.9206C87.4213 94.4246 87.3293 93.9166 87.9893 93.3446Z" fill="#939393"/>
<path d="M91.4653 93.9752C91.6893 93.7819 92.0266 93.8059 92.2213 94.0299C92.4146 94.2539 92.3907 94.5926 92.1667 94.7859L92.0386 94.8965C92.4173 94.7739 92.84 94.7446 93.048 94.9846C93.2653 95.2352 93.224 95.5232 92.9946 95.7206C92.7813 95.9059 92.5333 95.8779 92.3533 95.7446C91.9013 95.4166 91.388 95.4606 90.812 95.9592L90.0546 96.6139C89.8306 96.8086 89.4933 96.7832 89.2987 96.5592C89.1053 96.3352 89.1293 95.9979 89.3533 95.8032L91.4653 93.9752Z" fill="#939393"/>
<path d="M94.1187 98.7219C94.44 98.3606 94.5 97.9353 94.2054 97.594C93.9134 97.258 93.4854 97.2473 93.0614 97.5006L94.1187 98.7219ZM91.948 99.6859C91.2054 98.8273 91.2587 97.6713 92.1334 96.9139L92.144 96.9059C92.96 96.1979 94.1347 96.1979 94.856 97.0299C95.6827 97.9859 95.2627 99.0846 94.6707 99.5979C94.436 99.8006 94.1374 99.7699 93.9534 99.5553L92.564 97.9499C92.2654 98.3499 92.2947 98.7713 92.608 99.1339C92.8027 99.3579 93.0334 99.4846 93.3 99.5446L93.5334 99.6859C93.6907 99.8673 93.668 100.121 93.4867 100.277L93.1547 100.379C92.724 100.313 92.3094 100.102 91.948 99.6859Z" fill="#939393"/>
<path d="M96.9481 101.993C97.2694 101.631 97.3307 101.205 97.0347 100.863C96.7441 100.527 96.3147 100.517 95.8921 100.771L96.9481 101.993ZM94.7787 102.957C94.0361 102.098 94.0894 100.941 94.9641 100.185L94.9747 100.175C95.7907 99.4686 96.9654 99.4685 97.6854 100.301C98.5121 101.255 98.0921 102.355 97.5001 102.867C97.2667 103.07 96.9681 103.039 96.7841 102.826L95.3934 101.221C95.0947 101.619 95.1254 102.041 95.4401 102.403C95.6334 102.627 95.8641 102.754 96.1294 102.814L96.3641 102.955C96.5214 103.137 96.4974 103.39 96.3161 103.547L95.9841 103.649C95.5534 103.582 95.1387 103.373 94.7787 102.957Z" fill="#939393"/>
<path d="M97.4268 104.247L98.7814 103.075L98.7588 103.049C98.5921 102.857 98.6134 102.567 98.8041 102.402C98.9961 102.235 99.2854 102.255 99.4521 102.449L99.4748 102.474L99.8321 102.165C100.056 101.971 100.395 101.997 100.588 102.219C100.781 102.443 100.757 102.782 100.533 102.977L100.176 103.286L100.485 103.643C100.652 103.834 100.631 104.123 100.439 104.29C100.247 104.455 99.9588 104.435 99.7921 104.243L99.4828 103.886L98.2614 104.942C98.0761 105.105 98.0534 105.263 98.2108 105.443L98.2988 105.535C98.4561 105.717 98.4401 106.001 98.2534 106.162C98.1094 106.287 97.9094 106.293 97.7694 106.218C97.5814 106.119 97.4401 105.998 97.2881 105.823C96.8588 105.327 96.7654 104.821 97.4268 104.247Z" fill="#939393"/>
<path d="M40.3386 31.4339C40.337 31.2872 40.413 31.1286 40.5506 31.0286C40.7797 30.8646 41.0893 30.9192 41.2533 31.1485L41.3546 31.4592C41.3493 31.9232 41.452 32.3539 41.732 32.7432C41.9906 33.1045 42.2906 33.2192 42.5253 33.0499L42.536 33.0419C42.76 32.8805 42.776 32.6619 42.4653 31.8672C42.0906 30.9125 41.94 30.2299 42.736 29.6579L42.7466 29.6499C43.4746 29.1259 44.376 29.3645 44.9653 30.1832C45.3146 30.6699 45.4933 31.1845 45.524 31.7099C45.536 31.8485 45.4866 32.0325 45.3146 32.1565C45.0853 32.3205 44.776 32.2645 44.6106 32.0352L44.5133 31.7672C44.4746 31.3525 44.3746 31.0059 44.1773 30.7312C43.9346 30.3939 43.652 30.3285 43.4573 30.4685L43.4453 30.4752C43.1826 30.6659 43.22 30.8992 43.5413 31.7192C43.9133 32.6859 43.952 33.3539 43.2533 33.8565L43.2413 33.8632C42.4453 34.4365 41.5626 34.1512 40.9402 33.2859C40.561 32.7592 40.3386 32.1112 40.3386 31.4339Z" fill="#939393"/>
<path d="M43.496 34.8819L44.9494 33.8352L44.9294 33.8059C44.78 33.6005 44.828 33.3152 45.0334 33.1659C45.24 33.0192 45.5254 33.0645 45.6734 33.2712L45.6934 33.3005L46.0787 33.0245C46.3187 32.8512 46.6534 32.9059 46.8267 33.1459C46.9987 33.3859 46.944 33.7205 46.704 33.8939L46.32 34.1699L46.596 34.5539C46.744 34.7605 46.6974 35.0459 46.492 35.1939C46.2854 35.3419 46 35.2952 45.852 35.0885L45.576 34.7059L44.264 35.6485C44.064 35.7925 44.028 35.9485 44.168 36.1432L44.248 36.2419C44.388 36.4379 44.348 36.7192 44.1467 36.8619C43.9934 36.9739 43.792 36.9619 43.66 36.8739C43.4814 36.7592 43.352 36.6272 43.216 36.4379C42.832 35.9059 42.7854 35.3925 43.496 34.8819Z" fill="#939393"/>
<path d="M46.9 35.8219C47.14 35.6486 47.4747 35.7032 47.648 35.9432C47.8213 36.1845 47.7667 36.5192 47.5253 36.6926L47.388 36.7912C47.776 36.7032 48.2 36.7112 48.3853 36.9685C48.5787 37.2379 48.512 37.5205 48.2667 37.6965C48.0373 37.8619 47.7933 37.8125 47.6253 37.6632C47.204 37.2965 46.6893 37.2939 46.072 37.7379L45.2587 38.3232C45.0173 38.4966 44.6827 38.4405 44.5093 38.2005C44.3373 37.9605 44.392 37.6259 44.632 37.4526L46.9 35.8219Z" fill="#939393"/>
<path d="M49.1161 40.7872C49.4681 40.4565 49.5667 40.0378 49.3041 39.6712C49.0441 39.3098 48.6174 39.2605 48.1734 39.4765L49.1161 40.7872ZM46.8694 41.5525C46.2054 40.6312 46.3627 39.4845 47.3014 38.8085L47.3134 38.8005C48.1894 38.1698 49.3587 38.2752 50.0014 39.1685C50.7401 40.1938 50.2227 41.2512 49.5867 41.7085C49.3347 41.8898 49.0414 41.8312 48.8774 41.6032L47.6374 39.8792C47.3041 40.2498 47.2961 40.6725 47.5761 41.0619C47.7481 41.3019 47.9681 41.4485 48.2267 41.5325L48.4481 41.6939C48.5881 41.8885 48.5414 42.1392 48.3467 42.2792L48.0067 42.3499C47.5841 42.2459 47.1907 41.9992 46.8694 41.5525Z" fill="#939393"/>
<path d="M51.6414 44.2992C51.9934 43.9672 52.0921 43.5486 51.8294 43.1819C51.5694 42.8219 51.1427 42.7726 50.6974 42.9873L51.6414 44.2992ZM49.3934 45.0632C48.7307 44.1419 48.8867 42.9953 49.8267 42.3193L49.8374 42.3112C50.7147 41.6806 51.8841 41.7859 52.5267 42.6792C53.2641 43.7046 52.7481 44.7619 52.1121 45.2193C51.8601 45.4006 51.5667 45.3432 51.4014 45.1139L50.1627 43.3899C49.8294 43.7606 49.8201 44.1832 50.1014 44.5726C50.2734 44.8126 50.4921 44.9606 50.7507 45.0432L50.9721 45.2046C51.1121 45.3992 51.0667 45.6499 50.8721 45.7899L50.5321 45.8606C50.1094 45.7566 49.7147 45.5099 49.3934 45.0632Z" fill="#939393"/>
<path d="M51.9147 46.5872L53.3693 45.5419L53.348 45.5126C53.2 45.3059 53.2467 45.0219 53.4533 44.8725C53.66 44.7245 53.944 44.7712 54.0933 44.9779L54.1133 45.0059L54.4973 44.7299C54.7373 44.5565 55.072 44.6112 55.2453 44.8526C55.4187 45.0926 55.364 45.4272 55.1227 45.6005L54.74 45.8765L55.016 46.2606C55.164 46.4659 55.1173 46.7512 54.9107 46.9005C54.7053 47.0485 54.4187 47.0019 54.2707 46.7952L53.9947 46.4126L52.684 47.3552C52.484 47.4992 52.448 47.6552 52.588 47.8499L52.668 47.9486C52.808 48.1432 52.7667 48.4245 52.5667 48.5685C52.412 48.6805 52.212 48.6672 52.0787 48.5806C51.9013 48.4659 51.7707 48.3325 51.6347 48.1432C51.252 47.6112 51.204 47.0979 51.9147 46.5872Z" fill="#939393"/>
<path d="M131.352 43.4125C131.352 44.8072 128.951 45.9392 125.988 45.9392C123.025 45.9392 120.625 44.8072 120.625 43.4125C120.625 42.0179 123.025 40.8859 125.988 40.8859C128.951 40.8859 131.352 42.0179 131.352 43.4125Z" fill="#74934B"/>
<path d="M138.152 26.2406C138.152 19.8113 132.94 14.5993 126.512 14.5993C120.083 14.5993 114.871 19.8113 114.871 26.2406C114.871 29.2926 116.048 32.07 117.971 34.1473H117.945L126.292 43.5913L135.077 34.1473H135.052C136.975 32.07 138.152 29.2926 138.152 26.2406Z" fill="#F05353"/>
<path d="M134.275 26.1006C134.275 30.3873 130.8 33.8633 126.512 33.8633C122.224 33.8633 118.748 30.3873 118.748 26.1006C118.748 21.8126 122.224 18.3366 126.512 18.3366C130.8 18.3366 134.275 21.8126 134.275 26.1006Z" fill="white"/>
<path d="M57.5133 107.327C56.792 107.327 56.208 106.743 56.208 106.022V84.5153C56.208 83.7939 56.792 83.2099 57.5133 83.2099C58.2347 83.2099 58.82 83.7939 58.82 84.5153V106.022C58.82 106.743 58.2347 107.327 57.5133 107.327Z" fill="white"/>
<path d="M66.1534 84.5153C66.1534 89.2873 62.2854 93.1553 57.5134 93.1553C52.7428 93.1553 48.8748 89.2873 48.8748 84.5153C48.8748 79.7446 52.7428 75.8753 57.5134 75.8753C62.2854 75.8753 66.1534 79.7446 66.1534 84.5153Z" fill="#20A9F9"/>
<path d="M62.3533 84.5152C62.3533 87.1886 60.1867 89.3552 57.5134 89.3552C54.8414 89.3552 52.6747 87.1886 52.6747 84.5152C52.6747 81.8432 54.8414 79.6752 57.5134 79.6752C60.1867 79.6752 62.3533 81.8432 62.3533 84.5152Z" fill="white"/>
</svg>
