<svg width="167" height="169" viewBox="0 0 167 169" fill="none" xmlns="http://www.w3.org/2000/svg">
<path d="M125.015 91.1747V98.0133H102.579L94.302 106.291H133.417L141.694 98.0133L134.855 91.1747H125.015Z" fill="#F4F6F5"/>
<path d="M117.278 76.116L110.677 82.7186L116.255 88.2959H136.049L143.729 95.9773L151.647 88.0599V63.4653H139.77V50.868H121.506V59.832L117.278 64.0599V76.116Z" fill="#F4F6F5"/>
<path d="M90.3019 106.219L101.387 95.1346H122.137V91.1746H115.062L102.467 78.58H85.0686V100.172C85.0686 103.249 87.3433 105.789 90.3019 106.219Z" fill="#F4F6F5"/>
<path d="M154.526 76.78V89.252L137.487 106.291H160.283C163.662 106.291 166.402 103.552 166.402 100.172V76.78H154.526Z" fill="#F4F6F5"/>
<path d="M103.658 75.6999L108.642 80.6826L114.399 74.9239V62.8679L118.627 58.6399V50.8679H91.1873C87.8086 50.8679 85.0686 53.6079 85.0686 56.9866V75.6999H103.658Z" fill="#F4F6F5"/>
<path d="M142.65 60.5852H154.526V73.9012H166.402V56.9866C166.402 53.6079 163.662 50.8679 160.283 50.8679H142.65V60.5852Z" fill="#F4F6F5"/>
<mask id="mask0_2492_8099" style="mask-type:luminance" maskUnits="userSpaceOnUse" x="30" y="60" width="17" height="17">
<path d="M31.6446 60.2213L30.7766 76.4213H46.6873L44.0846 64.8506L31.6446 60.2213Z" fill="white"/>
</mask>
<g mask="url(#mask0_2492_8099)">
<path d="M31.6446 60.2213L30.7766 76.4213H46.6873L44.0846 64.8506L31.6446 60.2213Z" fill="url(#paint0_linear_2492_8099)"/>
</g>
<mask id="mask1_2492_8099" style="mask-type:luminance" maskUnits="userSpaceOnUse" x="27" y="38" width="28" height="37">
<path d="M27.7154 48.6599C28.9247 44.2919 32.4714 40.7186 36.8354 39.4933C45.4541 37.0706 53.2981 42.9253 54.2567 50.8986L54.3634 51.1733C54.3634 51.1733 55.134 60.5773 54.6407 68.1933C54.406 71.8293 51.0767 74.5573 47.482 73.9733C45.2167 73.6053 42.5434 72.7426 39.6381 71.3359C36.3727 69.7559 34.2434 66.5613 32.8901 63.5933C28.4861 60.4493 26.0247 54.7599 27.7154 48.6599Z" fill="white"/>
</mask>
<g mask="url(#mask1_2492_8099)">
<path d="M27.7154 48.6599C28.9247 44.2919 32.4714 40.7186 36.8354 39.4933C45.4541 37.0706 53.2981 42.9253 54.2567 50.8986L54.3634 51.1733C54.3634 51.1733 55.134 60.5773 54.6407 68.1933C54.406 71.8293 51.0767 74.5573 47.482 73.9733C45.2167 73.6053 42.5434 72.7426 39.6381 71.3359C36.3727 69.7559 34.2434 66.5613 32.8901 63.5933C28.4861 60.4493 26.0247 54.7599 27.7154 48.6599Z" fill="url(#paint1_linear_2492_8099)"/>
</g>
<path d="M28.9181 72.4414C28.9181 72.4414 48.3647 75.2214 50.4914 76.9587C51.4034 78.3494 52.4021 86.608 52.4021 86.608L25.8794 80.4334L28.9181 72.4414Z" fill="#F4F6F5"/>
<mask id="mask2_2492_8099" style="mask-type:luminance" maskUnits="userSpaceOnUse" x="21" y="35" width="37" height="37">
<path d="M24.7981 58.1C26.5341 63.8853 29.8128 68.1293 30.9701 69.4786C32.1261 70.8293 34.4408 70.2506 35.7915 71.0226C37.1421 71.7933 40.4208 70.2506 42.1554 67.744C43.8914 65.236 45.0488 61.572 45.0488 59.4493C45.0488 58.62 44.6328 57.4906 44.1421 56.2426C44.4541 55.3826 44.9395 54.5293 45.6275 54.628C46.9768 54.8213 47.3635 56.556 48.3275 58.2933C49.2915 60.028 48.7128 62.3426 48.7128 62.3426H50.4488C50.4488 62.3426 50.6421 59.6426 50.4488 57.9066C50.2568 56.172 49.2915 54.628 47.1701 51.736C46.4075 50.696 45.9008 49.7627 45.5568 48.984C46.8194 49.232 48.0434 49.3707 49.0888 49.248C49.9701 49.144 50.8234 48.956 51.6088 48.688C51.7901 48.6653 51.9661 48.66 52.1514 48.62C57.9621 47.364 57.4781 43.304 57.0061 40.1626C56.5354 37.0226 51.8768 36.1 49.6781 36.8853C48.4821 37.312 48.4275 37.2626 46.3995 36.8853C41.9781 35.1986 37.6354 34.5866 33.5394 36.7626C30.2048 38.5333 28.4861 40.7186 27.6035 42.608C27.6035 42.608 21.2901 43.7186 21.9568 49.9413C22.6234 56.1626 24.7981 58.1 24.7981 58.1Z" fill="white"/>
</mask>
<g mask="url(#mask2_2492_8099)">
<path d="M24.7981 58.1C26.5341 63.8853 29.8128 68.1293 30.9701 69.4786C32.1261 70.8293 34.4408 70.2506 35.7915 71.0226C37.1421 71.7933 40.4208 70.2506 42.1554 67.744C43.8914 65.236 45.0488 61.572 45.0488 59.4493C45.0488 58.62 44.6328 57.4906 44.1421 56.2426C44.4541 55.3826 44.9395 54.5293 45.6275 54.628C46.9768 54.8213 47.3635 56.556 48.3275 58.2933C49.2915 60.028 48.7128 62.3426 48.7128 62.3426H50.4488C50.4488 62.3426 50.6421 59.6426 50.4488 57.9066C50.2568 56.172 49.2915 54.628 47.1701 51.736C46.4075 50.696 45.9008 49.7627 45.5568 48.984C46.8194 49.232 48.0434 49.3707 49.0888 49.248C49.9701 49.144 50.8234 48.956 51.6088 48.688C51.7901 48.6653 51.9661 48.66 52.1514 48.62C57.9621 47.364 57.4781 43.304 57.0061 40.1626C56.5354 37.0226 51.8768 36.1 49.6781 36.8853C48.4821 37.312 48.4275 37.2626 46.3995 36.8853C41.9781 35.1986 37.6354 34.5866 33.5394 36.7626C30.2048 38.5333 28.4861 40.7186 27.6035 42.608C27.6035 42.608 21.2901 43.7186 21.9568 49.9413C22.6234 56.1626 24.7981 58.1 24.7981 58.1Z" fill="url(#paint2_linear_2492_8099)"/>
</g>
<path d="M71.418 161.275C71.4087 138.937 68.978 107.008 60.842 92.904C45.9874 69.7987 21.4021 81.608 21.4021 81.608C14.6188 83.9823 7.97933 101.056 3.93813 120.901C-0.583418 143.104 18.0472 161.275 40.7064 161.275H71.418Z" fill="url(#paint3_linear_2492_8099)"/>
<mask id="mask3_2492_8099" style="mask-type:luminance" maskUnits="userSpaceOnUse" x="34" y="88" width="68" height="60">
<path d="M34.2246 103.875C34.2246 103.875 42.8993 140.617 70.9673 146.741C99.0353 152.865 111.793 113.06 91.8899 92.648C91.8899 92.648 91.3793 88.0547 89.338 88.5653C87.2966 89.076 86.2753 94.6893 86.7859 96.7307C87.2966 98.772 90.8699 114.081 84.7459 118.675C78.6219 123.267 67.9046 114.081 61.2713 104.896L34.2246 103.875Z" fill="white"/>
</mask>
<g mask="url(#mask3_2492_8099)">
<path d="M34.2246 103.875C34.2246 103.875 42.8993 140.617 70.9673 146.741C99.0353 152.865 111.793 113.06 91.8899 92.648C91.8899 92.648 91.3793 88.0547 89.338 88.5653C87.2966 89.076 86.2753 94.6893 86.7859 96.7307C87.2966 98.772 90.8699 114.081 84.7459 118.675C78.6219 123.267 67.9046 114.081 61.2713 104.896L34.2246 103.875Z" fill="url(#paint4_linear_2492_8099)"/>
</g>
<path d="M87.2353 102.775L86.0686 97.7747C86.0686 97.7747 92.2353 94.4413 95.7353 95.2747L97.9019 99.608L87.2353 102.775Z" fill="#F4F6F5"/>
<path d="M29.7354 96.2746C29.7354 96.2746 30.402 142.941 70.7353 149.941C122.069 146.608 97.402 97.6079 97.402 97.6079L86.0687 99.9413C86.0687 99.9413 87.7353 114.608 77.402 115.941C67.0687 117.275 63.0687 93.2746 52.7354 88.6079C42.402 83.9413 33.0687 80.6079 29.7354 96.2746Z" fill="#0055FF"/>
<path d="M85.114 96.1347L78.6593 94.1307C77.8486 93.88 77.3953 93.0187 77.6473 92.208L81.5446 79.6494C81.7953 78.8387 82.6566 78.3854 83.4673 78.6374L89.9233 80.64C90.7326 80.892 91.186 81.7534 90.934 82.5627L87.038 95.1227C86.786 95.9334 85.926 96.3854 85.114 96.1347Z" fill="#3049A3"/>
<path d="M85.1686 94.0919L79.77 92.4159C79.2513 92.2559 78.9606 91.7053 79.1233 91.1866L82.4006 80.6226C82.562 80.1039 83.1126 79.8146 83.6313 79.9746L89.0313 81.6506C89.5486 81.812 89.838 82.3626 89.678 82.8813L86.3993 93.4439C86.2393 93.9639 85.6873 94.2533 85.1686 94.0919Z" fill="#B5E7F8"/>
<path d="M117.041 90.2467L126.345 80.9414H135.011L140.902 75.0507V60.2747H139.569V74.4987L134.459 79.608H125.793L116.097 89.3027L117.041 90.2467Z" fill="#3049A3"/>
<mask id="mask4_2492_8099" style="mask-type:luminance" maskUnits="userSpaceOnUse" x="131" y="39" width="18" height="25">
<path d="M148.505 47.78C148.505 43.16 144.759 39.4134 140.138 39.4134C135.518 39.4134 131.771 43.16 131.771 47.78C131.771 47.78 130.643 56.2747 139.555 63.244C139.893 63.5067 140.383 63.5067 140.721 63.244C149.634 56.2747 148.505 47.78 148.505 47.78Z" fill="white"/>
</mask>
<g mask="url(#mask4_2492_8099)">
<path d="M148.505 47.78C148.505 43.16 144.759 39.4134 140.138 39.4134C135.518 39.4134 131.771 43.16 131.771 47.78C131.771 47.78 130.643 56.2747 139.555 63.244C139.893 63.5067 140.383 63.5067 140.721 63.244C149.634 56.2747 148.505 47.78 148.505 47.78Z" fill="#0055FF"/>
</g>
<path d="M140.489 52.0946C137.822 52.3053 135.613 50.0959 135.822 47.4279C135.987 45.3293 137.689 43.6293 139.787 43.4639C142.454 43.2533 144.663 45.4639 144.454 48.1306C144.289 50.2293 142.589 51.9293 140.489 52.0946Z" fill="white"/>
<mask id="mask5_2492_8099" style="mask-type:luminance" maskUnits="userSpaceOnUse" x="113" y="86" width="7" height="8">
<path d="M119.485 90.024C119.485 91.7733 118.067 93.1907 116.318 93.1907C114.57 93.1907 113.151 91.7733 113.151 90.024C113.151 88.276 114.57 86.8573 116.318 86.8573C118.067 86.8573 119.485 88.276 119.485 90.024Z" fill="white"/>
</mask>
<g mask="url(#mask5_2492_8099)">
<path d="M119.485 90.024C119.485 91.7733 118.067 93.1907 116.318 93.1907C114.57 93.1907 113.151 91.7733 113.151 90.024C113.151 88.276 114.57 86.8573 116.318 86.8573C118.067 86.8573 119.485 88.276 119.485 90.024Z" fill="#0055FF"/>
</g>
<path d="M161.513 121.275H111.735C110.631 121.275 109.735 120.38 109.735 119.275C109.735 118.169 110.631 117.275 111.735 117.275H161.513C162.618 117.275 163.513 118.169 163.513 119.275C163.513 120.38 162.618 121.275 161.513 121.275Z" fill="#F4F6F5"/>
<path d="M146.235 121.275H111.735C110.631 121.275 109.735 120.38 109.735 119.275C109.735 118.169 110.631 117.275 111.735 117.275H146.235V121.275Z" fill="#62C449"/>
<path d="M146.069 124.275C145.055 124.275 144.235 123.453 144.235 122.441V115.441C144.235 114.429 145.055 113.608 146.069 113.608C147.082 113.608 147.902 114.429 147.902 115.441V122.441C147.902 123.453 147.082 124.275 146.069 124.275Z" fill="#62C449"/>
<path d="M136.117 132.008C136.542 131.881 136.854 131.547 136.854 131.04C136.854 130.569 136.542 130.281 136.117 130.073V132.008ZM134.758 127.321C134.758 127.771 135.081 128.035 135.53 128.253V126.469C134.977 126.596 134.758 126.929 134.758 127.321ZM136.117 124.764V125.156C137.049 125.191 137.947 125.536 137.947 125.893C137.947 126.159 137.637 126.756 137.418 126.756C137.257 126.756 136.887 126.435 136.117 126.412V128.508C137.106 128.911 138.305 129.371 138.305 130.903C138.305 132.469 137.314 133.217 136.117 133.344V133.873C136.117 134.08 136.025 134.161 135.839 134.161C135.621 134.161 135.53 134.08 135.53 133.873V133.356C134.043 133.309 133.134 132.768 133.134 132.412C133.134 132.112 133.538 131.524 133.733 131.524C133.917 131.524 134.55 132.088 135.53 132.1V129.808C134.515 129.428 133.295 128.991 133.295 127.403C133.295 126.031 134.297 125.305 135.53 125.168V124.764C135.53 124.557 135.621 124.476 135.818 124.476C136.025 124.476 136.117 124.557 136.117 124.764Z" fill="#62C449"/>
<path d="M106.135 169H46.8654C44.7298 169 43 166.643 43 163.737V149.263C43 146.357 44.7298 144 46.8654 144H106.135C108.269 144 110 146.357 110 149.263V163.737C110 166.643 108.269 169 106.135 169Z" fill="#62C449"/>
<path d="M98.1642 160.793C97.158 160.793 96.3669 160.412 95.7909 159.652C95.2225 158.884 94.9383 157.866 94.9383 156.599C94.9383 155.332 95.2225 154.318 95.7909 153.557C96.3669 152.789 97.158 152.405 98.1642 152.405C99.1781 152.405 99.9692 152.789 100.538 153.557C101.106 154.318 101.39 155.332 101.39 156.599C101.39 157.866 101.106 158.884 100.538 159.652C99.9692 160.412 99.1781 160.793 98.1642 160.793ZM96.943 158.569C97.2195 159.015 97.6266 159.237 98.1642 159.237C98.7019 159.237 99.1089 159.011 99.3855 158.558C99.6696 158.104 99.8117 157.452 99.8117 156.599C99.8117 155.739 99.6696 155.082 99.3855 154.629C99.1089 154.176 98.7019 153.949 98.1642 153.949C97.6266 153.949 97.2195 154.176 96.943 154.629C96.6665 155.082 96.5282 155.739 96.5282 156.599C96.5282 157.459 96.6665 158.116 96.943 158.569Z" fill="white"/>
<path d="M90.9072 160.793C89.901 160.793 89.1099 160.412 88.5339 159.652C87.9655 158.884 87.6813 157.866 87.6813 156.599C87.6813 155.332 87.9655 154.318 88.5339 153.557C89.1099 152.789 89.901 152.405 90.9072 152.405C91.9211 152.405 92.7122 152.789 93.2806 153.557C93.849 154.318 94.1331 155.332 94.1331 156.599C94.1331 157.866 93.849 158.884 93.2806 159.652C92.7122 160.412 91.9211 160.793 90.9072 160.793ZM89.686 158.569C89.9625 159.015 90.3696 159.237 90.9072 159.237C91.4449 159.237 91.852 159.011 92.1285 158.558C92.4127 158.104 92.5547 157.452 92.5547 156.599C92.5547 155.739 92.4127 155.082 92.1285 154.629C91.852 154.176 91.4449 153.949 90.9072 153.949C90.3696 153.949 89.9625 154.176 89.686 154.629C89.4095 155.082 89.2712 155.739 89.2712 156.599C89.2712 157.459 89.4095 158.116 89.686 158.569Z" fill="white"/>
<path d="M83.6503 160.793C82.6441 160.793 81.853 160.412 81.2769 159.652C80.7085 158.884 80.4243 157.866 80.4243 156.599C80.4243 155.332 80.7085 154.318 81.2769 153.557C81.853 152.789 82.6441 152.405 83.6503 152.405C84.6641 152.405 85.4552 152.789 86.0236 153.557C86.592 154.318 86.8762 155.332 86.8762 156.599C86.8762 157.866 86.592 158.884 86.0236 159.652C85.4552 160.412 84.6641 160.793 83.6503 160.793ZM82.429 158.569C82.7055 159.015 83.1126 159.237 83.6503 159.237C84.1879 159.237 84.595 159.011 84.8715 158.558C85.1557 158.104 85.2978 157.452 85.2978 156.599C85.2978 155.739 85.1557 155.082 84.8715 154.629C84.595 154.176 84.1879 153.949 83.6503 153.949C83.1126 153.949 82.7055 154.176 82.429 154.629C82.1525 155.082 82.0143 155.739 82.0143 156.599C82.0143 157.459 82.1525 158.116 82.429 158.569Z" fill="white"/>
<path d="M79.5222 160.493C79.3302 160.685 79.0997 160.781 78.8309 160.781C78.5621 160.781 78.3317 160.685 78.1397 160.493C77.9476 160.301 77.8516 160.071 77.8516 159.802C77.8516 159.533 77.9476 159.303 78.1397 159.111C78.3317 158.919 78.5621 158.823 78.8309 158.823C79.0997 158.823 79.3302 158.919 79.5222 159.111C79.7142 159.303 79.8102 159.533 79.8102 159.802C79.8102 160.071 79.7142 160.301 79.5222 160.493Z" fill="white"/>
<path d="M74.0081 160.793C73.0019 160.793 72.2108 160.412 71.6347 159.652C71.0663 158.884 70.7821 157.866 70.7821 156.599C70.7821 155.332 71.0663 154.318 71.6347 153.557C72.2108 152.789 73.0019 152.405 74.0081 152.405C75.0219 152.405 75.813 152.789 76.3814 153.557C76.9498 154.318 77.234 155.332 77.234 156.599C77.234 157.866 76.9498 158.884 76.3814 159.652C75.813 160.412 75.0219 160.793 74.0081 160.793ZM72.7868 158.569C73.0633 159.015 73.4704 159.237 74.0081 159.237C74.5457 159.237 74.9528 159.011 75.2293 158.558C75.5135 158.104 75.6556 157.452 75.6556 156.599C75.6556 155.739 75.5135 155.082 75.2293 154.629C74.9528 154.176 74.5457 153.949 74.0081 153.949C73.4704 153.949 73.0633 154.176 72.7868 154.629C72.5103 155.082 72.3721 155.739 72.3721 156.599C72.3721 157.459 72.5103 158.116 72.7868 158.569Z" fill="white"/>
<path d="M64.6819 160.631V159.445L67.4354 156.61C68.0499 155.965 68.3571 155.428 68.3571 154.998C68.3571 154.683 68.2573 154.429 68.0576 154.237C67.8655 154.045 67.6159 153.949 67.3087 153.949C66.7019 153.949 66.2526 154.264 65.9607 154.894L64.6243 154.11C64.8777 153.557 65.2426 153.135 65.7188 152.843C66.195 152.551 66.7173 152.405 67.2857 152.405C68.0153 152.405 68.6413 152.636 69.1636 153.097C69.6859 153.55 69.947 154.164 69.947 154.94C69.947 155.777 69.5054 156.637 68.6221 157.521L67.0437 159.099H70.0738V160.631H64.6819Z" fill="white"/>
<path d="M62.162 152.567H63.5445V160.631H61.9546V154.249L60.4338 154.675L60.0421 153.315L62.162 152.567Z" fill="white"/>
<path d="M56.749 158.373C56.749 159.049 56.534 159.598 56.1039 160.021C55.6737 160.435 55.113 160.685 54.4218 160.77V161.783H53.6499V160.781C53.0047 160.735 52.4517 160.555 51.9908 160.24C51.53 159.925 51.1997 159.498 51 158.961L52.371 158.166C52.6168 158.78 53.0431 159.13 53.6499 159.214V157.221C53.6422 157.221 53.6383 157.221 53.6383 157.221L53.6153 157.21C53.3465 157.11 53.1276 157.021 52.9586 156.945C52.7896 156.868 52.5899 156.756 52.3595 156.61C52.1368 156.465 51.9601 156.315 51.8295 156.161C51.7066 156 51.5953 155.796 51.4954 155.551C51.4032 155.305 51.3572 155.036 51.3572 154.744C51.3572 154.068 51.5761 153.527 52.0139 153.12C52.4593 152.712 53.0047 152.478 53.6499 152.417V151.414H54.4218V152.44C55.4664 152.563 56.2037 153.104 56.6338 154.064L55.2974 154.848C55.113 154.387 54.8212 154.107 54.4218 154.007V155.931C55.1361 156.215 55.6161 156.441 55.8619 156.61C56.4533 157.033 56.749 157.62 56.749 158.373ZM52.9356 154.756C52.9356 154.925 52.9893 155.074 53.0968 155.205C53.2044 155.328 53.3887 155.455 53.6499 155.585V153.972C53.4194 154.018 53.2428 154.11 53.1199 154.249C52.997 154.387 52.9356 154.556 52.9356 154.756ZM54.4218 159.191C54.9133 159.084 55.1591 158.815 55.1591 158.385C55.1591 158.193 55.0977 158.031 54.9748 157.901C54.8596 157.77 54.6752 157.647 54.4218 157.532V159.191Z" fill="white"/>
<path d="M14.6235 59.496C14.6235 62.4427 12.2368 64.8293 9.29012 64.8293C6.34612 64.8293 3.95679 62.4427 3.95679 59.496C3.95679 56.552 6.34612 54.1627 9.29012 54.1627C12.2368 54.1627 14.6235 56.552 14.6235 59.496Z" fill="#0055FF"/>
<path d="M121.556 139.556C121.556 140.968 120.412 142.112 119 142.112C117.588 142.112 116.444 140.968 116.444 139.556C116.444 138.144 117.588 137 119 137C120.412 137 121.556 138.144 121.556 139.556Z" fill="#0055FF"/>
<path d="M115 149.223C115 149.775 114.552 150.223 114 150.223C113.448 150.223 113 149.775 113 149.223C113 148.671 113.448 148.223 114 148.223C114.552 148.223 115 148.671 115 149.223Z" fill="#62C449"/>
<path d="M16.846 73.2746C16.846 74.7466 15.6527 75.9413 14.1794 75.9413C12.7074 75.9413 11.5127 74.7466 11.5127 73.2746C11.5127 71.8026 12.7074 70.608 14.1794 70.608C15.6527 70.608 16.846 71.8026 16.846 73.2746Z" fill="#62C449"/>
<defs>
<linearGradient id="paint0_linear_2492_8099" x1="26.8459" y1="82.6679" x2="41.6777" y2="65.3982" gradientUnits="userSpaceOnUse">
<stop stop-color="#FAB78A"/>
<stop offset="1" stop-color="#E84971"/>
</linearGradient>
<linearGradient id="paint1_linear_2492_8099" x1="51.7647" y1="48.8813" x2="29.7051" y2="68.3673" gradientUnits="userSpaceOnUse">
<stop stop-color="#FAB78A"/>
<stop offset="1" stop-color="#E84971"/>
</linearGradient>
<linearGradient id="paint2_linear_2492_8099" x1="54.1434" y1="11.9946" x2="28.8101" y2="72.6613" gradientUnits="userSpaceOnUse">
<stop stop-color="#F3663D"/>
<stop offset="1" stop-color="#D6242C"/>
</linearGradient>
<linearGradient id="paint3_linear_2492_8099" x1="35.709" y1="78.5904" x2="35.709" y2="161.275" gradientUnits="userSpaceOnUse">
<stop stop-color="#0055FF"/>
<stop offset="1" stop-color="#003399"/>
</linearGradient>
<linearGradient id="paint4_linear_2492_8099" x1="73.5259" y1="95.1707" x2="55.6649" y2="152.836" gradientUnits="userSpaceOnUse">
<stop stop-color="#FAB78A"/>
<stop offset="0.415609" stop-color="#F7A584"/>
<stop offset="1" stop-color="#E84971"/>
</linearGradient>
</defs>
</svg>
