<svg width="45" height="32" viewBox="0 0 45 32" fill="none" xmlns="http://www.w3.org/2000/svg">
<path d="M20.0788 19.6983H11.9759C11.3014 19.6987 10.6386 19.5213 10.0545 19.1841C9.47029 18.8468 8.98529 18.3616 8.64831 17.7772L5.48193 12.2884H23.6638C23.8168 12.2888 23.9669 12.3296 24.0991 12.4067C24.2312 12.4839 24.3406 12.5946 24.4162 12.7276C24.4918 12.8607 24.5308 13.0113 24.5294 13.1643C24.528 13.3173 24.4862 13.4672 24.4082 13.5989L21.2144 19.0534C21.0975 19.2503 20.9313 19.4134 20.7321 19.5265C20.533 19.6396 20.3078 19.6988 20.0788 19.6983Z" fill="white"/>
<path d="M42.7753 12.5695L41.1424 12.4528C40.8571 11.4228 40.4457 10.4319 39.9177 9.50257L40.988 8.26415C41.2833 7.92342 41.4386 7.48349 41.4227 7.03288C41.4068 6.58226 41.2208 6.15439 40.9022 5.83534L38.5798 3.5163C38.2611 3.19695 37.8331 3.01048 37.3823 2.99456C36.9314 2.97864 36.4913 3.13446 36.1509 3.43053L34.9091 4.50429C33.9804 3.98667 32.992 3.5846 31.9657 3.30703L31.8491 1.65695C31.817 1.20735 31.6159 0.786564 31.2862 0.479177C30.9566 0.171789 30.5228 0.00059138 30.072 2.06902e-07H26.7856C26.3346 -0.000217074 25.9004 0.170708 25.5705 0.478256C25.2407 0.785805 25.0399 1.20706 25.0086 1.65695L24.9228 2.8199H0L2.99828 8.13379C3.32681 8.71541 3.80384 9.19939 4.38063 9.53631C4.95743 9.87322 5.61332 10.051 6.2813 10.0515H28.4563C30.0339 10.0515 31.5469 10.6782 32.6625 11.7937C33.7781 12.9093 34.4048 14.4223 34.4048 16C34.4048 17.5777 33.7781 19.0907 32.6625 20.2063C31.5469 21.3218 30.0339 21.9485 28.4563 21.9485H21.6295C20.9416 21.9489 20.2662 22.1317 19.672 22.4782C19.0778 22.8247 18.5861 23.3226 18.247 23.9211L15.2727 29.1801H24.9228L25.0051 30.3431C25.038 30.7929 25.2398 31.2138 25.5701 31.5211C25.9003 31.8284 26.3345 31.9995 26.7856 32H30.0652C30.5169 32.0003 30.9519 31.8296 31.2829 31.5222C31.6138 31.2148 31.8161 30.7935 31.8491 30.3431L31.9691 28.6587C32.9837 28.371 33.9603 27.9633 34.8782 27.4443L36.1647 28.5557C36.5048 28.8508 36.9442 29.006 37.3942 28.9901C37.8443 28.9742 38.2716 28.7884 38.5901 28.47L40.9125 26.1475C41.2319 25.8289 41.4183 25.4009 41.4343 24.95C41.4502 24.4992 41.2944 24.0591 40.9983 23.7187L39.9142 22.4666C40.4422 21.5433 40.8536 20.558 41.1389 19.5334L42.7787 19.4134C43.2277 19.3805 43.6477 19.179 43.9543 18.8495C44.261 18.5199 44.4317 18.0866 44.4322 17.6364V14.3533C44.435 13.901 44.2652 13.4645 43.9573 13.1331C43.6494 12.8016 43.2267 12.6 42.7753 12.5695Z" fill="white"/>
</svg>
