<svg width="70" height="70" viewBox="0 0 70 70" fill="none" xmlns="http://www.w3.org/2000/svg">
<path d="M48.0892 25.193H45.1702C44.4881 25.193 43.9353 24.6495 43.9353 23.9793V22.2137C43.9353 21.5433 44.4883 21 45.1702 21H48.0892C48.7713 21 49.3241 21.5435 49.3241 22.2137V23.9793C49.3241 24.6497 48.771 25.193 48.0892 25.193Z" fill="#3F4366"/>
<path d="M49.7731 25.193H46.8541C46.172 25.193 45.6192 24.6495 45.6192 23.9793V22.2137C45.6192 21.5433 46.1722 21 46.8541 21H49.7731C50.4552 21 51.0079 21.5435 51.0079 22.2137V23.9793C51.0082 24.6497 50.4552 25.193 49.7731 25.193Z" fill="#4A5175"/>
<path d="M59.6018 44.8121C59.6018 42.4993 58.5522 40.6243 57.2574 40.6243C56.894 40.6243 56.5499 40.7721 56.2429 41.0355C55.9359 40.7719 55.5919 40.6243 55.2285 40.6243C53.9336 40.6243 52.884 42.4993 52.884 44.8121C52.884 47.125 53.9336 49 55.2285 49C55.3201 49 55.4102 48.9906 55.4989 48.9723V49H57.3924V48.9925C58.6244 48.8675 59.6018 47.0439 59.6018 44.8121Z" fill="#20233E"/>
<path d="M45.7058 44.0071C45.7058 41.463 44.5512 39.4004 43.1268 39.4004C42.727 39.4004 42.3486 39.5631 42.011 39.853C41.6734 39.5631 41.2949 39.4004 40.8952 39.4004C39.4709 39.4004 38.3162 41.463 38.3162 44.0071C38.3162 46.5511 39.4707 48.6137 40.8952 48.6137C40.9958 48.6137 41.095 48.6033 41.1928 48.5831V48.6137H43.2757V48.6054C44.6309 48.4677 45.7058 46.4621 45.7058 44.0071Z" fill="#1A1E33"/>
<path d="M18.2741 44.0071C18.2741 41.463 17.1196 39.4004 15.6951 39.4004C15.2954 39.4004 14.9169 39.5631 14.5793 39.853C14.2417 39.5631 13.8633 39.4004 13.4635 39.4004C12.0393 39.4004 10.8845 41.463 10.8845 44.0071C10.8845 46.5511 12.0391 48.6137 13.4635 48.6137C13.5642 48.6137 13.6634 48.6033 13.7612 48.5831V48.6137H15.8441V48.6054C17.199 48.4677 18.2741 46.4621 18.2741 44.0071Z" fill="#1A1E33"/>
<path d="M9.42933 22.3792H49.8138C51.1555 22.3792 52.2431 23.4482 52.2431 24.767V42.9435C52.2431 44.2622 51.1555 45.3312 49.8138 45.3312H9.42933C8.08759 45.3312 7 44.2622 7 42.9435V24.767C7 23.4482 8.08759 22.3792 9.42933 22.3792Z" fill="#3F4366"/>
<path d="M62.1223 36.2828L58.4937 24.4571C58.1153 23.2234 56.9591 22.3793 55.6482 22.3793H43.8231L43.8391 22.4314L41.6899 22.269L45.8438 36.283L54.1515 41.8002L55.2905 36.283H62.1223V36.2828Z" fill="#B5DBFB"/>
<path d="M58.4941 24.4571C58.2921 23.7987 57.8672 23.253 57.3168 22.8857L43.8779 29.6494L45.8442 36.2828L46.111 36.46L60.0278 29.4557L58.4941 24.4571Z" fill="#CFECFF"/>
<path d="M60.8874 45.3311H45.8438V36.2828H62.2346V44.0071C62.2346 44.7382 61.6314 45.3311 60.8874 45.3311Z" fill="#4A5175"/>
<path d="M52.5598 38.3998H47.589C46.6365 38.3998 45.8645 37.641 45.8645 36.7048V36.1399H52.5598V38.3998Z" fill="white"/>
<path d="M56.3047 38.3998H61.2755C62.228 38.3998 63 37.641 63 36.7048V36.1399H56.3047V38.3998Z" fill="white"/>
<path d="M36.6381 34.1864V22.3792H9.42933C8.08759 22.3792 7 23.4482 7 24.767V35.9519H34.8418C35.834 35.9519 36.6381 35.1613 36.6381 34.1864Z" fill="#B5DBFB"/>
<path d="M7.00366 24.6965H52.2393C52.2011 23.4106 51.1312 22.3792 49.8136 22.3792H9.42941C8.11182 22.3792 7.04192 23.4106 7.00366 24.6965Z" fill="#3F4366"/>
<path d="M58.494 24.4571C58.1155 23.2234 56.9593 22.3793 55.6484 22.3793H43.8233L43.8393 22.4314L41.6902 22.269L42.4098 24.6965H58.5676L58.494 24.4571Z" fill="#4A5175"/>
<path d="M10.8174 24.0346H9.91919V36.6139H10.8174V24.0346Z" fill="#3F4366"/>
<path d="M17.628 24.0346H16.7297V36.6139H17.628V24.0346Z" fill="#3F4366"/>
<path d="M24.4388 24.0346H23.5405V36.6139H24.4388V24.0346Z" fill="#3F4366"/>
<path d="M31.2496 24.0346H30.3513V36.6139H31.2496V24.0346Z" fill="#3F4366"/>
<path d="M58.0841 38.4898V36.1401V36.1399H50.78V38.4898H58.0841Z" fill="#21243F"/>
<path d="M40.4001 24.8069H39.3886C39.0476 24.8069 38.771 25.0786 38.771 25.4139V35.5657C38.771 35.9008 39.0474 36.1727 39.3886 36.1727H43.3432C43.7533 36.1727 44.0495 35.7871 43.9371 35.3996L40.994 25.2477C40.9182 24.9867 40.676 24.8069 40.4001 24.8069Z" fill="#B5DBFB"/>
<path d="M7.3606 44.191C7.78808 44.8736 8.55339 45.3303 9.42915 45.3303H45.8438H49.8136H60.8872C61.5672 45.3303 62.1238 44.8339 62.2156 44.191H7.3606Z" fill="#30345A"/>
<path d="M43.4465 34.7689V37.4469C43.4465 37.9818 43.0054 38.4156 42.461 38.4156H41.5915C41.0473 38.4156 40.606 37.982 40.606 37.4469V34.7689C40.606 34.2341 41.0471 33.8003 41.5915 33.8003H42.461C43.0054 33.8003 43.4465 34.2339 43.4465 34.7689Z" fill="#21243F"/>
<path d="M44.0527 34.7689V37.4469C44.0527 37.9818 43.6116 38.4156 43.0672 38.4156H42.1977C41.6535 38.4156 41.2122 37.982 41.2122 37.4469V34.7689C41.2122 34.2341 41.6533 33.8003 42.1977 33.8003H43.0672C43.6114 33.8003 44.0527 34.2339 44.0527 34.7689Z" fill="#4A5175"/>
<path d="M40.8952 48.6137C42.3195 48.6137 43.4742 46.5512 43.4742 44.0071C43.4742 41.4629 42.3195 39.4004 40.8952 39.4004C39.4708 39.4004 38.3162 41.4629 38.3162 44.0071C38.3162 46.5512 39.4708 48.6137 40.8952 48.6137Z" fill="#262B47"/>
<path d="M40.8954 47.2315C41.8925 47.2315 42.7007 45.7878 42.7007 44.0069C42.7007 42.226 41.8925 40.7823 40.8954 40.7823C39.8984 40.7823 39.0901 42.226 39.0901 44.0069C39.0901 45.7878 39.8984 47.2315 40.8954 47.2315Z" fill="#C8CFE8"/>
<path d="M39.8339 43.9585C39.8339 42.447 40.417 41.182 41.2026 40.8328C41.1025 40.802 41.0001 40.7828 40.8952 40.7828C39.8982 40.7828 39.0898 42.2266 39.0898 44.0074C39.0898 45.7882 39.8982 47.232 40.8952 47.232C41.046 47.232 41.1916 47.1953 41.3317 47.133C40.4813 46.8717 39.8339 45.5518 39.8339 43.9585Z" fill="#7CB4F2"/>
<path d="M13.4633 48.6137C14.8876 48.6137 16.0423 46.5512 16.0423 44.0071C16.0423 41.4629 14.8876 39.4004 13.4633 39.4004C12.0389 39.4004 10.8843 41.4629 10.8843 44.0071C10.8843 46.5512 12.0389 48.6137 13.4633 48.6137Z" fill="#262B47"/>
<path d="M13.4633 47.2315C14.4603 47.2315 15.2686 45.7878 15.2686 44.0069C15.2686 42.226 14.4603 40.7823 13.4633 40.7823C12.4662 40.7823 11.658 42.226 11.658 44.0069C11.658 45.7878 12.4662 47.2315 13.4633 47.2315Z" fill="#C8CFE8"/>
<path d="M12.4022 43.9585C12.4022 42.447 12.9854 41.182 13.771 40.8328C13.6708 40.802 13.5685 40.7828 13.4635 40.7828C12.4665 40.7828 11.6582 42.2266 11.6582 44.0074C11.6582 45.7882 12.4665 47.232 13.4635 47.232C13.6144 47.232 13.76 47.1953 13.9001 47.133C13.0497 46.8717 12.4022 45.5518 12.4022 43.9585Z" fill="#7CB4F2"/>
<path d="M57.557 44.7786H52.0935C51.742 44.7786 51.4573 44.4989 51.4573 44.1537C51.4573 43.8085 51.742 43.5289 52.0935 43.5289H57.557C57.9085 43.5289 58.1932 43.8085 58.1932 44.1537C58.1932 44.4989 57.9082 44.7786 57.557 44.7786Z" fill="#30345A"/>
</svg>
