<svg width="60" height="60" viewBox="0 0 60 60" fill="none" xmlns="http://www.w3.org/2000/svg">
<path d="M41.1598 17.8391L39.9205 14.9304C39.7611 14.5564 39.3821 14.312 38.9613 14.312H35.7188C35.6967 14.312 35.6756 14.3146 35.654 14.316L35.3502 14.1355L34.8737 14.7239L34.8767 14.7293C34.6803 14.9933 34.6158 15.3469 34.7596 15.6846L35.999 18.5933C36.1583 18.9674 36.5373 19.2118 36.9581 19.2118H40.2007C40.9374 19.2116 41.4389 18.4939 41.1598 17.8391Z" fill="#3F4366"/>
<path d="M24.8077 38.6306C24.8077 34.7031 22.9905 31.4684 20.6505 31.0286C19.2346 31.011 17.8185 30.9934 16.4026 30.9758V33.9172C15.7777 35.2168 15.4042 36.8522 15.4042 38.6306C15.4042 40.409 15.7777 42.0443 16.4026 43.3439V46.2853C17.8185 46.2677 19.2346 46.2501 20.6505 46.2325C22.9905 45.7927 24.8077 42.5581 24.8077 38.6306Z" fill="#1A1E33"/>
<path d="M16.493 46.2853C19.0897 46.2853 21.1948 42.8582 21.1948 38.6306C21.1948 34.403 19.0897 30.9758 16.493 30.9758C13.8962 30.9758 11.7911 34.403 11.7911 38.6306C11.7911 42.8582 13.8962 46.2853 16.493 46.2853Z" fill="#262B47"/>
<path d="M16.5471 42.9377C18.0109 42.9377 19.1975 41.0251 19.1975 38.6658C19.1975 36.3064 18.0109 34.3938 16.5471 34.3938C15.0833 34.3938 13.8967 36.3064 13.8967 38.6658C13.8967 41.0251 15.0833 42.9377 16.5471 42.9377Z" fill="#C8CFE8"/>
<path d="M31.3973 26.704L30.3618 29.6293C29.8387 31.1069 29.9413 32.7225 30.6471 34.1281L34.0115 40.8275L23.9908 40.6183L17.7823 28.1687L18.7626 25.344L31.3973 26.704Z" fill="#51597D"/>
<path d="M43.4936 27.4596C42.0276 24.104 40.5616 20.7486 39.0957 17.393L33.4541 17.2897C32.0691 17.2643 31.109 18.6084 31.6321 19.8405L33.9343 25.2635C34.6838 27.0287 34.7023 29.0023 33.9863 30.7802L29.3285 42.3449H37.9523C39.7837 38.4628 41.6152 34.5805 43.4465 30.6984C43.9302 29.672 43.9473 28.4985 43.4936 27.4596Z" fill="#3F4366"/>
<path d="M46.7038 26.4998C45.4623 23.6584 44.2211 20.8172 42.9796 17.9759C42.8249 17.6221 42.4665 17.3899 42.0671 17.385L36.0271 17.3115C36.0322 17.3202 36.0382 17.3284 36.0431 17.3371L33.4537 17.2896C33.2714 17.2863 33.0972 17.3079 32.932 17.3487L36.9178 26.5383C37.6283 28.1645 37.6014 30.0017 36.8436 31.6081L31.7785 42.3446H41.5814C43.2638 38.7785 44.946 35.2124 46.6284 31.6462C47.3978 30.0155 47.4252 28.1507 46.7038 26.4998Z" fill="#51597D"/>
<path d="M49.7142 38.6311C49.7142 34.7035 47.8971 31.4689 45.557 31.0291C44.1412 31.0115 42.725 30.9939 41.3092 30.9763V33.9177C40.6842 35.2173 40.3108 36.8527 40.3108 38.6311C40.3108 40.4095 40.6842 42.0448 41.3092 43.3444V46.2858C42.725 46.2682 44.1412 46.2506 45.557 46.233C47.8971 45.7932 49.7142 42.5586 49.7142 38.6311Z" fill="#1A1E33"/>
<path d="M30.1037 42.3453H23.2284C21.3637 42.3453 19.8517 40.8934 19.8517 39.1021H32.2686V40.2655C32.2688 41.4143 31.2995 42.3453 30.1037 42.3453Z" fill="#3F4366"/>
<path d="M32.1061 27.2796H18.4909V21.9885H26.6838C29.6784 21.9885 32.1058 24.3201 32.1058 27.1965V27.2796H32.1061Z" fill="#878CB2"/>
<path d="M25.8971 26.7046L17.9184 25.8457L24.0445 40.7348L28.5111 40.8281L25.1468 34.1287C24.4409 32.7231 24.3384 31.1074 24.8614 29.63L25.8971 26.7046Z" fill="#3F4366"/>
<path d="M25.9514 40.4617H19.9608L13.97 26.4426H19.9608L25.9514 40.4617Z" fill="#3F4366"/>
<path d="M46.7981 15.1615C46.7981 14.5829 46.3186 14.1143 45.7211 14.0956V14.092H42.7077V16.2309H45.7211V16.2274C46.3186 16.2086 46.7981 15.7401 46.7981 15.1615Z" fill="#51597D"/>
<path d="M42.7438 16.2309C43.3588 16.2309 43.8572 15.7521 43.8572 15.1615C43.8572 14.5708 43.3588 14.092 42.7438 14.092C42.1289 14.092 41.6304 14.5708 41.6304 15.1615C41.6304 15.7521 42.1289 16.2309 42.7438 16.2309Z" fill="#21243F"/>
<path d="M32.3417 15.2144H34.0844L34.9923 16.3301H36.4444" stroke="#21243F" stroke-width="3.08571" stroke-miterlimit="10" stroke-linecap="round" stroke-linejoin="round"/>
<path d="M42.7253 15.3182L41.7812 15.2834L41.2366 16.3645L39.7117 16.3295" stroke="#21243F" stroke-width="3.08571" stroke-miterlimit="10" stroke-linecap="round" stroke-linejoin="round"/>
<path d="M22.5206 39.8342H17.0384C15.9457 39.8342 15.0598 38.9833 15.0598 37.9337C15.0598 36.8841 15.9457 36.0332 17.0384 36.0332H22.5208C23.6136 36.0332 24.4994 36.8841 24.4994 37.9337C24.4994 38.9833 23.6136 39.8342 22.5206 39.8342Z" fill="#21243F"/>
<path d="M41.4 46.2858C43.9967 46.2858 46.1018 42.8587 46.1018 38.6311C46.1018 34.4035 43.9967 30.9763 41.4 30.9763C38.8032 30.9763 36.6981 34.4035 36.6981 38.6311C36.6981 42.8587 38.8032 46.2858 41.4 46.2858Z" fill="#262B47"/>
<path d="M41.4541 42.9382C42.9179 42.9382 44.1045 41.0256 44.1045 38.6663C44.1045 36.3069 42.9179 34.3943 41.4541 34.3943C39.9903 34.3943 38.8037 36.3069 38.8037 38.6663C38.8037 41.0256 39.9903 42.9382 41.4541 42.9382Z" fill="#C8CFE8"/>
<path d="M41.2723 39.1603C40.7942 39.1603 40.3521 38.862 40.2067 38.3994L38.1374 31.8085C37.9599 31.2431 38.2935 30.6464 38.882 30.476C39.4716 30.3055 40.0919 30.6255 40.2696 31.1912L42.3389 37.782C42.5163 38.3475 42.1828 38.9442 41.5943 39.1146C41.4871 39.1456 41.3788 39.1603 41.2723 39.1603Z" fill="#51597D"/>
<path d="M26.3873 27.2797H12.7722V24.482C12.7722 23.1862 13.8471 22.1264 15.1957 22.0923L21.0501 21.9443C23.9979 21.9441 26.3873 24.4486 26.3873 27.2797Z" fill="#21243F"/>
<path d="M11.3381 26.7383L10.3527 29.9718C10.0456 30.9795 10.8324 31.9881 11.9257 31.9881H19.6291C20.5342 31.9881 21.2679 31.2834 21.2679 30.414V27.1805C21.2679 26.3112 20.5342 25.6064 19.6291 25.6064H12.9108C12.1831 25.6062 11.5425 26.0672 11.3381 26.7383Z" fill="#21243F"/>
<path d="M40.6911 18.614H37.4485C37.0278 18.614 36.6487 18.3695 36.4894 17.9955L35.25 15.0868C34.971 14.4318 35.4725 13.7144 36.2092 13.7144H39.4518C39.8725 13.7144 40.2516 13.9588 40.4109 14.3328L41.6503 17.2415C41.9293 17.8963 41.4278 18.614 40.6911 18.614Z" fill="#51597D"/>
<path d="M42.7998 25.2336C43.8287 24.663 44.108 23.2777 43.4238 22.1393C42.7395 21.0009 41.3507 20.5406 40.3218 21.1112C39.2929 21.6817 39.0136 23.0671 39.6979 24.2055C40.3822 25.3439 41.771 25.8042 42.7998 25.2336Z" fill="white"/>
<path d="M33.4912 15.4581C33.4912 14.8795 33.0118 14.411 32.4142 14.3922V14.3887H29.4008V16.5276H32.4142V16.524C33.0118 16.5053 33.4912 16.0369 33.4912 15.4581Z" fill="#51597D"/>
<path d="M29.437 16.5276C30.0519 16.5276 30.5504 16.0487 30.5504 15.4581C30.5504 14.8675 30.0519 14.3887 29.437 14.3887C28.8221 14.3887 28.3236 14.8675 28.3236 15.4581C28.3236 16.0487 28.8221 16.5276 29.437 16.5276Z" fill="#21243F"/>
</svg>
