<svg width="34" height="24" viewBox="0 0 34 24" fill="none" xmlns="http://www.w3.org/2000/svg">
<path d="M15.0593 14.7735H8.98207C8.47616 14.7738 7.97911 14.6408 7.54097 14.3878C7.10284 14.1349 6.73909 13.771 6.48636 13.3327L4.11157 9.21606H17.7479C17.8627 9.21636 17.9753 9.24698 18.0744 9.30483C18.1735 9.36268 18.2556 9.4457 18.3123 9.54548C18.369 9.64527 18.3983 9.75826 18.3972 9.87301C18.3961 9.98776 18.3648 10.1002 18.3063 10.1989L15.9109 14.2898C15.8232 14.4375 15.6986 14.5598 15.5492 14.6446C15.3999 14.7295 15.231 14.7739 15.0593 14.7735Z" fill="#0055FF"/>
<path d="M32.0815 9.4271L30.8568 9.33962C30.6428 8.56708 30.3343 7.8239 29.9383 7.12693L30.741 6.19811C30.9625 5.94256 31.079 5.61262 31.067 5.27466C31.0551 4.9367 30.9156 4.61579 30.6767 4.3765L28.9348 2.63722C28.6958 2.39771 28.3748 2.25786 28.0367 2.24592C27.6986 2.23398 27.3685 2.35084 27.1132 2.5729L26.1818 3.37822C25.4853 2.99 24.744 2.68845 23.9743 2.48027L23.8868 1.24271C23.8627 0.905514 23.7119 0.589923 23.4647 0.359383C23.2174 0.128842 22.8921 0.000443535 22.554 1.55177e-07H20.0892C19.751 -0.000162805 19.4253 0.128031 19.1779 0.358692C18.9305 0.589354 18.7799 0.905295 18.7564 1.24271L18.6921 2.11492H0L2.24871 6.10034C2.49511 6.53655 2.85288 6.89954 3.28547 7.15223C3.71807 7.40492 4.20999 7.53824 4.71098 7.53859H21.3422C22.5254 7.53859 23.6602 8.00863 24.4969 8.84531C25.3336 9.68199 25.8036 10.8168 25.8036 12C25.8036 13.1832 25.3336 14.318 24.4969 15.1547C23.6602 15.9914 22.5254 16.4614 21.3422 16.4614H16.2221C15.7062 16.4617 15.1996 16.5988 14.754 16.8587C14.3083 17.1186 13.9396 17.492 13.6852 17.9408L11.4545 21.8851H18.6921L18.7539 22.7573C18.7785 23.0947 18.9299 23.4103 19.1775 23.6408C19.4252 23.8713 19.7509 23.9996 20.0892 24H22.5489C22.8877 24.0003 23.2139 23.8722 23.4622 23.6417C23.7104 23.4111 23.8621 23.0952 23.8868 22.7573L23.9768 21.494C24.7377 21.2782 25.4702 20.9725 26.1587 20.5832L27.1235 21.4168C27.3786 21.6381 27.7081 21.7545 28.0457 21.7426C28.3832 21.7307 28.7037 21.5913 28.9425 21.3525L30.6844 19.6106C30.9239 19.3716 31.0638 19.0506 31.0757 18.7125C31.0876 18.3744 30.9708 18.0443 30.7487 17.789L29.9357 16.8499C30.3316 16.1574 30.6402 15.4185 30.8542 14.6501L32.084 14.56C32.4208 14.5354 32.7357 14.3843 32.9657 14.1371C33.1957 13.8899 33.3238 13.5649 33.3242 13.2273V10.765C33.3263 10.4257 33.1989 10.0984 32.968 9.8498C32.737 9.60119 32.42 9.45002 32.0815 9.4271Z" fill="#0055FF"/>
</svg>
