<svg width="32" height="32" viewBox="0 0 32 32" fill="none" xmlns="http://www.w3.org/2000/svg">
<path d="M14.7978 18.0802H10.2399C9.86048 18.0804 9.48769 17.9806 9.15909 17.7909C8.83048 17.6012 8.55767 17.3283 8.36813 16.9996L6.58704 13.9121H16.8143C16.9004 13.9123 16.9849 13.9353 17.0592 13.9787C17.1335 14.0221 17.1951 14.0843 17.2376 14.1592C17.2801 14.234 17.3021 14.3188 17.3013 14.4048C17.3005 14.4909 17.2769 14.5752 17.233 14.6492L15.4365 17.7174C15.3708 17.8282 15.2773 17.9199 15.1653 17.9835C15.0533 18.0472 14.9266 18.0805 14.7978 18.0802Z" fill="#0055FF"/>
<path d="M27.5645 14.0703L26.646 14.0047C26.4855 13.4253 26.2541 12.8679 25.9571 12.3452L26.5592 11.6486C26.7253 11.4569 26.8126 11.2095 26.8037 10.956C26.7947 10.7025 26.6901 10.4618 26.5109 10.2824L25.2045 8.97792C25.0253 8.79829 24.7845 8.69339 24.5309 8.68444C24.2773 8.67548 24.0298 8.76313 23.8383 8.92967L23.1398 9.53366C22.6174 9.2425 22.0614 9.01634 21.4841 8.86021L21.4185 7.93203C21.4005 7.67914 21.2874 7.44244 21.1019 7.26954C20.9165 7.09663 20.6725 7.00033 20.4189 7H18.5703C18.3166 6.99988 18.0724 7.09602 17.8868 7.26902C17.7013 7.44202 17.5883 7.67897 17.5707 7.93203L17.5225 8.58619H3.50342L5.18995 11.5753C5.37475 11.9024 5.64308 12.1747 5.96752 12.3642C6.29197 12.5537 6.66091 12.6537 7.03665 12.6539H19.5101C20.3975 12.6539 21.2486 13.0065 21.8761 13.634C22.5036 14.2615 22.8561 15.1126 22.8561 16C22.8561 16.8874 22.5036 17.7385 21.8761 18.366C21.2486 18.9935 20.3975 19.3461 19.5101 19.3461H15.67C15.2831 19.3463 14.9031 19.4491 14.5689 19.644C14.2347 19.8389 13.9581 20.119 13.7674 20.4556L12.0943 23.4138H17.5225L17.5688 24.068C17.5873 24.321 17.7008 24.5577 17.8866 24.7306C18.0723 24.9035 18.3166 24.9997 18.5703 25H20.4151C20.6692 25.0002 20.9139 24.9042 21.1 24.7313C21.2862 24.5583 21.4 24.3214 21.4185 24.068L21.4861 23.1205C22.0567 22.9587 22.6061 22.7294 23.1224 22.4374L23.846 23.0626C24.0374 23.2286 24.2845 23.3159 24.5377 23.3069C24.7908 23.298 25.0312 23.1934 25.2103 23.0144L26.5167 21.708C26.6963 21.5287 26.8012 21.288 26.8102 21.0344C26.8191 20.7808 26.7315 20.5332 26.565 20.3418L25.9552 19.6374C26.2521 19.1181 26.4835 18.5639 26.6441 17.9876L27.5665 17.92C27.819 17.9015 28.0552 17.7882 28.2277 17.6028C28.4002 17.4174 28.4963 17.1737 28.4966 16.9205V15.0738C28.4981 14.8193 28.4026 14.5738 28.2294 14.3873C28.0562 14.2009 27.8184 14.0875 27.5645 14.0703Z" fill="#0055FF"/>
</svg>
