<svg width="70" height="70" viewBox="0 0 70 70" fill="none" xmlns="http://www.w3.org/2000/svg">
<path d="M18.6961 35.6661H10.7816C9.93966 35.6661 9.25708 35.0128 9.25708 34.207V32.5861C9.25708 31.7802 9.93966 31.127 10.7816 31.127H18.6961C19.5381 31.127 20.2206 31.7802 20.2206 32.5861V34.207C20.2206 35.013 19.5381 35.6661 18.6961 35.6661Z" stroke="#51597D" stroke-width="4" stroke-miterlimit="10"/>
<path d="M23.0603 23H32.0401C34.0845 23 35.742 24.5863 35.742 26.543V36.5523C35.742 38.509 34.0845 40.0953 32.0401 40.0953H23.0603C21.0158 40.0953 19.3584 38.509 19.3584 36.5523V26.543C19.3584 24.5863 21.0156 23 23.0603 23Z" fill="#3F4366"/>
<path d="M22.3709 41.726C22.3709 38.8134 21.0135 36.4525 19.339 36.4525C18.8692 36.4525 18.4241 36.6384 18.0272 36.9704C17.6304 36.6384 17.1853 36.4525 16.7154 36.4525C15.041 36.4525 13.6836 38.8134 13.6836 41.726C13.6836 44.6385 15.041 46.9995 16.7154 46.9995C16.8337 46.9995 16.9506 46.9875 17.0654 46.9647V46.9995H19.5142V46.9902C21.107 46.8325 22.3709 44.5364 22.3709 41.726Z" fill="#1A1E33"/>
<path d="M44.2215 41.7259C44.2215 38.8134 42.8641 36.4524 41.1896 36.4524C40.7198 36.4524 40.2747 36.6384 39.8778 36.9703C39.4809 36.6384 39.0359 36.4524 38.566 36.4524C36.8916 36.4524 35.5342 38.8134 35.5342 41.7259C35.5342 44.6385 36.8916 46.9994 38.566 46.9994C38.6843 46.9994 38.8012 46.9875 38.9159 46.9646V46.9994H41.3648V46.9902C42.9576 46.8325 44.2215 44.5363 44.2215 41.7259Z" fill="#1A1E33"/>
<path d="M28.3651 45.0095H10.7188C9.16263 45.0095 7.90088 43.8022 7.90088 42.3125V32.4534H28.3651C29.9213 32.4534 31.183 33.6607 31.183 35.1503V42.3128C31.183 43.8022 29.9215 45.0095 28.3651 45.0095Z" fill="#3F4366"/>
<path d="M28.9966 23H33.8984C34.6252 23 35.2143 23.5638 35.2143 24.2593V39.0716C35.2143 39.7672 34.6252 40.331 33.8984 40.331H28.9966C28.2699 40.331 27.6808 39.7672 27.6808 39.0716V24.2596C27.6808 23.564 28.2699 23 28.9966 23Z" fill="#3F4366"/>
<path d="M59.1556 42.2056C59.1556 39.5579 57.9215 37.4116 56.3993 37.4116C55.9722 37.4116 55.5675 37.5809 55.2067 37.8825C54.8457 37.5809 54.4413 37.4116 54.0142 37.4116C52.492 37.4116 51.2579 39.5579 51.2579 42.2056C51.2579 44.8534 52.492 46.9996 54.0142 46.9996C54.1218 46.9996 54.2278 46.9888 54.3322 46.968V46.9996H56.5584V46.9911C58.0065 46.8478 59.1556 44.7605 59.1556 42.2056Z" fill="#20233E"/>
<path d="M62.7854 34.2681H47.9069V29.8779C47.9069 26.0793 44.6895 23 40.7206 23H33.3812V35.3657C33.3812 37.0225 31.9778 38.3657 30.2467 38.3657H11.6435V42.2407C11.6435 43.7956 12.9605 45.0563 14.5853 45.0563H33.3815H45.4606H47.9072H58.3548H60.6639C61.9132 45.0563 62.9258 43.7409 62.9258 42.1184V34.3644H63L62.7854 34.2681Z" fill="#3F4366"/>
<path d="M62.785 34.2683H45.4603V45.0565H60.6634C61.9126 45.0565 62.9253 43.7411 62.9253 42.1186V34.3646H62.9994L62.785 34.2683Z" fill="#51597D"/>
<path d="M56.1639 32.073C55.6195 30.7805 55.0748 29.4879 54.5303 28.1956C53.2077 25.0561 50.0252 23 46.4883 23H40.8737H37.0512H33.9424V27.2438H37.0514V32.073H56.1639Z" fill="#B5DBFB"/>
<path d="M48.5524 23.2393L37.0513 28.3955V32.0728H43.6632L53.9975 27.1511C52.8111 25.1824 50.8356 23.775 48.5524 23.2393Z" fill="#CFECFF"/>
<path d="M53.4063 36.9314H47.5624C46.4426 36.9314 45.535 36.0625 45.535 34.991V34.3442H53.4063V36.9314Z" fill="white"/>
<path d="M63 34.0517H57.7035V36.6389H63V34.0517Z" fill="white"/>
<path d="M60.1107 34.0518H51.5238V40.0235C51.5238 41.371 52.6651 42.4634 54.073 42.4634H57.5615C58.9694 42.4634 60.1107 41.371 60.1107 40.0235V34.0518Z" fill="#21243F"/>
<path d="M40.8084 35.6713C40.6035 35.6713 40.4373 35.5122 40.4373 35.3161V34.7073C40.4373 34.5112 40.6035 34.3523 40.8082 34.3523C41.0131 34.3523 41.1791 34.5114 41.1791 34.7073V35.3161C41.1793 35.5122 41.0133 35.6713 40.8084 35.6713Z" fill="#262B47"/>
<path d="M53.4188 36.3254H58.2157" stroke="white" stroke-width="1.5" stroke-miterlimit="10" stroke-linecap="round"/>
<path d="M58.2157 37.3339H53.4188" stroke="white" stroke-width="1.5" stroke-miterlimit="10" stroke-linecap="round"/>
<path d="M53.4188 35.3171H58.2157" stroke="white" stroke-width="1.5" stroke-miterlimit="10" stroke-linecap="round"/>
<path d="M53.4188 39.3902H58.2158" stroke="white" stroke-width="1.5" stroke-miterlimit="10" stroke-linecap="round"/>
<path d="M58.2158 40.3984H53.4188" stroke="white" stroke-width="1.5" stroke-miterlimit="10" stroke-linecap="round"/>
<path d="M53.4188 38.3819H58.2157" stroke="white" stroke-width="1.5" stroke-miterlimit="10" stroke-linecap="round"/>
<path d="M62.2711 33.5713L55.8687 31.4524H36.7866L45.294 34.268H62.7896C62.7894 33.9539 62.5814 33.6742 62.2711 33.5713Z" fill="#4A5175"/>
<path d="M45.535 34.3445L39.1405 31.1953L33.4055 31.2694V32.4364L38.427 32.5611L45.6644 36.3658L45.535 34.3445Z" fill="#878CB2"/>
<path d="M51.1682 24.3183C49.7999 23.4782 48.1864 23 46.4881 23H40.8735H37.051H33.9424V24.3183H51.1682Z" fill="#4A5175"/>
<path d="M10.7187 45.0094H15.1995V44.3905H8.92261C9.4104 44.7769 10.0361 45.0094 10.7187 45.0094Z" fill="#30345A"/>
<path d="M61.5903 44.4141C61.1904 44.4141 60.809 44.2525 60.5404 43.9689L60.156 43.5635C59.8882 43.2813 59.5088 43.1197 59.1105 43.1184L52.1206 43.0969C51.6906 43.0955 51.2831 43.2811 51.013 43.6013L50.7528 43.9095C50.4837 44.2286 50.0783 44.4139 49.6498 44.4139H43.6484H41.1837H40.9981C31.5723 44.4152 22.1465 44.4166 12.7209 44.4179C13.2286 44.8163 13.8774 45.0559 14.585 45.0559H33.3811H45.4603H47.9068H58.3545H60.6636C61.1967 45.0559 61.6859 44.8147 62.0727 44.4139H61.5903V44.4141Z" fill="#30345A"/>
<path d="M16.7149 47C18.3894 47 19.7468 44.639 19.7468 41.7265C19.7468 38.814 18.3894 36.4529 16.7149 36.4529C15.0405 36.4529 13.6831 38.814 13.6831 41.7265C13.6831 44.639 15.0405 47 16.7149 47Z" fill="#262B47"/>
<path d="M16.7149 45.4177C17.887 45.4177 18.8372 43.7649 18.8372 41.7262C18.8372 39.6874 17.887 38.0347 16.7149 38.0347C15.5427 38.0347 14.5925 39.6874 14.5925 41.7262C14.5925 43.7649 15.5427 45.4177 16.7149 45.4177Z" fill="#C8CFE8"/>
<path d="M15.4671 41.6704C15.4671 39.9401 16.1525 38.4918 17.0764 38.0921C16.9588 38.0568 16.8384 38.0347 16.7149 38.0347C15.5429 38.0347 14.5925 39.6875 14.5925 41.7262C14.5925 43.7649 15.5429 45.4177 16.7149 45.4177C16.8922 45.4177 17.0634 45.3757 17.2279 45.3045C16.2285 45.0055 15.4671 43.4944 15.4671 41.6704Z" fill="#7CB4F2"/>
<path d="M38.5652 46.9997C40.2396 46.9997 41.597 44.6387 41.597 41.7262C41.597 38.8137 40.2396 36.4526 38.5652 36.4526C36.8908 36.4526 35.5334 38.8137 35.5334 41.7262C35.5334 44.6387 36.8908 46.9997 38.5652 46.9997Z" fill="#262B47"/>
<path d="M38.5649 45.4177C39.737 45.4177 40.6872 43.7649 40.6872 41.7262C40.6872 39.6874 39.737 38.0347 38.5649 38.0347C37.3927 38.0347 36.4425 39.6874 36.4425 41.7262C36.4425 43.7649 37.3927 45.4177 38.5649 45.4177Z" fill="#C8CFE8"/>
<path d="M37.3176 41.6703C37.3176 39.9401 38.003 38.4918 38.9269 38.0921C38.8093 38.0568 38.6889 38.0347 38.5654 38.0347C37.3933 38.0347 36.443 39.6874 36.443 41.7262C36.443 43.7649 37.3933 45.4177 38.5654 45.4177C38.7427 45.4177 38.9139 45.3756 39.0784 45.3044C38.079 45.0055 37.3176 43.4944 37.3176 41.6703Z" fill="#7CB4F2"/>
<path d="M28.3935 34.0892H7.68754C7.30788 34.0892 7 33.7945 7 33.4312V33.0671C7 32.7038 7.30788 32.4091 7.68754 32.4091H28.3935C28.7732 32.4091 29.0811 32.7038 29.0811 33.0671V33.4312C29.0811 33.7945 28.7732 34.0892 28.3935 34.0892Z" fill="#51597D"/>
<path d="M8.40566 35.1692C8.23094 35.1692 8.06236 35.1929 7.90086 35.2336V39.899C8.06236 39.9395 8.23094 39.9634 8.40566 39.9634C9.50355 39.9634 10.3934 39.1117 10.3934 38.061V37.0717C10.3934 36.0209 9.50331 35.1692 8.40566 35.1692Z" fill="#878CB2"/>
<path d="M38.7978 27.5371C38.0512 25.4509 36.6067 23.8443 34.8404 23.0002H34.406C34.3942 23.0154 34.3781 23.0366 34.3599 23.061C34.2466 23.0215 34.1262 23.0002 34.0013 23.0002H30.3218H28.8934H28.4124V24.3186H23.1924C22.0272 24.3186 21.0828 25.2225 21.0828 26.3376V32.1883H30.3216V31.923H35.2139V31.4148H40.1854C39.7228 30.122 39.2603 28.8294 38.7978 27.5371Z" fill="#7CB4F2"/>
<path d="M30.5683 23.6404H29.4052V32.0111H30.5683V23.6404Z" fill="#3F4366"/>
<path d="M36.3273 31.2153H19.3584V32.4238H36.3273V31.2153Z" fill="#878CB2"/>
<path d="M38.5359 33.2159H36.0448C35.5471 33.2159 35.1436 32.8297 35.1436 32.3536V31.5925C35.1436 31.1162 35.5471 30.7302 36.0448 30.7302H38.5359C39.0336 30.7302 39.4369 31.1164 39.4369 31.5925V32.3536C39.4372 32.83 39.0336 33.2159 38.5359 33.2159Z" fill="#21243F"/>
<path d="M39.2428 33.2159H36.7516C36.2539 33.2159 35.8504 32.8297 35.8504 32.3536V31.5925C35.8504 31.1162 36.2539 30.7302 36.7516 30.7302H39.2428C39.7405 30.7302 40.144 31.1164 40.144 31.5925V32.3536C40.144 32.83 39.7405 33.2159 39.2428 33.2159Z" fill="#3F4366"/>
<path d="M36.7349 24.3183C36.1669 23.7749 35.5284 23.3288 34.8404 23H34.406C34.3942 23.0151 34.3781 23.0364 34.3599 23.0608C34.2466 23.0212 34.1262 23 34.0013 23H30.3218H28.8934H23.0602C22.3322 23 21.6553 23.2041 21.0828 23.5514V24.3183H36.7349Z" fill="#3F4366"/>
</svg>
