<svg width="70" height="70" viewBox="0 0 70 70" fill="none" xmlns="http://www.w3.org/2000/svg">
<path d="M28.7921 40.8882H24.69C22.7549 40.8882 21.1862 39.3383 21.1862 37.4264C21.1862 35.5145 22.7549 33.9646 24.69 33.9646H28.7921C30.7273 33.9646 32.2959 35.5145 32.2959 37.4264C32.2959 39.3383 30.7273 40.8882 28.7921 40.8882Z" fill="#4A5175"/>
<path d="M16.7424 19.9485V27.8852" stroke="#1A1E33" stroke-width="2.55455" stroke-miterlimit="10"/>
<path d="M35.6034 39.2053L16.5715 19.1042" stroke="#4A5175" stroke-width="7.24993" stroke-miterlimit="10"/>
<path d="M18.1162 20.7155H16.9712C16.2123 20.7155 15.5969 20.1076 15.5969 19.3578C15.5969 18.6079 16.2123 18 16.9712 18H18.1162C18.8752 18 19.4905 18.6079 19.4905 19.3578C19.4903 20.1076 18.8752 20.7155 18.1162 20.7155Z" fill="#4A5175"/>
<path d="M16.5129 20.7155H15.3678C14.6089 20.7155 13.9936 20.1076 13.9936 19.3578C13.9936 18.6079 14.6089 18 15.3678 18H16.5129C17.2718 18 17.8872 18.6079 17.8872 19.3578C17.8872 20.1076 17.272 20.7155 16.5129 20.7155Z" fill="#3F4366"/>
<path d="M21.1036 46.4609C21.1036 43.4017 19.7224 40.9219 18.0186 40.9219C17.5404 40.9219 17.0877 41.1173 16.6838 41.4659C16.28 41.1173 15.8273 40.9219 15.349 40.9219C13.6453 40.9219 12.2641 43.4017 12.2641 46.4609C12.2641 49.5201 13.6453 51.9999 15.349 51.9999C15.4693 51.9999 15.5883 51.9873 15.705 51.9634V51.9999H18.1967V51.9902C19.8176 51.8244 21.1036 49.4128 21.1036 46.4609Z" fill="#1A1E33"/>
<path d="M31.4414 39.7063H7.51312V44.9412H31.4414V39.7063Z" fill="#3F4366"/>
<path d="M44.5422 46.4609C44.5422 43.4017 43.161 40.9219 41.4573 40.9219C40.9791 40.9219 40.5264 41.1173 40.1225 41.4659C39.7186 41.1173 39.2659 40.9219 38.7877 40.9219C37.0839 40.9219 35.7028 43.4017 35.7028 46.4609C35.7028 49.5201 37.0839 51.9999 38.7877 51.9999C38.908 51.9999 39.0269 51.9873 39.1436 51.9634V51.9999H41.6354V51.9902C43.2562 51.8244 44.5422 49.4128 44.5422 46.4609Z" fill="#1A1E33"/>
<path d="M62.8018 39.3394H49.0397V35.1473C49.0397 31.5202 46.0637 28.5798 42.3925 28.5798H35.6038V40.3874C35.6038 41.9695 34.3057 43.252 32.7043 43.252H15.4962V43.2525H7.51312V46.8831C7.51312 48.4219 8.77581 49.6695 10.3333 49.6695H21.5283V49.6407H35.6038H46.7769H49.0397H58.7035H60.8394C61.995 49.6407 62.9315 48.3847 62.9315 46.8355V39.4315H63.0001L62.8018 39.3394Z" fill="#3F4366"/>
<path d="M31.5472 28.5798H36.0811C36.7534 28.5798 37.2984 29.1183 37.2984 29.7825V43.9264C37.2984 44.5905 36.7534 45.129 36.0811 45.129H31.5472C30.8749 45.129 30.33 44.5905 30.33 43.9264V29.7825C30.33 29.1183 30.8749 28.5798 31.5472 28.5798Z" fill="#3F4366"/>
<path d="M59.7375 46.9645C59.7375 44.1835 58.482 41.929 56.9331 41.929C56.4983 41.929 56.0868 42.1067 55.7197 42.4236C55.3525 42.1067 54.9408 41.929 54.5063 41.929C52.9573 41.929 51.7018 44.1835 51.7018 46.9645C51.7018 49.7455 52.9573 52 54.5063 52C54.6158 52 54.7238 51.9888 54.8299 51.9668V52H57.095V51.9912C58.5685 51.8405 59.7375 49.6479 59.7375 46.9645Z" fill="#20233E"/>
<path d="M62.8014 39.3396H46.7762V49.6409H60.8389C61.9946 49.6409 62.9311 48.3849 62.9311 46.8357V39.4317H62.9996L62.8014 39.3396Z" fill="#51597D"/>
<path d="M56.6768 37.2434C56.1731 36.0091 55.6695 34.7751 55.1657 33.5408C53.9423 30.5429 50.9987 28.5798 47.7269 28.5798H42.5337H38.9979H36.1222V32.6321H38.9979V37.2434H56.6768Z" fill="#B5DBFB"/>
<path d="M49.6361 28.8088L38.9977 33.7324V37.2438H45.1138L54.6729 32.5442C53.5754 30.6641 51.748 29.3203 49.6361 28.8088Z" fill="#CFECFF"/>
<path d="M41.8969 36.6146C41.469 35.3804 41.0412 34.1463 40.6133 32.912C39.9228 30.92 38.5866 29.3859 36.9527 28.5798H36.5511C36.5401 28.5944 36.5254 28.6146 36.5086 28.638C36.4037 28.6004 36.2922 28.5798 36.1768 28.5798H31.452C30.8324 28.5798 30.3302 29.1641 30.3302 29.8847V37.1H37.2986V36.6146C38.8312 36.6146 40.364 36.6146 41.8969 36.6146Z" fill="#7CB4F2"/>
<path d="M54.1262 41.8824H48.7207C47.6849 41.8824 46.8453 41.0529 46.8453 40.0296V39.4119H54.1262V41.8824Z" fill="white"/>
<path d="M62.9879 39.1323H58.0888V41.6028H62.9879V39.1323Z" fill="white"/>
<path d="M60.3273 39.1326H52.3845V44.8347C52.3845 46.1214 53.4402 47.1645 54.7426 47.1645H57.9693C59.2716 47.1645 60.3273 46.1214 60.3273 44.8347V39.1326Z" fill="#21243F"/>
<path d="M42.4732 40.6792C42.2837 40.6792 42.13 40.5274 42.13 40.3401V39.7587C42.13 39.5715 42.2837 39.4197 42.4732 39.4197C42.6627 39.4197 42.8163 39.5715 42.8163 39.7587V40.3401C42.8163 40.5274 42.6627 40.6792 42.4732 40.6792Z" fill="#262B47"/>
<path d="M54.1376 41.304H58.5746" stroke="white" stroke-width="0.83655" stroke-miterlimit="10" stroke-linecap="round"/>
<path d="M58.5746 42.2668H54.1376" stroke="white" stroke-width="0.83655" stroke-miterlimit="10" stroke-linecap="round"/>
<path d="M54.1378 40.3411H58.5748" stroke="white" stroke-width="0.83655" stroke-miterlimit="10" stroke-linecap="round"/>
<path d="M54.1376 44.2302H58.5746" stroke="white" stroke-width="0.83655" stroke-miterlimit="10" stroke-linecap="round"/>
<path d="M58.5746 45.1929H54.1376" stroke="white" stroke-width="0.83655" stroke-miterlimit="10" stroke-linecap="round"/>
<path d="M54.1377 43.2673H58.5747" stroke="white" stroke-width="0.83655" stroke-miterlimit="10" stroke-linecap="round"/>
<path d="M62.3259 38.6741L56.4038 36.6509H38.7533L46.6224 39.3394H62.8055C62.8055 39.0393 62.6128 38.7722 62.3259 38.6741Z" fill="#4A5175"/>
<path d="M46.8453 39.412L40.9306 36.405L35.6259 36.4758V37.5899L40.2705 37.7092L46.9649 41.3423L46.8453 39.412Z" fill="#878CB2"/>
<path d="M31.7817 29.8386H30.33V37.0154H31.7817V29.8386Z" fill="#3F4366"/>
<path d="M36.9102 36.4243H30.33V37.6909H36.9102V36.4243Z" fill="#878CB2"/>
<path d="M52.0557 29.8384C50.7901 29.0362 49.2976 28.5796 47.7267 28.5796H42.5335H38.9979H36.1222V29.8384H52.0557Z" fill="#4A5175"/>
<path d="M36.1767 28.5798H31.4519C30.8458 28.5798 30.3532 29.1395 30.3322 29.8387H38.7055C38.18 29.3197 37.5895 28.8939 36.9529 28.5798H36.5511C36.5401 28.5944 36.5253 28.6146 36.5085 28.638C36.4037 28.6002 36.2923 28.5798 36.1767 28.5798Z" fill="#3F4366"/>
<path d="M61.6959 49.0278C61.3259 49.0278 60.9733 48.8735 60.7247 48.6026L60.3692 48.2156C60.1217 47.946 59.7707 47.7917 59.4022 47.7906L52.9367 47.7703C52.5388 47.7689 52.1621 47.9462 51.9121 48.2518L51.6715 48.5462C51.4224 48.8507 51.0475 49.0278 50.6512 49.0278H45.1H42.8202H42.6486C33.9299 49.0291 25.2113 49.0304 16.4926 49.0318C16.9621 49.4122 17.5624 49.6408 18.217 49.6408H35.6031H46.7762H49.0391H58.7031H60.8389C61.3322 49.6408 61.7846 49.4106 62.1421 49.0278H61.6959Z" fill="#30345A"/>
<path d="M38.7879 51.9999C40.4917 51.9999 41.8728 49.52 41.8728 46.4609C41.8728 43.4018 40.4917 40.9219 38.7879 40.9219C37.0842 40.9219 35.703 43.4018 35.703 46.4609C35.703 49.52 37.0842 51.9999 38.7879 51.9999Z" fill="#262B47"/>
<path d="M38.7876 50.3386C39.9802 50.3386 40.9469 48.6026 40.9469 46.4612C40.9469 44.3197 39.9802 42.5837 38.7876 42.5837C37.595 42.5837 36.6282 44.3197 36.6282 46.4612C36.6282 48.6026 37.595 50.3386 38.7876 50.3386Z" fill="#C8CFE8"/>
<path d="M37.5179 46.4025C37.5179 44.5851 38.2155 43.064 39.1552 42.6442C39.0353 42.6072 38.913 42.584 38.7873 42.584C37.5948 42.584 36.628 44.32 36.628 46.4614C36.628 48.6028 37.5948 50.3388 38.7873 50.3388C38.9677 50.3388 39.1419 50.2948 39.3095 50.22C38.2925 49.9057 37.5179 48.3184 37.5179 46.4025Z" fill="#7CB4F2"/>
<path d="M40.3716 38.3345H38.0673C37.6069 38.3345 37.2338 37.9658 37.2338 37.511V36.7844C37.2338 36.3296 37.6069 35.9609 38.0673 35.9609H40.3716C40.8319 35.9609 41.2051 36.3296 41.2051 36.7844V37.511C41.2051 37.9658 40.8319 38.3345 40.3716 38.3345Z" fill="#21243F"/>
<path d="M41.0251 38.3345H38.7208C38.2604 38.3345 37.8873 37.9658 37.8873 37.511V36.7844C37.8873 36.3296 38.2604 35.9609 38.7208 35.9609H41.0251C41.4854 35.9609 41.8586 36.3296 41.8586 36.7844V37.511C41.8586 37.9658 41.4854 38.3345 41.0251 38.3345Z" fill="#3F4366"/>
<path d="M15.349 51.9999C17.0528 51.9999 18.4339 49.52 18.4339 46.4609C18.4339 43.4018 17.0528 40.9219 15.349 40.9219C13.6453 40.9219 12.2641 43.4018 12.2641 46.4609C12.2641 49.52 13.6453 51.9999 15.349 51.9999Z" fill="#262B47"/>
<path d="M15.3492 50.3386C16.5418 50.3386 17.5086 48.6026 17.5086 46.4612C17.5086 44.3197 16.5418 42.5837 15.3492 42.5837C14.1567 42.5837 13.1899 44.3197 13.1899 46.4612C13.1899 48.6026 14.1567 50.3386 15.3492 50.3386Z" fill="#C8CFE8"/>
<path d="M14.0796 46.4025C14.0796 44.5851 14.7771 43.064 15.7168 42.6442C15.597 42.6072 15.4747 42.584 15.349 42.584C14.1564 42.584 13.1896 44.32 13.1896 46.4614C13.1896 48.6028 14.1564 50.3388 15.349 50.3388C15.5293 50.3388 15.7036 50.2948 15.8711 50.22C14.8542 49.9057 14.0796 48.3184 14.0796 46.4025Z" fill="#7CB4F2"/>
<path d="M19.9277 29.5874L19.2812 27.9911C19.1831 27.7487 18.9454 27.5896 18.6811 27.5896H14.8034C14.5391 27.5896 14.3015 27.7487 14.2033 27.9911L13.5569 29.5874C13.4953 29.7397 13.4953 29.9096 13.5569 30.0617L14.2033 31.658C14.3015 31.9003 14.5391 32.0595 14.8034 32.0595H15.1264C15.1264 32.412 15.4159 32.6982 15.7729 32.6982H16.0961V32.9434C16.0961 33.7027 16.5166 34.3961 17.1673 34.7101C17.5033 34.8724 17.7121 35.2026 17.7121 35.5715C17.7121 36.0818 17.2589 36.5296 16.7424 36.5296C16.2079 36.5296 15.7731 36.1 15.7731 35.5717C15.7731 35.2192 15.4837 34.933 15.1267 34.933C14.7698 34.933 14.4804 35.2189 14.4804 35.5717C14.4804 36.804 15.4951 37.8068 16.7424 37.8068C17.9686 37.8068 19.0046 36.7832 19.0046 35.5715C19.0046 34.7106 18.518 33.9411 17.7347 33.5628C17.5246 33.4615 17.3888 33.2185 17.3888 32.9436V32.6984H17.7121C18.0689 32.6984 18.3583 32.4125 18.3583 32.0597H18.6815C18.9459 32.0597 19.1835 31.9006 19.2816 31.6582L19.9281 30.0619C19.9893 29.9096 19.9893 29.7397 19.9277 29.5874Z" fill="#30345A"/>
<path d="M19.2814 27.9911C19.1833 27.7487 18.9456 27.5896 18.6813 27.5896H14.8034C14.5391 27.5896 14.3015 27.7485 14.2033 27.9911L13.5569 29.5874C13.4953 29.7397 13.4953 29.9094 13.5569 30.0617L14.2033 31.658C14.3015 31.9003 14.5391 32.0595 14.8034 32.0595H15.1264C15.1264 32.2983 15.2608 32.5041 15.4575 32.6136H18.0272C18.2237 32.5041 18.3581 32.2983 18.3581 32.0595H18.6813C18.9456 32.0595 19.1833 31.9006 19.2814 31.658L19.9279 30.0617C19.9895 29.9096 19.9895 29.7397 19.9279 29.5874L19.2814 27.9911Z" fill="#51597D"/>
<path d="M29.4756 40.3816H7.76915C7.34445 40.3816 6.99994 40.0414 6.99994 39.6216C6.99994 39.202 7.34423 38.8616 7.76915 38.8616H29.4756C29.9003 38.8616 30.2448 39.2017 30.2448 39.6216C30.2448 40.0414 29.9003 40.3816 29.4756 40.3816Z" fill="#51597D"/>
</svg>
