<svg width="100" height="100" viewBox="0 0 100 100" fill="none" xmlns="http://www.w3.org/2000/svg">
<path d="M52.9465 50.4326H15.7363V53.9844H52.9465V50.4326Z" fill="#21243F"/>
<path d="M55.4465 54.8926H50.1517V64.6596H55.4465V54.8926Z" fill="#1A1E33"/>
<path d="M36.2249 60.6281C36.2249 56.2411 34.2799 52.6848 31.8809 52.6848C31.2076 52.6848 30.5702 52.9649 30.0012 53.465C29.4326 52.9649 28.7948 52.6848 28.1215 52.6848C25.7225 52.6848 23.7775 56.2411 23.7775 60.6281C23.7775 65.0151 25.7225 68.5714 28.1215 68.5714C28.2911 68.5714 28.4582 68.5534 28.6227 68.519V68.5714H32.1311V68.5573C34.414 68.3196 36.2249 64.8612 36.2249 60.6281Z" fill="#1A1E33"/>
<path d="M50.8871 55.1882H28.8257V64.6594H50.8871V55.1882Z" fill="#3F4366"/>
<path d="M35.8856 53.8739C35.6187 53.8504 35.3458 53.8211 35.0648 53.7844C35.0549 53.7896 35.044 53.7957 35.0338 53.8009C34.7784 53.636 34.4898 53.541 34.1835 53.541H20.5486V62.24C20.5486 63.554 21.3893 64.6195 22.4261 64.6195H25.388C25.501 64.6452 25.6165 64.6607 25.7352 64.6607H35.8856V53.8739Z" fill="#3F4366"/>
<path d="M50.0884 63.8564C43.3825 63.8574 36.6766 63.8584 29.9703 63.8597C30.5764 64.3597 31.3511 64.6601 32.1959 64.6601H50.8872C50.8872 64.2161 50.5294 63.8561 50.0884 63.8564Z" fill="#30345A"/>
<path d="M67.5304 60.6281C67.5304 56.2411 65.5854 52.6848 63.1864 52.6848C62.5131 52.6848 61.8757 52.9649 61.3067 53.465C60.7381 52.9649 60.1003 52.6848 59.427 52.6848C57.028 52.6848 55.083 56.2411 55.083 60.6281C55.083 65.0151 57.028 68.5714 59.427 68.5714C59.5966 68.5714 59.7637 68.5534 59.9281 68.519V68.5714H63.4366V68.5573C65.7195 68.3196 67.5304 64.8612 67.5304 60.6281Z" fill="#1A1E33"/>
<path d="M89.744 51.1187H71.9802C70.7552 50.1756 68.8468 48.9804 66.3303 48.5087C63.7187 48.0197 61.8279 48.5673 59.4176 48.9528C58.0736 49.1675 56.3898 49.3594 54.3907 49.4093C54.3459 49.4016 54.3005 49.3955 54.2535 49.3955H54.0615V64.6597H54.6375H69.0592H71.9802H84.4541H87.2109C88.7024 64.6597 89.9114 63.0086 89.9114 60.972C89.8557 57.6878 89.7997 54.4033 89.744 51.1187Z" fill="#3F4366"/>
<path d="M55.9021 31.4285H60.5069C61.5235 31.4285 62.3475 32.2576 62.3475 33.2805V61.9859C62.3475 63.0088 61.5235 63.8379 60.5069 63.8379H55.9021C54.8855 63.8379 54.0615 63.0088 54.0615 61.9859V33.2805C54.0615 32.2576 54.8855 31.4285 55.9021 31.4285Z" fill="#3F4366"/>
<path d="M90 48.395C89.401 45.9779 88.8022 43.5611 88.2032 41.144C86.7485 35.2733 83.2483 31.4285 79.3581 31.4285C72.2701 31.4983 66.7997 31.4201 59.7117 31.49L61.9178 39.1854L68.9789 48.395H90Z" fill="#B5DBFB"/>
<path d="M81.6289 31.8765L67.8011 42.441L68.979 48.3948H76.2513L87.6178 39.1913C86.3131 35.51 84.1403 32.8778 81.6289 31.8765Z" fill="#CFECFF"/>
<path d="M68.9777 47.1637C68.5729 44.7466 68.1681 42.3298 67.7633 39.9126C67.1099 36.0115 65.8456 33.0067 64.2997 31.4287H63.9195C63.9092 31.457 63.8952 31.497 63.8792 31.5424C63.78 31.4686 63.6744 31.4287 63.5653 31.4287H59.0945C58.5083 31.4287 58.0331 32.5727 58.0331 33.984V48.1142H64.6267V47.1637C66.0769 47.1637 67.5272 47.1637 68.9777 47.1637Z" fill="#7CB4F2"/>
<path d="M85.4591 54.9055H78.4818C77.1448 54.9055 76.061 53.815 76.061 52.4698V51.6577H85.4588V54.9055H85.4591Z" fill="white"/>
<path d="M66.3305 53.2444C66.0857 53.2444 65.8876 53.0448 65.8876 52.7988V52.0347C65.8876 51.7884 66.086 51.5891 66.3305 51.5891C66.5753 51.5891 66.7734 51.7887 66.7734 52.0347V52.7988C66.7734 53.0448 66.575 53.2444 66.3305 53.2444Z" fill="#262B47"/>
<path d="M87.6035 61.35C87.6035 57.3619 85.8355 54.1289 83.6544 54.1289C83.0422 54.1289 82.4627 54.3836 81.9456 54.8382C81.4285 54.3836 80.8489 54.1289 80.2368 54.1289C78.0557 54.1289 76.2877 57.3619 76.2877 61.35C76.2877 65.3381 78.0557 68.5711 80.2368 68.5711C80.391 68.5711 80.543 68.5547 80.6925 68.5235V68.5711H83.8819V68.5582C85.9574 68.3422 87.6035 65.1983 87.6035 61.35Z" fill="#20233E"/>
<path d="M89.7444 48.3606H69.1242V64.6597H87.2193C88.706 64.6597 89.9114 62.6724 89.9114 60.2211V48.5061H89.9997L89.7444 48.3606Z" fill="#51597D"/>
<path d="M26.2661 64.6009H31.6162V63.824H24.1218C24.7042 64.3092 25.451 64.6009 26.2661 64.6009Z" fill="#30345A"/>
<path d="M21.0043 56.9475C20.7957 56.9475 20.5944 56.9697 20.4014 57.008V61.3983C20.5944 61.4363 20.7957 61.4588 21.0043 61.4588C22.315 61.4588 23.3774 60.6574 23.3774 59.6686V58.7377C23.3774 57.7492 22.315 56.9475 21.0043 56.9475Z" fill="#878CB2"/>
<path d="M65.1533 47.7305H54.0615V49.3964H65.1533V47.7305Z" fill="#878CB2"/>
<path d="M88.4014 63.854C87.8705 63.854 87.3639 63.6283 87.0071 63.2326L86.6609 62.8488C86.3054 62.4547 85.8017 62.2293 85.2727 62.2273L77.1018 62.2009C76.531 62.199 75.9902 62.4579 75.6314 62.9048L75.435 63.1495C75.0775 63.5948 74.5393 63.8534 73.9706 63.8534H66.8961H63.9534H63.7319C60.5361 63.854 57.3402 63.8543 54.1444 63.855C53.8077 63.855 53.5348 64.1296 53.5348 64.4683C53.5348 64.5736 53.6196 64.6593 53.7246 64.6593H54.6378H69.0596H71.9806H84.4545H87.2113C87.6839 64.6593 88.1278 64.4925 88.514 64.2005C88.6606 64.09 88.5851 63.854 88.4014 63.854Z" fill="#30345A"/>
<path d="M59.4277 68.5709C61.8268 68.5709 63.7717 65.0146 63.7717 60.6276C63.7717 56.2407 61.8268 52.6843 59.4277 52.6843C57.0286 52.6843 55.0837 56.2407 55.0837 60.6276C55.0837 65.0146 57.0286 68.5709 59.4277 68.5709Z" fill="#262B47"/>
<path d="M59.4277 66.1878C61.107 66.1878 62.4683 63.6983 62.4683 60.6275C62.4683 57.5566 61.107 55.0671 59.4277 55.0671C57.7484 55.0671 56.387 57.5566 56.387 60.6275C56.387 63.6983 57.7484 66.1878 59.4277 66.1878Z" fill="#C8CFE8"/>
<path d="M57.6398 60.5434C57.6398 57.937 58.6219 55.7559 59.9454 55.1538C59.7768 55.1006 59.6046 55.0671 59.4277 55.0671C57.7483 55.0671 56.387 57.5564 56.387 60.6275C56.387 63.6982 57.7483 66.1878 59.4277 66.1878C59.6817 66.1878 59.9269 66.1247 60.1627 66.0171C58.7307 65.567 57.6398 63.2909 57.6398 60.5434Z" fill="#7CB4F2"/>
<path d="M54.5641 55.9084H17.2803C16.3462 55.9084 15.5887 55.1466 15.5887 54.2064C15.5887 53.2665 16.3459 52.5044 17.2803 52.5044H54.5641V55.9084Z" fill="#3F4366"/>
<path d="M28.1219 68.5709C30.521 68.5709 32.4659 65.0146 32.4659 60.6276C32.4659 56.2407 30.521 52.6843 28.1219 52.6843C25.7228 52.6843 23.7779 56.2407 23.7779 60.6276C23.7779 65.0146 25.7228 68.5709 28.1219 68.5709Z" fill="#262B47"/>
<path d="M28.1219 66.1878C29.8012 66.1878 31.1625 63.6983 31.1625 60.6275C31.1625 57.5566 29.8012 55.0671 28.1219 55.0671C26.4426 55.0671 25.0812 57.5566 25.0812 60.6275C25.0812 63.6983 26.4426 66.1878 28.1219 66.1878Z" fill="#C8CFE8"/>
<path d="M26.334 60.5434C26.334 57.937 27.3161 55.7559 28.6396 55.1538C28.471 55.1006 28.2988 55.0671 28.1219 55.0671C26.4425 55.0671 25.0812 57.5564 25.0812 60.6275C25.0812 63.6982 26.4425 66.1878 28.1219 66.1878C28.376 66.1878 28.6211 66.1247 28.8569 66.0171C27.4249 65.567 26.334 63.2909 26.334 60.5434Z" fill="#7CB4F2"/>
<path d="M51.8106 51.4684H11.1357C10.5085 51.4684 10 50.9568 10 50.3257V50.2433C10 49.6122 10.5085 49.1006 11.1357 49.1006H51.8106C52.4378 49.1006 52.9463 49.6122 52.9463 50.2433V50.3257C52.9463 50.9568 52.4378 51.4684 51.8106 51.4684Z" fill="#878CB2"/>
<path d="M83.8533 33.2659C83.5774 33.0257 83.2945 32.8052 83.0043 32.6097C83.0027 32.6088 83.0011 32.6075 82.9995 32.6065C82.5566 32.3087 82.0987 32.064 81.6289 31.8766H81.6286C80.8961 31.5842 80.1352 31.4287 79.3582 31.4287C73.8814 31.4828 69.3678 31.4487 64.33 31.4625C64.3198 31.4519 64.3096 31.4393 64.299 31.4287H63.9188C63.9153 31.4387 63.9108 31.4513 63.9064 31.4638C63.8497 31.4641 63.7934 31.4641 63.7368 31.4645C63.6808 31.4422 63.6235 31.429 63.5646 31.429H60.5067H59.0939H55.9019C54.8904 31.429 54.0699 32.2504 54.0622 33.2666H83.8533V33.2659Z" fill="#51597D"/>
<path d="M63.565 31.4285H60.507H59.0942H55.9022C54.8907 31.4285 54.0702 32.2498 54.0626 33.266H65.6309C65.2197 32.5303 64.773 31.9118 64.2997 31.4285H63.9195C63.9093 31.4568 63.8952 31.4967 63.8792 31.5421C63.7797 31.4684 63.6744 31.4285 63.565 31.4285Z" fill="#3F4366"/>
<path d="M76.7879 51.0087H71.0983C70.008 51.0087 69.1242 50.1193 69.1242 49.0223V48.3604H76.7876V51.0087H76.7879Z" fill="white"/>
<path d="M67.7047 50.2414H64.7303C64.136 50.2414 63.6544 49.7568 63.6544 49.1589V48.2036C63.6544 47.6057 64.136 47.1211 64.7303 47.1211H67.7047C68.2989 47.1211 68.7805 47.6057 68.7805 48.2036V49.1589C68.7805 49.7568 68.2989 50.2414 67.7047 50.2414Z" fill="#21243F"/>
<path d="M68.5484 50.2414H65.5739C64.9797 50.2414 64.4981 49.7568 64.4981 49.1589V48.2036C64.4981 47.6057 64.9797 47.1211 65.5739 47.1211H68.5484C69.1426 47.1211 69.6242 47.6057 69.6242 48.2036V49.1589C69.6242 49.7568 69.1426 50.2414 68.5484 50.2414Z" fill="#3F4366"/>
<path d="M89.9118 48.3604H85.9979V51.0087H89.9118V48.3604Z" fill="white"/>
<path d="M85.9623 48.3606H75.7101V55.8564C75.7101 57.5477 77.0726 58.9191 78.7539 58.9191H82.9187C84.5997 58.9191 85.9626 57.548 85.9626 55.8564L85.9623 48.3606Z" fill="#21243F"/>
<path d="M77.9726 51.2146H83.7" stroke="white" stroke-width="1.88771" stroke-miterlimit="10" stroke-linecap="round"/>
<path d="M83.7 52.4805H77.9726" stroke="white" stroke-width="1.88771" stroke-miterlimit="10" stroke-linecap="round"/>
<path d="M77.9726 49.9495H83.7" stroke="white" stroke-width="1.88771" stroke-miterlimit="10" stroke-linecap="round"/>
<path d="M77.9726 55.0618H83.7" stroke="white" stroke-width="1.88771" stroke-miterlimit="10" stroke-linecap="round"/>
<path d="M83.7 56.3274H77.9726" stroke="white" stroke-width="1.88771" stroke-miterlimit="10" stroke-linecap="round"/>
<path d="M77.9726 53.7959H83.7" stroke="white" stroke-width="1.88771" stroke-miterlimit="10" stroke-linecap="round"/>
</svg>
