<svg width="237" height="48" viewBox="0 0 237 48" fill="none" xmlns="http://www.w3.org/2000/svg">
<path d="M30.1184 29.5473H17.964C16.9522 29.5478 15.9581 29.2818 15.0818 28.7759C14.2055 28.27 13.4781 27.5421 12.9726 26.6656L8.22302 18.4323H35.4958C35.7253 18.4329 35.9505 18.4942 36.1488 18.6099C36.347 18.7256 36.5111 18.8916 36.6244 19.0912C36.7378 19.2907 36.7964 19.5167 36.7943 19.7462C36.7922 19.9757 36.7294 20.2006 36.6124 20.398L31.8217 28.5799C31.6463 28.8752 31.397 29.1198 31.0983 29.2895C30.7996 29.4591 30.4619 29.548 30.1184 29.5473Z" fill="white"/>
<path d="M64.163 18.8542L61.7135 18.6792C61.2856 17.1342 60.6686 15.6478 59.8765 14.2539L61.482 12.3962C61.9249 11.8851 62.1579 11.2252 62.1341 10.5493C62.1102 9.8734 61.8312 9.23159 61.3533 8.753L57.8696 5.27444C57.3917 4.79543 56.7497 4.51572 56.0734 4.49184C55.3971 4.46796 54.737 4.70169 54.2264 5.1458L52.3636 6.75643C50.9707 5.98001 49.488 5.3769 47.9485 4.96055L47.7736 2.48542C47.7255 1.81103 47.4239 1.17985 46.9294 0.718765C46.4349 0.257684 45.7842 0.00088707 45.1081 3.10353e-07H40.1784C39.5019 -0.000325611 38.8506 0.256062 38.3558 0.717385C37.861 1.17871 37.5598 1.81059 37.5129 2.48542L37.3842 4.22985H0L4.49743 12.2007C4.99022 13.0731 5.70576 13.7991 6.57095 14.3045C7.43614 14.8098 8.41998 15.0765 9.42196 15.0772H42.6844C45.0509 15.0772 47.3204 16.0173 48.9938 17.6906C50.6671 19.364 51.6072 21.6335 51.6072 24C51.6072 26.3665 50.6671 28.636 48.9938 30.3094C47.3204 31.9827 45.0509 32.9228 42.6844 32.9228H32.4443C31.4125 32.9234 30.3993 33.1976 29.508 33.7173C28.6167 34.2371 27.8791 34.9839 27.3705 35.8816L22.9091 43.7702H37.3842L37.5077 45.5146C37.5571 46.1894 37.8598 46.8206 38.3551 47.2816C38.8504 47.7426 39.5017 47.9992 40.1784 48H45.0978C45.7753 48.0005 46.4279 47.7445 46.9243 47.2834C47.4207 46.8223 47.7242 46.1903 47.7736 45.5146L47.9537 42.988C49.4755 42.5565 50.9404 41.945 52.3173 41.1664L54.247 42.8336C54.7573 43.2762 55.4163 43.5091 56.0914 43.4852C56.7664 43.4613 57.4074 43.1825 57.8851 42.705L61.3688 39.2213C61.8478 38.7433 62.1275 38.1013 62.1514 37.425C62.1753 36.7487 61.9415 36.0886 61.4974 35.578L59.8714 33.6998C60.6633 32.3149 61.2803 30.837 61.7084 29.3002L64.1681 29.1201C64.8416 29.0707 65.4715 28.7686 65.9315 28.2742C66.3915 27.7798 66.6476 27.1298 66.6484 26.4545V21.53C66.6525 20.8514 66.3977 20.1968 65.9359 19.6996C65.4741 19.2024 64.84 18.9 64.163 18.8542Z" fill="white"/>
<path d="M90.5617 9.0035C92.4881 8.95986 94.4019 9.32443 96.1774 10.0733C97.9529 10.8221 99.5497 11.9382 100.863 13.3482C103.624 16.2385 105.002 19.7897 104.999 24.0016C104.996 28.2136 103.617 31.7647 100.863 34.655C99.5489 36.063 97.9515 37.1768 96.176 37.9232C94.4005 38.6697 92.4872 39.0318 90.5617 38.9858H78.6484V9.0035H90.5617ZM90.5617 33.3442C91.7421 33.3856 92.9178 33.1758 94.011 32.7286C95.1041 32.2815 96.0898 31.6071 96.9028 30.7503C98.5301 29.0303 99.3438 26.7807 99.3438 24.0016C99.3438 21.2225 98.5301 18.9729 96.9028 17.2529C96.0898 16.3961 95.1041 15.7217 94.011 15.2746C92.9178 14.8274 91.7421 14.6176 90.5617 14.6591H84.5402V33.3442H90.5617Z" fill="white"/>
<path d="M113.615 29.9583C114.356 32.6417 116.363 33.9834 119.636 33.9834C121.748 33.9834 123.348 33.2701 124.435 31.8435L128.891 34.4142C126.779 37.4712 123.666 38.9998 119.553 38.9998C116.008 38.9998 113.165 37.9282 111.026 35.7852C109.971 34.7269 109.144 33.4646 108.595 32.0756C108.045 30.6867 107.785 29.2002 107.829 27.7072C107.787 26.2175 108.046 24.7347 108.59 23.3474C109.135 21.9602 109.954 20.6971 110.998 19.6338C113.113 17.4722 115.827 16.3914 119.141 16.3914C120.593 16.3485 122.038 16.6154 123.378 17.1745C124.719 17.7336 125.926 18.5719 126.918 19.6338C128.967 21.8137 130.069 24.7165 129.984 27.7072C129.979 28.4702 129.906 29.2313 129.766 29.9814L113.615 29.9583ZM113.527 25.6738H124.453C124.236 24.3854 123.54 23.2269 122.503 22.4314C121.529 21.7173 120.349 21.3401 119.141 21.3568C117.811 21.3011 116.503 21.7033 115.435 22.4963C114.446 23.2993 113.771 24.4238 113.527 25.6738Z" fill="white"/>
<path d="M138.081 23.0752C138.081 23.6496 138.46 24.1128 139.215 24.4648C140.11 24.8616 141.041 25.1718 141.994 25.3912C143.095 25.6679 144.177 26.0097 145.237 26.4148C146.337 26.8387 147.299 27.5584 148.016 28.4945C148.796 29.5441 149.197 30.828 149.151 32.1352C149.151 34.3369 148.329 36.0353 146.687 37.2303C145.044 38.4253 142.992 39.0151 140.531 38.9997C136.13 38.9997 133.131 37.3013 131.531 33.9046L136.33 31.2042C136.947 33.057 138.348 33.9833 140.531 33.9833C142.499 33.9833 143.486 33.3719 143.486 32.1306C143.486 31.5609 143.106 31.0977 142.351 30.741C141.456 30.3359 140.526 30.0134 139.572 29.7776C138.471 29.4846 137.388 29.1258 136.33 28.703C135.241 28.2809 134.282 27.5796 133.551 26.6696C132.772 25.6756 132.37 24.4386 132.416 23.1771C132.374 22.2203 132.563 21.2675 132.966 20.3987C133.369 19.5299 133.975 18.7704 134.732 18.1839C136.404 16.9326 138.453 16.2903 140.54 16.3636C142.201 16.3435 143.839 16.7502 145.297 17.5447C146.719 18.3249 147.893 19.4904 148.683 20.9075L143.968 23.4782C143.692 22.8044 143.215 22.2326 142.601 21.8411C141.987 21.4497 141.267 21.2578 140.54 21.2919C139.914 21.2649 139.295 21.4263 138.761 21.7551C138.541 21.8948 138.361 22.0907 138.242 22.3227C138.122 22.5548 138.066 22.8145 138.081 23.0752Z" fill="white"/>
<path d="M166.15 17.5726H172.231L164.093 38.9998H157.794L149.651 17.5726H155.737L160.911 32.566L166.15 17.5726Z" fill="white"/>
<path d="M190.314 16.9749H195.845V38.3974H190.314V35.8684C188.659 37.9558 186.331 38.9995 183.329 38.9995C181.942 39.0085 180.568 38.7205 179.301 38.1549C178.034 37.5893 176.903 36.7591 175.983 35.7202C173.952 33.5536 172.852 30.6761 172.922 27.707C172.847 24.7314 173.947 21.8461 175.983 19.6753C176.903 18.6363 178.034 17.8061 179.301 17.2405C180.568 16.6749 181.942 16.3869 183.329 16.3959C186.331 16.3959 188.659 17.4396 190.314 19.527V16.9749ZM180.124 32.0332C180.676 32.5924 181.337 33.0317 182.066 33.3234C182.795 33.6151 183.577 33.753 184.362 33.7284C185.151 33.7518 185.936 33.6134 186.668 33.3219C187.401 33.0303 188.067 32.5917 188.624 32.0332C189.185 31.465 189.625 30.7883 189.915 30.0444C190.206 29.3006 190.342 28.5052 190.314 27.707C190.344 26.9051 190.209 26.1056 189.918 25.3576C189.628 24.6097 189.187 23.9291 188.624 23.3576C188.066 22.8006 187.4 22.3633 186.667 22.0726C185.935 21.7818 185.15 21.6438 184.362 21.667C183.577 21.642 182.795 21.7792 182.065 22.0701C181.335 22.361 180.673 22.7993 180.12 23.3576C179.561 23.9319 179.125 24.6134 178.838 25.361C178.55 26.1085 178.418 26.9066 178.447 27.707C178.42 28.5036 178.554 29.2975 178.841 30.0409C179.129 30.7844 179.563 31.4621 180.12 32.0332H180.124Z" fill="white"/>
<path d="M206.382 21.2593C206.838 19.9597 207.743 18.8656 208.934 18.1745C210.14 17.4834 211.51 17.1283 212.899 17.1462V23.3159C211.317 23.0899 209.707 23.4561 208.379 24.3442C207.048 25.2273 206.382 26.6987 206.382 28.7584V38.9995H200.856V17.5723H206.382V21.2593Z" fill="white"/>
<path d="M219.968 29.9582C220.709 32.6416 222.716 33.9833 225.989 33.9833C228.104 33.9833 229.704 33.27 230.788 31.8433L235.244 34.414C233.132 37.4711 230.019 38.9996 225.906 38.9996C222.361 38.9996 219.518 37.9281 217.379 35.7851C216.324 34.7271 215.496 33.465 214.945 32.0761C214.395 30.6871 214.134 29.2004 214.178 27.707C214.135 26.217 214.395 24.7337 214.94 23.3463C215.485 21.959 216.305 20.6961 217.351 19.6336C219.463 17.4721 222.176 16.3913 225.489 16.3913C226.941 16.3481 228.386 16.6149 229.727 17.174C231.068 17.7331 232.274 18.5716 233.266 19.6336C235.317 21.8128 236.421 24.7157 236.337 27.707C236.331 28.4698 236.26 29.2307 236.124 29.9813L219.968 29.9582ZM219.884 25.6736H230.806C230.591 24.3858 229.896 23.2273 228.861 22.4313C227.885 21.7162 226.703 21.339 225.494 21.3567C224.172 21.3052 222.873 21.7072 221.811 22.4962C220.813 23.2935 220.13 24.4196 219.884 25.6736Z" fill="white"/>
</svg>
