<svg width="119" height="24" viewBox="0 0 119 24" fill="none" xmlns="http://www.w3.org/2000/svg">
<path d="M15.059 14.7736H8.98183C8.47592 14.7739 7.97886 14.6409 7.54073 14.388C7.10259 14.135 6.73884 13.7711 6.48611 13.3328L4.11133 9.21619H17.7477C17.8624 9.21648 17.9751 9.2471 18.0742 9.30495C18.1733 9.3628 18.2554 9.44583 18.312 9.54561C18.3687 9.64539 18.398 9.75838 18.397 9.87313C18.3959 9.98788 18.3645 10.1003 18.306 10.199L15.9106 14.2899C15.823 14.4376 15.6983 14.5599 15.549 14.6448C15.3996 14.7296 15.2308 14.774 15.059 14.7736Z" fill="#0055FF"/>
<path d="M32.0815 9.4271L30.8568 9.33962C30.6428 8.56708 30.3343 7.8239 29.9383 7.12693L30.741 6.19811C30.9625 5.94256 31.079 5.61262 31.067 5.27466C31.0551 4.9367 30.9156 4.61579 30.6767 4.3765L28.9348 2.63722C28.6958 2.39771 28.3748 2.25786 28.0367 2.24592C27.6986 2.23398 27.3685 2.35084 27.1132 2.5729L26.1818 3.37822C25.4853 2.99 24.744 2.68845 23.9743 2.48027L23.8868 1.24271C23.8627 0.905514 23.7119 0.589923 23.4647 0.359383C23.2174 0.128842 22.8921 0.000443535 22.554 1.55177e-07H20.0892C19.751 -0.000162805 19.4253 0.128031 19.1779 0.358692C18.9305 0.589354 18.7799 0.905295 18.7564 1.24271L18.6921 2.11492H0L2.24871 6.10034C2.49511 6.53655 2.85288 6.89954 3.28547 7.15223C3.71807 7.40492 4.20999 7.53824 4.71098 7.53859H21.3422C22.5254 7.53859 23.6602 8.00863 24.4969 8.84531C25.3336 9.68199 25.8036 10.8168 25.8036 12C25.8036 13.1832 25.3336 14.318 24.4969 15.1547C23.6602 15.9914 22.5254 16.4614 21.3422 16.4614H16.2221C15.7062 16.4617 15.1996 16.5988 14.754 16.8587C14.3083 17.1186 13.9396 17.492 13.6852 17.9408L11.4545 21.8851H18.6921L18.7539 22.7573C18.7785 23.0947 18.9299 23.4103 19.1776 23.6408C19.4252 23.8713 19.7509 23.9996 20.0892 24H22.5489C22.8877 24.0003 23.2139 23.8722 23.4622 23.6417C23.7104 23.4111 23.8621 23.0952 23.8868 22.7573L23.9768 21.494C24.7378 21.2782 25.4702 20.9725 26.1587 20.5832L27.1235 21.4168C27.3786 21.6381 27.7081 21.7545 28.0457 21.7426C28.3832 21.7307 28.7037 21.5913 28.9425 21.3525L30.6844 19.6106C30.9239 19.3716 31.0638 19.0506 31.0757 18.7125C31.0876 18.3744 30.9708 18.0443 30.7487 17.789L29.9357 16.8499C30.3316 16.1574 30.6402 15.4185 30.8542 14.6501L32.084 14.56C32.4208 14.5354 32.7357 14.3843 32.9657 14.1371C33.1957 13.8899 33.3238 13.5649 33.3242 13.2273V10.765C33.3263 10.4257 33.1989 10.0984 32.968 9.8498C32.737 9.60119 32.42 9.45002 32.0815 9.4271Z" fill="#0055FF"/>
<path d="M45.2808 4.50175C46.2441 4.47993 47.201 4.66222 48.0887 5.03663C48.9764 5.41104 49.7749 5.9691 50.4315 6.67411C51.8118 8.11927 52.5012 9.89483 52.4997 12.0008C52.4981 14.1068 51.8087 15.8823 50.4315 17.3275C49.7744 18.0315 48.9758 18.5884 48.088 18.9616C47.2003 19.3348 46.2436 19.5159 45.2808 19.4929H39.3242V4.50175H45.2808ZM45.2808 16.6721C45.871 16.6928 46.4589 16.5879 47.0055 16.3643C47.5521 16.1407 48.0449 15.8036 48.4514 15.3751C49.2651 14.5152 49.6719 13.3904 49.6719 12.0008C49.6719 10.6112 49.2651 9.48645 48.4514 8.62646C48.0449 8.19804 47.5521 7.86087 47.0055 7.63729C46.4589 7.4137 45.871 7.3088 45.2808 7.32953H42.2701V16.6721H45.2808Z" fill="#223D62"/>
<path d="M56.8074 14.9791C57.178 16.3208 58.1816 16.9917 59.8182 16.9917C60.8742 16.9917 61.674 16.635 62.2175 15.9217L64.4454 17.2071C63.3894 18.7356 61.833 19.4999 59.7765 19.4999C58.004 19.4999 56.5828 18.9641 55.5128 17.8926C54.9858 17.3634 54.5722 16.7323 54.2975 16.0378C54.0227 15.3433 53.8925 14.6001 53.9148 13.8536C53.8937 13.1088 54.0231 12.3673 54.2953 11.6737C54.5675 10.9801 54.9769 10.3485 55.4989 9.81688C56.5565 8.73611 57.9137 8.19572 59.5704 8.19572C60.2965 8.17424 61.0188 8.30772 61.6893 8.58725C62.3598 8.86679 62.963 9.28597 63.4588 9.81688C64.4835 10.9069 65.0347 12.3582 64.992 13.8536C64.9894 14.2351 64.953 14.6156 64.8832 14.9907L56.8074 14.9791ZM56.7634 12.8369H62.2268C62.1183 12.1927 61.7699 11.6135 61.2517 11.2157C60.7646 10.8587 60.1743 10.67 59.5704 10.6784C58.9058 10.6505 58.2517 10.8517 57.7176 11.2481C57.2233 11.6496 56.8856 12.2119 56.7634 12.8369V12.8369Z" fill="#223D62"/>
<path d="M69.0404 11.5376C69.0404 11.8248 69.2303 12.0564 69.6078 12.2324C70.0551 12.4308 70.5204 12.5859 70.9974 12.6956C71.5474 12.834 72.0887 13.0049 72.6185 13.2074C73.1687 13.4193 73.6496 13.7792 74.0081 14.2473C74.3984 14.7721 74.5984 15.414 74.5755 16.0676C74.5755 17.1685 74.1648 18.0177 73.3434 18.6152C72.522 19.2127 71.4961 19.5076 70.2655 19.4999C68.0654 19.4999 66.5654 18.6507 65.7656 16.9523L68.1649 15.6021C68.4737 16.5285 69.1739 16.9917 70.2655 16.9917C71.2498 16.9917 71.7431 16.686 71.7431 16.0653C71.7431 15.7804 71.5532 15.5489 71.1757 15.3705C70.7281 15.168 70.263 15.0067 69.7861 14.8888C69.2355 14.7423 68.6941 14.5629 68.1649 14.3515C67.6205 14.1405 67.1413 13.7898 66.7754 13.3348C66.3863 12.8378 66.1854 12.2193 66.208 11.5886C66.1873 11.1102 66.2817 10.6338 66.4832 10.1994C66.6846 9.76496 66.9874 9.38521 67.3659 9.09198C68.2019 8.46631 69.2266 8.14516 70.2701 8.18181C71.1005 8.17179 71.9194 8.37514 72.6486 8.77238C73.3599 9.16245 73.9466 9.74522 74.3416 10.4538L71.984 11.7391C71.8461 11.4022 71.6074 11.1163 71.3005 10.9206C70.9937 10.7248 70.6337 10.6289 70.2701 10.646C69.9572 10.6325 69.6474 10.7132 69.3808 10.8776C69.2705 10.9474 69.1808 11.0454 69.121 11.1614C69.0611 11.2774 69.0333 11.4073 69.0404 11.5376V11.5376Z" fill="#223D62"/>
<path d="M83.0749 8.78629H86.1157L82.0466 19.4999H78.8969L74.8254 8.78629H77.8686L80.4555 16.283L83.0749 8.78629Z" fill="#223D62"/>
<path d="M95.1572 8.48744H97.9224V19.1987H95.1572V17.9342C94.3296 18.9779 93.1654 19.4998 91.6647 19.4998C90.9709 19.5043 90.2842 19.3603 89.6507 19.0775C89.0172 18.7947 88.4515 18.3796 87.9916 17.8601C86.9759 16.7768 86.4262 15.3381 86.4608 13.8535C86.4235 12.3657 86.9734 10.9231 87.9916 9.83764C88.4515 9.31816 89.0172 8.90307 89.6507 8.62026C90.2842 8.33745 90.9709 8.19346 91.6647 8.19795C93.1654 8.19795 94.3296 8.71981 95.1572 9.76353V8.48744ZM90.0621 16.0166C90.3379 16.2962 90.6684 16.5159 91.0331 16.6617C91.3977 16.8076 91.7886 16.8765 92.1812 16.8642C92.5754 16.8759 92.9678 16.8067 93.3342 16.661C93.7007 16.5152 94.0334 16.2959 94.3118 16.0166C94.5925 15.7325 94.8123 15.3942 94.9576 15.0222C95.103 14.6503 95.1709 14.2526 95.1572 13.8535C95.1719 13.4525 95.1045 13.0528 94.9592 12.6788C94.8138 12.3049 94.5935 11.9646 94.3118 11.6788C94.0329 11.4003 93.7001 11.1816 93.3337 11.0363C92.9674 10.8909 92.5752 10.8219 92.1812 10.8335C91.7884 10.821 91.3974 10.8896 91.0324 11.0351C90.6673 11.1805 90.3363 11.3997 90.0598 11.6788C89.7806 11.966 89.5626 12.3067 89.4189 12.6805C89.2752 13.0543 89.2088 13.4533 89.2237 13.8535C89.21 14.2518 89.277 14.6488 89.4207 15.0205C89.5644 15.3922 89.7817 15.7311 90.0598 16.0166H90.0621Z" fill="#223D62"/>
<path d="M103.191 10.6297C103.419 9.97984 103.872 9.43281 104.467 9.08725C105.07 8.74169 105.755 8.56414 106.45 8.57311V11.658C105.659 11.5449 104.854 11.728 104.189 12.1721C103.524 12.6137 103.191 13.3494 103.191 14.3792V19.4998H100.428V8.78617H103.191V10.6297Z" fill="#223D62"/>
<path d="M109.984 14.9791C110.355 16.3208 111.358 16.9916 112.995 16.9916C114.052 16.9916 114.852 16.635 115.394 15.9217L117.622 17.207C116.566 18.7356 115.01 19.4998 112.953 19.4998C111.181 19.4998 109.759 18.9641 108.689 17.8925C108.162 17.3636 107.748 16.7325 107.473 16.038C107.198 15.3435 107.067 14.6002 107.089 13.8535C107.068 13.1085 107.197 12.3669 107.47 11.6732C107.743 10.9795 108.153 10.3481 108.675 9.81682C109.732 8.73604 111.088 8.19566 112.745 8.19566C113.471 8.17403 114.193 8.30744 114.864 8.58698C115.534 8.86653 116.137 9.28579 116.633 9.81682C117.659 10.9064 118.211 12.3579 118.169 13.8535C118.166 14.2349 118.13 14.6154 118.062 14.9907L109.984 14.9791ZM109.942 12.8368H115.403C115.296 12.1929 114.948 11.6137 114.431 11.2157C113.943 10.8581 113.352 10.6695 112.747 10.6784C112.086 10.6526 111.436 10.8536 110.906 11.2481C110.406 11.6468 110.065 12.2098 109.942 12.8368V12.8368Z" fill="#223D62"/>
</svg>
