<svg width="188" height="143" viewBox="0 0 188 143" fill="none" xmlns="http://www.w3.org/2000/svg">
<path d="M87.3333 51.2521V38.5854H128.896L144.229 23.2521H71.7706L56.4373 38.5854L69.1053 51.2521H87.3333Z" fill="#F4F5F5"/>
<path d="M101.667 79.148L113.896 66.9187L103.563 56.5854H66.8947L52.6667 42.356L38 57.024V102.585H60V125.919H93.8333V109.315L101.667 101.481V79.148Z" fill="#F4F5F5"/>
<path d="M151.639 23.3841L131.104 43.9188H92.6666V51.2521H105.771L129.104 74.5854H161.333V34.5855C161.333 28.8841 157.119 24.1801 151.639 23.3841Z" fill="#D6D8DA"/>
<path d="M32.6666 77.9187V54.8134L64.2293 23.252H22C15.7413 23.252 10.6666 28.3254 10.6666 34.5854V77.9187H32.6666Z" fill="#D6D8DA"/>
<path d="M126.896 79.9187L117.667 70.6894L107 81.356V103.689L99.1666 111.523V125.919H150C156.259 125.919 161.333 120.844 161.333 114.585V79.9187H126.896Z" fill="#F4F5F5"/>
<path d="M54.6666 107.919H32.6666V83.252H10.6666V114.585C10.6666 120.844 15.7413 125.919 22 125.919H54.6666V107.919Z" fill="#F4F5F5"/>
<path d="M45.4586 13.8266C45.4586 6.19063 39.268 -5.90583e-05 31.632 -5.90583e-05C23.996 -5.90583e-05 17.8053 6.19063 17.8053 13.8266C17.8053 13.8266 15.8587 28.4706 31.632 40.1146C47.4053 28.4706 45.4586 13.8266 45.4586 13.8266Z" fill="#0055FF"/>
<path d="M32.4439 23.808C26.2745 24.2946 21.1639 19.184 21.6505 13.0133C22.0332 8.15998 25.9652 4.22797 30.8185 3.84531C36.9892 3.35864 42.0999 8.4693 41.6132 14.6386C41.2305 19.492 37.2985 23.4253 32.4439 23.808Z" fill="white"/>
<mask id="mask0_2494_10562" style="mask-type:luminance" maskUnits="userSpaceOnUse" x="26" y="8" width="11" height="12">
<path d="M32.0613 19.1067C28.7973 19.364 26.0933 16.6613 26.3506 13.396C26.5533 10.828 28.6333 8.74802 31.2013 8.54535C34.4666 8.28802 37.1706 10.992 36.9133 14.256C36.7106 16.824 34.6293 18.9053 32.0613 19.1067Z" fill="white"/>
</mask>
<g mask="url(#mask0_2494_10562)">
<path d="M32.0613 19.1067C28.7973 19.364 26.0933 16.6613 26.3506 13.396C26.5533 10.828 28.6333 8.74802 31.2013 8.54535C34.4666 8.28802 37.1706 10.992 36.9133 14.256C36.7106 16.824 34.6293 18.9053 32.0613 19.1067Z" fill="#0055FF"/>
</g>
<path d="M188 107.116C188 117.977 179.195 126.783 168.333 126.783C157.472 126.783 148.667 117.977 148.667 107.116C148.667 96.2534 157.472 87.4494 168.333 87.4494C179.195 87.4494 188 96.2534 188 107.116Z" fill="#62C449"/>
<path d="M182.223 121.501C182.223 125.229 179.2 128.252 175.472 128.252C171.744 128.252 168.723 125.229 168.723 121.501C168.723 117.775 171.744 114.752 175.472 114.752C179.2 114.752 182.223 117.775 182.223 121.501Z" fill="#62C449"/>
<path d="M175.505 121.488L173.828 117.855L170 119.621V109.783H166V113.62L160.844 111.588L159.377 115.309L166 117.919V135.116H170V124.029L175.505 121.488Z" fill="#8A5029"/>
<path d="M181.333 94.6134C181.333 100.183 176.819 104.696 171.249 104.696C165.681 104.696 161.167 100.183 161.167 94.6134C161.167 89.0441 165.681 84.5294 171.249 84.5294C176.819 84.5294 181.333 89.0441 181.333 94.6134Z" fill="#62C449"/>
<path d="M31.1599 39.5854L40.7759 49.2001L34.3333 55.6427V106.252H54.2772C55.7199 106.255 56.8866 107.421 56.8892 108.863V127.308C56.8892 129.487 58.6546 131.252 60.8333 131.252H75.6666V129.919H60.8333C59.3919 129.916 58.2252 128.749 58.2226 127.308V108.863C58.2212 106.684 56.4559 104.919 54.2772 104.919H35.6666V56.1948L42.6612 49.2001L32.1039 38.6427L31.1599 39.5854Z" fill="#0055FF"/>
<path d="M80.1507 131.928H73.676C73.0653 131.928 72.5693 131.432 72.5693 130.82V128.435C72.5693 127.823 73.0653 127.328 73.676 127.328H80.1507C80.7627 127.328 81.2573 127.823 81.2573 128.435V130.82C81.2573 131.432 80.7627 131.928 80.1507 131.928Z" fill="#F8E519"/>
<path d="M179.537 12.6661C175.115 3.35272 163.981 -0.612605 154.667 3.8074C145.353 8.22873 141.387 19.3634 145.807 28.6767C149.813 37.1141 159.327 41.1634 168.006 38.5634L173.137 42.1034L173.647 35.7714C180.783 30.5954 183.453 20.9181 179.537 12.6661Z" fill="#62C449"/>
<path d="M162.181 28.9807L154.926 23.6754L157.431 20.25L161.374 23.1327L169.215 13.134L172.555 15.7527L162.181 28.9807Z" fill="white"/>
<path d="M171.249 73.5854H167.749C167.152 73.5854 166.667 73.1001 166.667 72.5014V69.0014C166.667 68.4041 167.152 67.9188 167.749 67.9188H171.249C171.848 67.9188 172.333 68.4041 172.333 69.0014V72.5014C172.333 73.1001 171.848 73.5854 171.249 73.5854Z" fill="#D6D8DA"/>
<path d="M8.74928 23.0854H5.24928C4.65194 23.0854 4.16663 22.6001 4.16663 22.0014V18.5014C4.16663 17.9041 4.65194 17.4188 5.24928 17.4188H8.74928C9.34794 17.4188 9.83329 17.9041 9.83329 18.5014V22.0014C9.83329 22.6001 9.34794 23.0854 8.74928 23.0854Z" fill="#D6D8DA"/>
<path d="M177.249 82.5854H173.749C173.152 82.5854 172.667 82.1001 172.667 81.5014V78.0014C172.667 77.4041 173.152 76.9188 173.749 76.9188H177.249C177.848 76.9188 178.333 77.4041 178.333 78.0014V81.5014C178.333 82.1001 177.848 82.5854 177.249 82.5854Z" fill="#F4F5F5"/>
<path d="M4.58265 32.9187H1.08265C0.485316 32.9187 0 32.4334 0 31.8347V28.3347C0 27.7374 0.485316 27.252 1.08265 27.252H4.58265C5.18132 27.252 5.66667 27.7374 5.66667 28.3347V31.8347C5.66667 32.4334 5.18132 32.9187 4.58265 32.9187Z" fill="#0055FF"/>
<path d="M115.994 121.015H160.274V125.242H115.994V121.015Z" fill="#21243F"/>
<path d="M113.019 126.322H119.319V137.945H113.019V126.322Z" fill="#1A1E33"/>
<path d="M135.892 133.148C135.892 127.927 138.207 123.695 141.062 123.695C141.863 123.695 142.621 124.028 143.299 124.623C143.975 124.028 144.734 123.695 145.535 123.695C148.39 123.695 150.705 127.927 150.705 133.148C150.705 138.368 148.39 142.6 145.535 142.6C145.334 142.6 145.135 142.579 144.939 142.538V142.6H140.764V142.583C138.047 142.301 135.892 138.185 135.892 133.148Z" fill="#1A1E33"/>
<path d="M118.444 126.674H144.697V137.945H118.444V126.674Z" fill="#3F4366"/>
<path d="M136.296 125.11C136.614 125.082 136.939 125.047 137.273 125.004C137.285 125.01 137.298 125.017 137.31 125.023C137.614 124.827 137.957 124.714 138.322 124.714H154.547V135.066C154.547 136.629 153.547 137.897 152.313 137.897H148.788C148.654 137.928 148.516 137.946 148.375 137.946H136.296V125.11Z" fill="#3F4366"/>
<path d="M119.395 136.99C127.375 136.991 135.355 136.992 143.335 136.993C142.614 137.588 141.692 137.946 140.687 137.946H118.444C118.444 137.417 118.87 136.989 119.395 136.99Z" fill="#30345A"/>
<path d="M98.6389 133.148C98.6389 127.927 100.953 123.695 103.808 123.695C104.609 123.695 105.368 124.028 106.045 124.623C106.722 124.028 107.481 123.695 108.282 123.695C111.137 123.695 113.451 127.927 113.451 133.148C113.451 138.368 111.137 142.6 108.282 142.6C108.08 142.6 107.881 142.579 107.686 142.538V142.6H103.51V142.583C100.794 142.301 98.6389 138.185 98.6389 133.148Z" fill="#1A1E33"/>
<path d="M72.2046 121.831H93.3436C94.8013 120.709 97.0724 119.287 100.067 118.726C103.175 118.144 105.425 118.795 108.293 119.254C109.892 119.509 111.896 119.738 114.275 119.797C114.328 119.788 114.382 119.781 114.438 119.781H114.667V137.945H113.981H96.8195H93.3436H78.4996H75.219C73.4441 137.945 72.0054 135.98 72.0054 133.557C72.0717 129.649 72.1383 125.74 72.2046 121.831Z" fill="#3F4366"/>
<path d="M112.476 98.4001H106.997C105.787 98.4001 104.806 99.3868 104.806 100.604V134.763C104.806 135.981 105.787 136.967 106.997 136.967H112.476C113.686 136.967 114.667 135.981 114.667 134.763V100.604C114.667 99.3868 113.686 98.4001 112.476 98.4001Z" fill="#3F4366"/>
<path d="M71.9 118.59C72.6128 115.714 73.3253 112.838 74.0382 109.962C75.7693 102.975 79.9345 98.4001 84.5638 98.4001C92.9986 98.4833 99.5084 98.3902 107.943 98.4733L105.318 107.631L96.9151 118.59H71.9V118.59Z" fill="#B5DBFB"/>
<path d="M81.8615 98.9333L98.3167 111.505L96.9149 118.59H88.2609L74.7348 107.638C76.2874 103.257 78.873 100.125 81.8615 98.9333Z" fill="#CFECFF"/>
<path d="M96.9165 117.125C97.3982 114.249 97.8799 111.373 98.3617 108.496C99.1393 103.854 100.644 100.278 102.483 98.4005H102.936C102.948 98.4342 102.965 98.4817 102.984 98.5358C103.102 98.448 103.228 98.4005 103.357 98.4005H108.678C109.375 98.4005 109.941 99.7619 109.941 101.441V118.256H102.094V117.125C100.368 117.125 98.6427 117.125 96.9165 117.125Z" fill="#7CB4F2"/>
<path d="M77.3037 126.338H85.6067C87.1977 126.338 88.4875 125.04 88.4875 123.439V122.473H77.3041V126.338H77.3037Z" fill="white"/>
<path d="M100.067 124.361C100.358 124.361 100.594 124.124 100.594 123.831V122.922C100.594 122.629 100.358 122.391 100.067 122.391C99.7754 122.391 99.5397 122.629 99.5397 122.922V123.831C99.5397 124.124 99.7758 124.361 100.067 124.361Z" fill="#262B47"/>
<path d="M74.7518 134.007C74.7518 129.261 76.8557 125.414 79.4513 125.414C80.1797 125.414 80.8694 125.717 81.4848 126.258C82.1001 125.717 82.7898 125.414 83.5182 125.414C86.1138 125.414 88.2177 129.261 88.2177 134.007C88.2177 138.753 86.1138 142.6 83.5182 142.6C83.3347 142.6 83.1538 142.58 82.976 142.543V142.6H79.1805V142.585C76.7107 142.327 74.7518 138.586 74.7518 134.007Z" fill="#20233E"/>
<path d="M72.2041 118.549H96.7422V137.945H75.209C73.4398 137.945 72.0054 135.58 72.0054 132.663V118.723H71.9003L72.2041 118.549Z" fill="#51597D"/>
<path d="M147.743 137.875H141.377V136.951H150.295C149.602 137.528 148.713 137.875 147.743 137.875Z" fill="#30345A"/>
<path d="M154.005 128.768C154.253 128.768 154.493 128.794 154.722 128.84V134.064C154.493 134.109 154.253 134.136 154.005 134.136C152.445 134.136 151.181 133.182 151.181 132.006V130.898C151.181 129.722 152.445 128.768 154.005 128.768Z" fill="#878CB2"/>
<path d="M101.468 117.8H114.667V119.782H101.468V117.8Z" fill="#878CB2"/>
<path d="M73.8023 136.987C74.4341 136.987 75.0369 136.718 75.4615 136.247L75.8735 135.79C76.2966 135.321 76.896 135.053 77.5254 135.051L87.2488 135.02C87.9281 135.017 88.5717 135.325 88.9986 135.857L89.2324 136.148C89.6577 136.678 90.2982 136.986 90.9749 136.986H99.3936H102.895H103.159C106.962 136.987 110.765 136.987 114.568 136.988C114.969 136.988 115.294 137.315 115.294 137.718C115.294 137.843 115.193 137.945 115.068 137.945H113.981H96.8191H93.3431H78.4991H75.2185C74.6561 137.945 74.1279 137.746 73.6683 137.399C73.4939 137.268 73.5838 136.987 73.8023 136.987Z" fill="#30345A"/>
<path d="M108.281 142.6C105.426 142.6 103.112 138.368 103.112 133.147C103.112 127.927 105.426 123.695 108.281 123.695C111.136 123.695 113.45 127.927 113.45 133.147C113.45 138.368 111.136 142.6 108.281 142.6Z" fill="#262B47"/>
<path d="M108.281 139.764C106.283 139.764 104.663 136.801 104.663 133.147C104.663 129.493 106.283 126.53 108.281 126.53C110.279 126.53 111.899 129.493 111.899 133.147C111.899 136.801 110.279 139.764 108.281 139.764Z" fill="#C8CFE8"/>
<path d="M110.409 133.047C110.409 129.945 109.24 127.35 107.665 126.633C107.866 126.57 108.07 126.53 108.281 126.53C110.279 126.53 111.899 129.492 111.899 133.147C111.899 136.801 110.279 139.764 108.281 139.764C107.979 139.764 107.687 139.689 107.406 139.561C109.11 139.025 110.409 136.317 110.409 133.047Z" fill="#7CB4F2"/>
<path d="M114.069 127.531H158.437C159.548 127.531 160.449 126.625 160.449 125.506C160.449 124.388 159.548 123.481 158.437 123.481H114.069V127.531Z" fill="#3F4366"/>
<path d="M145.535 142.6C142.68 142.6 140.366 138.368 140.366 133.147C140.366 127.927 142.68 123.695 145.535 123.695C148.39 123.695 150.704 127.927 150.704 133.147C150.704 138.368 148.39 142.6 145.535 142.6Z" fill="#262B47"/>
<path d="M145.535 139.764C143.537 139.764 141.917 136.801 141.917 133.147C141.917 129.493 143.537 126.53 145.535 126.53C147.533 126.53 149.153 129.493 149.153 133.147C149.153 136.801 147.533 139.764 145.535 139.764Z" fill="#C8CFE8"/>
<path d="M147.662 133.047C147.662 129.945 146.494 127.35 144.919 126.633C145.119 126.57 145.324 126.53 145.535 126.53C147.533 126.53 149.153 129.492 149.153 133.147C149.153 136.801 147.533 139.764 145.535 139.764C145.233 139.764 144.941 139.689 144.66 139.561C146.364 139.025 147.662 136.317 147.662 133.047Z" fill="#7CB4F2"/>
<path d="M117.345 122.248H165.749C166.495 122.248 167.1 121.639 167.1 120.888V120.79C167.1 120.039 166.495 119.43 165.749 119.43H117.345C116.599 119.43 115.994 120.039 115.994 120.79V120.888C115.994 121.639 116.599 122.248 117.345 122.248Z" fill="#878CB2"/>
<path d="M79.2146 100.587C79.5429 100.301 79.8795 100.039 80.2249 99.8059C80.2268 99.8048 80.2287 99.8033 80.2306 99.8021C80.7576 99.4477 81.3026 99.1565 81.8616 98.9335H81.862C82.7336 98.5856 83.6392 98.4005 84.5637 98.4005C91.0811 98.4649 96.4523 98.4243 102.447 98.4407C102.459 98.4281 102.472 98.4132 102.484 98.4005H102.937C102.941 98.4124 102.946 98.4273 102.951 98.4423C103.019 98.4427 103.086 98.4427 103.153 98.443C103.22 98.4166 103.288 98.4009 103.358 98.4009H106.997H108.678H112.477C113.681 98.4009 114.657 99.3783 114.666 100.588H79.2146V100.587Z" fill="#51597D"/>
<path d="M103.358 98.4001H106.997H108.678H112.476C113.68 98.4001 114.656 99.3776 114.666 100.587H100.899C101.389 99.7113 101.92 98.9753 102.483 98.4001H102.936C102.948 98.4339 102.965 98.4814 102.984 98.5354C103.102 98.4477 103.227 98.4001 103.358 98.4001Z" fill="#3F4366"/>
<path d="M87.6224 121.701H94.393C95.6904 121.701 96.7422 120.642 96.7422 119.337V118.549H87.6227V121.701H87.6224Z" fill="white"/>
<path d="M98.4314 120.788H101.971C102.678 120.788 103.251 120.211 103.251 119.499V118.363C103.251 117.651 102.678 117.074 101.971 117.074H98.4314C97.7243 117.074 97.1512 117.651 97.1512 118.363V119.499C97.1512 120.211 97.7243 120.788 98.4314 120.788Z" fill="#21243F"/>
<path d="M97.4274 120.788H100.967C101.674 120.788 102.247 120.211 102.247 119.499V118.363C102.247 117.651 101.674 117.074 100.967 117.074H97.4274C96.7203 117.074 96.1472 117.651 96.1472 118.363V119.499C96.1472 120.211 96.7203 120.788 97.4274 120.788Z" fill="#3F4366"/>
<path d="M72.005 118.549H76.6626V121.701H72.005V118.549Z" fill="white"/>
<path d="M76.7049 118.549H88.905V127.469C88.905 129.482 87.2835 131.114 85.2828 131.114H80.3267C78.3263 131.114 76.7045 129.483 76.7045 127.469L76.7049 118.549Z" fill="#21243F"/>
<path d="M86.2126 121.946H79.397" stroke="white" stroke-width="2.24638" stroke-miterlimit="10" stroke-linecap="round"/>
<path d="M79.397 123.452H86.2126" stroke="white" stroke-width="2.24638" stroke-miterlimit="10" stroke-linecap="round"/>
<path d="M86.2126 120.44H79.397" stroke="white" stroke-width="2.24638" stroke-miterlimit="10" stroke-linecap="round"/>
<path d="M86.2126 126.524H79.397" stroke="white" stroke-width="2.24638" stroke-miterlimit="10" stroke-linecap="round"/>
<path d="M79.397 128.03H86.2126" stroke="white" stroke-width="2.24638" stroke-miterlimit="10" stroke-linecap="round"/>
<path d="M86.2126 125.017H79.397" stroke="white" stroke-width="2.24638" stroke-miterlimit="10" stroke-linecap="round"/>
</svg>
