<svg width="180" height="235" viewBox="0 0 180 235" fill="none" xmlns="http://www.w3.org/2000/svg">
<path d="M123.005 212.252H45.676C37.5213 212.252 30.912 205.643 30.912 197.489V34.6573C30.912 26.504 37.5213 19.8933 45.676 19.8933H123.005C131.159 19.8933 137.768 26.504 137.768 34.6573V197.489C137.768 205.643 131.159 212.252 123.005 212.252Z" fill="#DBDBDB"/>
<path d="M123.005 212.252V211.752H45.676C41.7347 211.752 38.172 210.156 35.5893 207.575C33.008 204.992 31.4133 201.429 31.412 197.489V34.6573C31.4133 30.7173 33.008 27.1547 35.5893 24.572C38.172 21.9893 41.7347 20.3946 45.676 20.3933H123.005C126.945 20.3946 130.508 21.9893 133.091 24.572C135.672 27.1547 137.268 30.7173 137.268 34.6573V197.489C137.268 201.429 135.672 204.992 133.091 207.575C130.508 210.156 126.945 211.752 123.005 211.752V212.252V212.752C131.435 212.752 138.268 205.919 138.268 197.489V34.6573C138.268 26.228 131.435 19.3946 123.005 19.3933H45.676C37.2453 19.3946 30.4133 26.228 30.412 34.6573V197.489C30.4133 205.919 37.2453 212.752 45.676 212.752H123.005V212.252Z" fill="#CDCDCD"/>
<path d="M129.672 212.252H52.3427C44.1893 212.252 37.5787 205.643 37.5787 197.489V34.6573C37.5787 26.504 44.1893 19.8933 52.3427 19.8933H129.672C137.825 19.8933 144.435 26.504 144.435 34.6573V197.489C144.435 205.643 137.825 212.252 129.672 212.252Z" fill="#E2E2E2"/>
<path d="M37.7693 190.189H144.627V41.956H37.7693V190.189Z" fill="white"/>
<path d="M144.435 190.189V189.689H38.0787V42.456H143.935V190.189H144.435H144.935V41.956C144.935 41.8253 144.881 41.696 144.788 41.6027C144.695 41.5094 144.567 41.456 144.435 41.456H37.5787C37.448 41.456 37.3187 41.5094 37.2254 41.6027C37.132 41.696 37.0787 41.824 37.0787 41.956V190.189C37.0787 190.321 37.132 190.449 37.2254 190.543C37.3187 190.636 37.448 190.689 37.5787 190.689H144.435C144.567 190.689 144.695 190.636 144.788 190.543C144.881 190.449 144.935 190.321 144.935 190.189H144.435Z" fill="#CDCDCD"/>
<path d="M129.672 212.252V211.752H52.3427C48.4013 211.752 44.8387 210.156 42.256 207.575C39.6747 204.992 38.08 201.429 38.0787 197.489V34.6573C38.08 30.7173 39.6747 27.1547 42.256 24.572C44.8387 21.9893 48.4013 20.3946 52.3427 20.3933H129.672C133.612 20.3946 137.175 21.9893 139.757 24.572C142.339 27.1547 143.935 30.7173 143.935 34.6573V197.489C143.935 201.429 142.339 204.992 139.757 207.575C137.175 210.156 133.612 211.752 129.672 211.752V212.252V212.752C138.101 212.752 144.935 205.919 144.935 197.489V34.6573C144.935 26.228 138.101 19.3946 129.672 19.3933H52.3427C43.912 19.3946 37.08 26.228 37.0787 34.6573V197.489C37.08 205.919 43.912 212.752 52.3427 212.752H129.672V212.252Z" fill="#CDCDCD"/>
<path d="M98.8961 201.265C98.8961 205.621 95.364 209.153 91.008 209.153C86.6507 209.153 83.1187 205.621 83.1187 201.265C83.1187 196.908 86.6507 193.376 91.008 193.376C95.364 193.376 98.8961 196.908 98.8961 201.265Z" fill="white"/>
<path d="M98.8961 201.265H98.3961C98.3947 203.307 97.5693 205.151 96.232 206.489C94.8933 207.827 93.0494 208.653 91.008 208.653C88.9654 208.653 87.1214 207.827 85.7827 206.489C84.444 205.151 83.6187 203.307 83.6187 201.265C83.6187 199.223 84.444 197.379 85.7827 196.04C87.1214 194.703 88.9654 193.876 91.008 193.876C93.0494 193.876 94.8933 194.703 96.232 196.04C97.5693 197.379 98.3947 199.223 98.3961 201.265H98.8961H99.3961C99.3947 196.632 95.6414 192.876 91.008 192.876C86.3747 192.876 82.6187 196.632 82.6187 201.265C82.6187 205.899 86.3747 209.652 91.008 209.653C95.64 209.653 99.3947 205.899 99.3961 201.265H98.8961Z" fill="#CDCDCD"/>
<mask id="mask0_2494_10680" style="mask-type:luminance" maskUnits="userSpaceOnUse" x="60" y="153" width="62" height="18">
<path d="M118.424 170.459H63.5908C61.6159 170.459 60.0147 168.857 60.0147 166.883V157.048C60.0147 155.073 61.6159 153.472 63.5908 153.472H118.424C120.399 153.472 122 155.073 122 157.048V166.883C122 168.857 120.399 170.459 118.424 170.459Z" fill="white"/>
</mask>
<g mask="url(#mask0_2494_10680)">
<path d="M63.5909 169.959H118.424C120.123 169.959 121.5 168.581 121.5 166.882V157.048C121.5 155.35 120.123 153.972 118.424 153.972H63.5909C61.8921 153.972 60.5147 155.35 60.5147 157.048V166.882C60.5147 168.581 61.8921 169.959 63.5909 169.959Z" fill="#0055FF" stroke="#003DB8"/>
</g>
<path d="M68.0895 164.925L65.9555 166.047C65.6998 166.182 65.4012 165.964 65.4503 165.679L65.858 163.304C65.8768 163.191 65.8392 163.076 65.757 162.995L64.0315 161.313C63.8241 161.112 63.9386 160.76 64.2246 160.718L66.6099 160.372C66.7234 160.355 66.8218 160.284 66.8718 160.181L67.9393 158.02C68.0671 157.761 68.4364 157.761 68.5642 158.02L69.6308 160.181C69.6818 160.284 69.7792 160.355 69.8927 160.372L72.2789 160.718C72.5641 160.76 72.6785 161.112 72.472 161.313L70.7456 162.995C70.6634 163.076 70.6258 163.191 70.6455 163.304L71.0532 165.679C71.1015 165.964 70.8029 166.182 70.5472 166.047L68.414 164.925C68.3121 164.872 68.1905 164.872 68.0895 164.925Z" fill="#FFD000"/>
<path d="M79.2434 164.925L77.1102 166.047C76.8545 166.182 76.5559 165.964 76.6042 165.679L77.0119 163.304C77.0315 163.191 76.994 163.076 76.9117 162.995L75.1854 161.313C74.9789 161.112 75.0933 160.76 75.3785 160.718L77.7637 160.372C77.8773 160.355 77.9756 160.284 78.0266 160.181L79.0931 158.02C79.221 157.761 79.5902 157.761 79.7181 158.02L80.7856 160.181C80.8356 160.284 80.934 160.355 81.0475 160.372L83.4327 160.718C83.7188 160.76 83.8333 161.112 83.6259 161.313L81.8995 162.995C81.8181 163.076 81.7806 163.191 81.7994 163.304L82.207 165.679C82.2562 165.964 81.9567 166.182 81.701 166.047L79.5679 164.925C79.4669 164.872 79.3453 164.872 79.2434 164.925Z" fill="#FFD000"/>
<path d="M90.3981 164.925L88.265 166.047C88.0093 166.182 87.7098 165.964 87.759 165.679L88.1666 163.304C88.1854 163.191 88.1479 163.076 88.0665 162.995L86.3402 161.313C86.1336 161.112 86.2472 160.76 86.5333 160.718L88.9185 160.372C89.0321 160.355 89.1304 160.284 89.1814 160.181L90.2479 158.02C90.3758 157.761 90.745 157.761 90.8728 158.02L91.9394 160.181C91.9904 160.284 92.0887 160.355 92.2023 160.372L94.5875 160.718C94.8727 160.76 94.9871 161.112 94.7806 161.313L93.0543 162.995C92.972 163.076 92.9345 163.191 92.9541 163.304L93.3618 165.679C93.4101 165.964 93.1115 166.182 92.8558 166.047L90.7227 164.925C90.6207 164.872 90.4992 164.872 90.3981 164.925Z" fill="#FFD000"/>
<path d="M101.552 164.925L99.4187 166.047C99.163 166.182 98.8644 165.964 98.9127 165.679L99.3204 163.304C99.34 163.191 99.3025 163.076 99.2202 162.995L97.4948 161.313C97.2874 161.112 97.4018 160.76 97.6879 160.718L100.073 160.372C100.187 160.355 100.284 160.284 100.335 160.181L101.402 158.02C101.53 157.761 101.899 157.761 102.027 158.02L103.094 160.181C103.144 160.284 103.242 160.355 103.356 160.372L105.741 160.718C106.027 160.76 106.142 161.112 105.934 161.313L104.209 162.995C104.127 163.076 104.089 163.191 104.109 163.304L104.516 165.679C104.565 165.964 104.266 166.182 104.01 166.047L101.876 164.925C101.775 164.872 101.654 164.872 101.552 164.925Z" fill="#FFD000"/>
<path d="M112.707 164.925L110.573 166.047C110.318 166.182 110.018 165.964 110.067 165.679L110.475 163.304C110.494 163.191 110.457 163.076 110.375 162.995L108.649 161.313C108.442 161.112 108.556 160.76 108.842 160.718L111.227 160.372C111.341 160.355 111.439 160.284 111.49 160.181L112.556 158.02C112.684 157.761 113.053 157.761 113.181 158.02L114.248 160.181C114.299 160.284 114.397 160.355 114.511 160.372L116.896 160.718C117.182 160.76 117.296 161.112 117.089 161.313L115.363 162.995C115.28 163.076 115.243 163.191 115.263 163.304L115.67 165.679C115.719 165.964 115.42 166.182 115.164 166.047L113.031 164.925C112.929 164.872 112.809 164.872 112.707 164.925Z" fill="white"/>
<path d="M132.093 104.539C132.093 127.124 113.784 145.435 91.1974 145.435C68.612 145.435 50.3013 127.124 50.3013 104.539C50.3013 81.952 68.612 63.6427 91.1974 63.6427C113.784 63.6427 132.093 81.952 132.093 104.539Z" fill="#B8D0FF"/>
<path d="M116.033 104.539C116.033 119.083 104.243 130.875 89.6973 130.875C75.1533 130.875 63.3613 119.083 63.3613 104.539C63.3613 89.9934 75.1533 78.2028 89.6973 78.2028C104.243 78.2028 116.033 89.9934 116.033 104.539Z" fill="#003DB8"/>
<path d="M116.033 104.539H115.533C115.533 111.675 112.643 118.131 107.967 122.807C103.289 127.483 96.8347 130.375 89.6973 130.375C82.5627 130.375 76.1067 127.483 71.4294 122.807C66.7534 118.131 63.8627 111.675 63.8613 104.539C63.8627 97.4028 66.7534 90.9468 71.4294 86.2694C76.1067 81.5934 82.5613 78.7028 89.6973 78.7028C96.8333 78.7028 103.289 81.5934 107.967 86.2694C112.643 90.9468 115.533 97.4028 115.533 104.539H116.033H116.533C116.533 89.7174 104.52 77.7028 89.6973 77.7028C74.8773 77.7028 62.8627 89.7174 62.8613 104.539C62.8627 119.36 74.8773 131.373 89.6973 131.375C104.52 131.375 116.533 119.36 116.533 104.539H116.033Z" fill="#244B98"/>
<path d="M119.033 104.539C119.033 119.083 107.241 130.875 92.6973 130.875C78.152 130.875 66.3613 119.083 66.3613 104.539C66.3613 89.9934 78.152 78.2028 92.6973 78.2028C107.241 78.2028 119.033 89.9934 119.033 104.539Z" fill="#0055FF"/>
<path d="M119.033 104.539H118.533C118.533 111.675 115.643 118.131 110.967 122.807C106.289 127.483 99.8333 130.375 92.6973 130.375C85.5613 130.375 79.1053 127.483 74.428 122.807C69.752 118.131 66.8613 111.675 66.8613 104.539C66.8627 97.4028 69.752 90.9468 74.428 86.2694C79.1053 81.5934 85.5613 78.7028 92.6973 78.7028C99.8333 78.7028 106.289 81.5934 110.967 86.2694C115.643 90.9468 118.533 97.4028 118.533 104.539H119.033H119.533C119.533 89.7174 107.519 77.7028 92.6973 77.7028C77.876 77.7028 65.8627 89.7174 65.8613 104.539C65.8627 119.36 77.876 131.373 92.6973 131.375C107.519 131.373 119.533 119.36 119.533 104.539H119.033Z" fill="#244B98"/>
<path d="M91.8033 112.834L85.2433 116.282C84.457 116.697 83.5387 116.029 83.6872 115.152L84.9409 107.847C85.0014 107.5 84.8859 107.146 84.633 106.898L79.3239 101.724C78.6888 101.105 79.0408 100.025 79.9178 99.8957L87.2531 98.8316C87.6023 98.7794 87.9047 98.5595 88.0614 98.2433L91.3414 91.598C91.7346 90.8007 92.8701 90.8007 93.2632 91.598L96.546 98.2433C96.7 98.5595 97.0024 98.7794 97.3516 98.8316L104.687 99.8957C105.567 100.025 105.919 101.105 105.281 101.724L99.9717 106.898C99.7215 107.146 99.606 107.5 99.6638 107.847L100.917 115.152C101.069 116.029 100.148 116.697 99.3614 116.282L92.8013 112.834C92.4907 112.669 92.1168 112.669 91.8033 112.834Z" fill="#FFD000"/>
<path d="M68.0294 140.156H117.365C117.641 140.156 117.865 139.932 117.865 139.656C117.865 139.38 117.641 139.156 117.365 139.156H68.0294C67.7534 139.156 67.5294 139.38 67.5294 139.656C67.5294 139.932 67.7534 140.156 68.0294 140.156Z" fill="#244B98"/>
<path d="M91.1973 145.435C87.5747 145.435 84.0627 144.964 80.7187 144.079C82.1267 142.563 83.7413 141.24 85.5173 140.156H109.081C109.425 140.367 109.765 140.587 110.097 140.815C104.444 143.765 98.016 145.435 91.1973 145.435ZM107.261 139.156H87.336C90.3427 137.679 93.724 136.851 97.2986 136.851C100.875 136.851 104.256 137.679 107.261 139.156Z" fill="#B8D0FF"/>
<path d="M109.081 140.156H85.5173C86.1067 139.796 86.7134 139.461 87.336 139.156H107.261C107.885 139.461 108.492 139.796 109.081 140.156Z" fill="#244B98"/>
<path d="M100.169 208.493C109.477 217.579 119.409 230.952 130.155 233.583C141.917 236.461 171.124 230.117 163.397 199.28C160.075 186.027 156.544 174.076 144.759 175.623C137.429 176.584 129.357 178.653 122.383 183.167C122.383 183.167 109.445 161.937 107.833 158.964C104.381 152.592 93.8174 156.6 96.856 164.333C100.755 174.259 115.879 205.817 115.879 205.817C115.879 205.817 108.807 199.681 105.008 196.035C100.832 192.027 89.9747 198.543 100.169 208.493Z" fill="white"/>
<path d="M100.169 208.493L99.82 208.851C104.452 213.371 109.264 218.988 114.276 223.819C119.292 228.647 124.507 232.709 130.036 234.068C131.729 234.483 133.752 234.708 135.965 234.708C141.864 234.705 149.125 233.113 154.964 229.087C160.804 225.068 165.189 218.553 165.18 208.911C165.18 205.959 164.773 202.716 163.881 199.159C162.315 192.916 160.707 186.937 158.165 182.46C156.893 180.221 155.381 178.355 153.508 177.041C151.635 175.728 149.399 174.985 146.756 174.988C146.095 174.988 145.408 175.033 144.693 175.127C137.32 176.095 129.177 178.176 122.111 182.747L122.383 183.167L122.809 182.905C122.808 182.903 122.001 181.579 120.763 179.543C118.907 176.488 116.083 171.836 113.573 167.671C111.065 163.508 108.863 159.816 108.272 158.725C106.999 156.361 104.757 155.295 102.569 155.303C100.881 155.304 99.208 155.913 97.9387 157.013C96.6694 158.111 95.8107 159.723 95.8134 161.656C95.8134 162.552 95.9961 163.512 96.3907 164.517C100.308 174.485 115.424 206.025 115.428 206.033L115.879 205.817L116.207 205.44C116.205 205.439 115.765 205.057 115.044 204.425C112.88 202.531 108.189 198.396 105.353 195.673C104.393 194.752 103.125 194.335 101.844 194.335C100.297 194.337 98.712 194.931 97.492 196.009C96.272 197.087 95.4267 198.676 95.4294 200.605C95.4307 202.973 96.6787 205.785 99.82 208.851L100.169 208.493L100.519 208.135C97.4947 205.183 96.4267 202.607 96.4294 200.605C96.4307 198.971 97.1254 197.676 98.1547 196.759C99.184 195.844 100.556 195.333 101.844 195.335C102.915 195.336 103.913 195.677 104.661 196.395C108.479 200.059 115.548 206.192 115.551 206.195C115.729 206.351 115.993 206.359 116.181 206.215C116.371 206.071 116.432 205.815 116.329 205.601C116.327 205.596 115.385 203.629 113.907 200.516C109.473 191.183 100.231 171.557 97.3214 164.151C96.968 163.249 96.8134 162.416 96.8134 161.656C96.816 160.02 97.5187 158.705 98.5947 157.768C99.6694 156.833 101.124 156.301 102.569 156.303C104.449 156.309 106.285 157.169 107.393 159.203C108.216 160.719 111.845 166.755 115.284 172.439C118.721 178.119 121.956 183.425 121.956 183.427C122.027 183.541 122.139 183.623 122.271 183.653C122.403 183.684 122.54 183.66 122.655 183.585C129.539 179.131 137.539 177.073 144.824 176.119C145.497 176.031 146.141 175.988 146.756 175.988C149.215 175.989 151.219 176.663 152.935 177.861C155.505 179.657 157.428 182.688 158.985 186.461C160.545 190.233 161.741 194.729 162.912 199.403C163.785 202.889 164.18 206.051 164.18 208.911C164.171 218.244 160.009 224.379 154.396 228.264C148.783 232.143 141.688 233.711 135.965 233.708C133.821 233.708 131.871 233.488 130.273 233.097C125.057 231.827 119.935 227.887 114.971 223.099C110.004 218.313 105.195 212.701 100.519 208.135L100.169 208.493Z" fill="#CDCDCD"/>
<path d="M166.405 41.956H165.905C165.901 43.8414 164.377 45.3654 162.492 45.3694C160.608 45.3654 159.084 43.8414 159.08 41.956C159.084 40.072 160.608 38.5481 162.492 38.5441C164.377 38.5481 165.901 40.072 165.905 41.956H166.405H166.904C166.904 39.52 164.929 37.5441 162.492 37.5441C160.055 37.5441 158.081 39.52 158.08 41.956C158.081 44.3934 160.055 46.3694 162.492 46.3694C164.929 46.3694 166.904 44.3934 166.904 41.956H166.405Z" fill="#244B98"/>
<path d="M168.844 175.001H168.344C168.34 176.885 166.816 178.409 164.931 178.413C163.047 178.409 161.523 176.885 161.519 175.001C161.523 173.116 163.047 171.592 164.931 171.589C166.816 171.592 168.34 173.117 168.344 175.001H168.844H169.344C169.343 172.564 167.368 170.589 164.931 170.589C162.495 170.589 160.52 172.564 160.519 175.001C160.52 177.439 162.495 179.413 164.931 179.413C167.368 179.413 169.343 177.439 169.344 175.001H168.844Z" fill="#244B98"/>
<path d="M101.075 2.67468H100.575C100.572 3.52268 99.888 4.20802 99.04 4.20935C98.192 4.20802 97.5067 3.52135 97.5054 2.67468C97.5067 1.82668 98.192 1.14135 99.04 1.14001C99.888 1.14135 100.572 1.82668 100.575 2.67468H101.075H101.573C101.573 1.27468 100.44 0.140014 99.04 0.140014C97.64 0.140014 96.5054 1.27468 96.5054 2.67468C96.5054 4.07468 97.64 5.20802 99.04 5.20935C100.44 5.20935 101.573 4.07468 101.573 2.67468H101.075Z" fill="#244B98"/>
<path d="M15.084 184.068H14.584C14.5827 184.916 13.8987 185.6 13.0507 185.603C12.2027 185.6 11.5174 184.916 11.5161 184.068C11.5174 183.221 12.2027 182.535 13.0507 182.533C13.8974 182.535 14.5827 183.22 14.584 184.068H15.084H15.584C15.584 182.669 14.4507 181.533 13.0507 181.533C11.6507 181.533 10.5161 182.668 10.5161 184.068C10.5161 185.469 11.6507 186.601 13.0507 186.603C14.4507 186.603 15.584 185.468 15.584 184.068H15.084Z" fill="#244B98"/>
<path d="M179.239 129.101H178.739C178.736 129.948 178.051 130.633 177.203 130.636C176.356 130.633 175.671 129.948 175.669 129.101C175.671 128.253 176.356 127.568 177.203 127.567C178.051 127.568 178.736 128.253 178.739 129.101H179.239H179.737C179.737 127.7 178.603 126.567 177.203 126.567C175.803 126.567 174.669 127.701 174.669 129.101C174.669 130.5 175.803 131.635 177.203 131.636C178.603 131.635 179.737 130.501 179.737 129.101H179.239Z" fill="#244B98"/>
<path d="M13.0507 43.264H12.5507C12.5493 44.1107 11.8627 44.796 11.016 44.7987C10.168 44.796 9.48266 44.1107 9.48132 43.264C9.48266 42.416 10.168 41.7307 11.016 41.7294C11.8627 41.7307 12.5493 42.416 12.5507 43.264H13.0507H13.5507C13.5507 41.864 12.4147 40.7294 11.016 40.7294C9.61469 40.7294 8.48132 41.864 8.48132 43.264C8.48132 44.664 9.61469 45.7974 11.016 45.7987C12.4147 45.7974 13.5507 44.664 13.5507 43.264H13.0507Z" fill="#244B98"/>
<path d="M14.928 135.295H14.428C14.4254 137.179 12.9 138.703 11.016 138.707C9.13205 138.703 7.60667 137.179 7.604 135.295C7.60667 133.409 9.13205 131.885 11.016 131.883C12.9 131.885 14.4254 133.409 14.428 135.295H14.928H15.428C15.428 132.857 13.4534 130.883 11.016 130.883C8.57871 130.883 6.604 132.857 6.604 135.295C6.604 137.731 8.57871 139.707 11.016 139.707C13.4534 139.707 15.428 137.732 15.428 135.295H14.928Z" fill="#244B98"/>
<path d="M50.312 0.500041V8.91736C50.312 9.19336 50.536 9.41736 50.812 9.41736C51.088 9.41736 51.312 9.19336 51.312 8.91736V0.500041C51.312 0.224041 51.088 4.12514e-05 50.812 4.12514e-05C50.536 4.12514e-05 50.312 0.224041 50.312 0.500041Z" fill="#244B98"/>
<path d="M55.02 4.20935H46.604C46.328 4.20935 46.104 4.43335 46.104 4.70935C46.104 4.98535 46.328 5.20935 46.604 5.20935H55.02C55.2974 5.20935 55.52 4.98535 55.52 4.70935C55.52 4.43335 55.2974 4.20935 55.02 4.20935Z" fill="#244B98"/>
<path d="M82.7627 218.571V225.563C82.7627 225.839 82.9867 226.063 83.2627 226.063C83.5387 226.063 83.7627 225.839 83.7627 225.563V218.571C83.7627 218.295 83.5387 218.071 83.2627 218.071C82.9867 218.071 82.7627 218.295 82.7627 218.571Z" fill="#244B98"/>
<path d="M86.7587 221.567H79.7667C79.4907 221.567 79.2667 221.791 79.2667 222.067C79.2667 222.343 79.4907 222.567 79.7667 222.567H86.7587C87.0347 222.567 87.2587 222.343 87.2587 222.067C87.2587 221.791 87.0347 221.567 86.7587 221.567Z" fill="#244B98"/>
<path d="M4.20801 85.0827V93.5C4.20801 93.776 4.43201 94 4.70801 94C4.98401 94 5.20801 93.776 5.20801 93.5V85.0827C5.20801 84.8053 4.98401 84.5827 4.70801 84.5827C4.43201 84.5827 4.20801 84.8053 4.20801 85.0827Z" fill="#244B98"/>
<path d="M8.91602 88.7906H0.5C0.224 88.7906 0 89.0146 0 89.2906C0 89.5666 0.224 89.7906 0.5 89.7906H8.91602C9.19202 89.7906 9.41602 89.5666 9.41602 89.2906C9.41602 89.0146 9.19202 88.7906 8.91602 88.7906Z" fill="#244B98"/>
<path d="M166.497 83.5V91.916C166.497 92.192 166.721 92.416 166.997 92.416C167.273 92.416 167.497 92.192 167.497 91.916V83.5C167.497 83.2227 167.273 83 166.997 83C166.721 83 166.497 83.2227 166.497 83.5Z" fill="#244B98"/>
<path d="M171.205 87.208H162.789C162.512 87.208 162.289 87.432 162.289 87.708C162.289 87.984 162.512 88.208 162.789 88.208H171.205C171.481 88.208 171.705 87.984 171.705 87.708C171.705 87.432 171.481 87.208 171.205 87.208Z" fill="#244B98"/>
<path d="M145.147 6.05201V11.504C145.147 11.7814 145.371 12.004 145.647 12.004C145.923 12.004 146.147 11.7814 146.147 11.504V6.05201C146.147 5.77468 145.923 5.55201 145.647 5.55201C145.371 5.55201 145.147 5.77468 145.147 6.05201Z" fill="#244B98"/>
<path d="M148.373 8.27734H142.92C142.644 8.27734 142.42 8.50134 142.42 8.77734C142.42 9.05468 142.644 9.27734 142.92 9.27734H148.373C148.649 9.27734 148.873 9.05468 148.873 8.77734C148.873 8.50134 148.649 8.27734 148.373 8.27734Z" fill="#244B98"/>
<path d="M59.6854 128.347H67.04C67.316 128.347 67.54 128.123 67.54 127.847C67.54 127.571 67.316 127.347 67.04 127.347H59.6854C59.4081 127.347 59.1854 127.571 59.1854 127.847C59.1854 128.123 59.4081 128.347 59.6854 128.347ZM79.4414 71.3027H86.7961C87.0734 71.3027 87.2961 71.0787 87.2961 70.8027C87.2961 70.5267 87.0734 70.3027 86.7961 70.3027H79.4414C79.1654 70.3027 78.9414 70.5267 78.9414 70.8027C78.9414 71.0787 79.1654 71.3027 79.4414 71.3027ZM121.156 111.707H124.685C124.963 111.707 125.185 111.483 125.185 111.207C125.185 110.931 124.963 110.707 124.685 110.707H121.156C120.88 110.707 120.656 110.931 120.656 111.207C120.656 111.483 120.88 111.707 121.156 111.707ZM48.9067 96.6947H57.568C57.844 96.6947 58.068 96.4707 58.068 96.1947C58.068 95.9187 57.844 95.6947 57.568 95.6947H48.9067C48.6293 95.6947 48.4067 95.9187 48.4067 96.1947C48.4067 96.4707 48.6293 96.6947 48.9067 96.6947ZM115.676 85.5827H132.093C132.369 85.5827 132.593 85.3587 132.593 85.0827C132.593 84.8053 132.369 84.5827 132.093 84.5827H115.676C115.4 84.5827 115.176 84.8053 115.176 85.0827C115.176 85.3587 115.4 85.5827 115.676 85.5827Z" fill="#244B98"/>
</svg>
