<svg width="70" height="70" viewBox="0 0 70 70" fill="none" xmlns="http://www.w3.org/2000/svg">
<path d="M43.9237 41.6297H23.7661C22.5809 41.6297 21.62 40.6483 21.62 39.4379V22.1918C21.62 20.9814 22.5809 20 23.7661 20H43.9237C45.1088 20 46.0698 20.9814 46.0698 22.1918V39.4379C46.0698 40.6483 45.1091 41.6297 43.9237 41.6297Z" fill="#878CB2"/>
<path d="M33.498 20.2712L46.0057 21.5883L31.2737 28.9626L33.498 20.2712Z" fill="#51597D"/>
<path d="M45.1845 44.6613C45.1845 41.7127 43.8968 39.3226 42.3082 39.3226C41.8624 39.3226 41.4401 39.5108 41.0636 39.8469C40.6871 39.5108 40.2648 39.3226 39.8191 39.3226C38.2305 39.3226 36.9427 41.7127 36.9427 44.6613C36.9427 47.6099 38.2305 50.0001 39.8191 50.0001C39.9313 50.0001 40.0422 49.9879 40.151 49.9648V50.0001H42.4744V49.9907C43.9852 49.831 45.1845 47.5065 45.1845 44.6613Z" fill="#1A1E33"/>
<path d="M24.4545 44.6613C24.4545 41.7127 23.1667 39.3226 21.5781 39.3226C21.1323 39.3226 20.7101 39.5108 20.3335 39.8469C19.957 39.5108 19.5348 39.3226 19.089 39.3226C17.5004 39.3226 16.2126 41.7127 16.2126 44.6613C16.2126 47.6099 17.5004 50.0001 19.089 50.0001C19.2012 50.0001 19.3121 49.9879 19.421 49.9648V50.0001H21.7439V49.9907C23.2552 49.831 24.4545 47.5065 24.4545 44.6613Z" fill="#1A1E33"/>
<path d="M32.6683 41.6297H10.1897C8.94447 41.6297 7.93491 40.5987 7.93491 39.327V22.3028C7.93491 21.0311 8.94447 20 10.1897 20H32.6686C33.9138 20 34.9233 21.0311 34.9233 22.3028V39.327C34.9233 40.5987 33.9138 41.6297 32.6683 41.6297Z" fill="#3F4366"/>
<path d="M59.3528 45.1466C59.3528 42.4661 58.1819 40.2933 56.7378 40.2933C56.3326 40.2933 55.9486 40.4646 55.6063 40.77C55.2638 40.4646 54.8801 40.2933 54.4749 40.2933C53.0308 40.2933 51.8599 42.4661 51.8599 45.1466C51.8599 47.8271 53.0308 49.9999 54.4749 49.9999C54.5771 49.9999 54.6776 49.9889 54.7766 49.9679V49.9999H56.8887V49.9912C58.2625 49.8462 59.3528 47.733 59.3528 45.1466Z" fill="#20233E"/>
<path d="M48.6811 41.2594V32.6666C48.6811 28.821 45.6286 25.7036 41.8632 25.7036H34.9001V38.2222C34.9001 39.8996 33.5687 41.2594 31.9263 41.2594H14.2767V45.1823C14.2767 46.7564 15.5261 48.0327 17.0677 48.0327H34.9001H48.6811H58.5931C59.8636 48.0327 60.8938 46.9808 60.8938 45.683V41.2594H48.6811Z" fill="#3F4366"/>
<path d="M62.7966 37.1109H46.3601V48.0325H60.7837C61.9689 48.0325 62.9296 46.7008 62.9296 45.0583V37.2084H63L62.7966 37.1109Z" fill="#51597D"/>
<path d="M56.5143 34.8889C55.9977 33.5803 55.4809 32.2718 54.9644 30.9635C53.7096 27.7852 50.6903 25.7036 47.3347 25.7036H42.008H38.3814H35.4318V29.9999H38.3814V34.8889H56.5143Z" fill="#B5DBFB"/>
<path d="M49.2931 25.9458L38.3813 31.1658V34.8886H44.6543L54.4587 29.906C53.3336 27.913 51.4592 26.4882 49.2931 25.9458Z" fill="#CFECFF"/>
<path d="M41.3556 34.2222C40.839 32.9137 40.3223 31.6051 39.8057 30.2966C38.972 28.1846 37.3585 26.5581 35.3855 25.7036H34.9003V34.2222H41.3556Z" fill="#7CB4F2"/>
<path d="M53.8984 39.8072H48.3542C47.2918 39.8072 46.4307 38.9276 46.4307 37.8428V37.188H53.8984V39.8072Z" fill="white"/>
<path d="M63 36.892H57.975V39.5111H63V36.892Z" fill="white"/>
<path d="M60.2592 36.8919H52.1125V42.9375C52.1125 44.3017 53.1953 45.4075 54.531 45.4075H57.8406C59.1763 45.4075 60.2592 44.3017 60.2592 42.9375V36.8919Z" fill="#21243F"/>
<path d="M41.9461 38.5316C41.7517 38.5316 41.594 38.3706 41.594 38.1722V37.5559C41.594 37.3574 41.7517 37.1965 41.9459 37.1965C42.1403 37.1965 42.2978 37.3576 42.2978 37.5559V38.1722C42.2982 38.3706 42.1405 38.5316 41.9461 38.5316Z" fill="#262B47"/>
<path d="M14.2806 43.8619C13.239 43.8619 12.3947 42.9997 12.3947 41.9359V40.9344C12.3947 39.8706 13.239 39.0084 14.2806 39.0084C15.3222 39.0084 16.1665 39.8706 16.1665 40.9344V41.9359C16.1665 42.9994 15.322 43.8619 14.2806 43.8619Z" fill="#51597D"/>
<path d="M32.5716 42.3954H10.0927C8.84752 42.3954 7.83795 41.3643 7.83795 40.0926V23.0684C7.83795 21.7967 8.84752 20.7656 10.0927 20.7656H32.5716C33.8168 20.7656 34.8264 21.7967 34.8264 23.0684V40.0926C34.8264 41.3643 33.8168 42.3954 32.5716 42.3954Z" fill="#21243F"/>
<path d="M39.8186 50.0001C41.4071 50.0001 42.695 47.6098 42.695 44.6613C42.695 41.7128 41.4071 39.3226 39.8186 39.3226C38.23 39.3226 36.9422 41.7128 36.9422 44.6613C36.9422 47.6098 38.23 50.0001 39.8186 50.0001Z" fill="#262B47"/>
<path d="M39.8186 48.3985C40.9306 48.3985 41.8321 46.7253 41.8321 44.6614C41.8321 42.5974 40.9306 40.9242 39.8186 40.9242C38.7065 40.9242 37.805 42.5974 37.805 44.6614C37.805 46.7253 38.7065 48.3985 39.8186 48.3985Z" fill="#C8CFE8"/>
<path d="M38.635 44.6049C38.635 42.8532 39.2853 41.387 40.1618 40.9823C40.0502 40.9466 39.936 40.9242 39.8188 40.9242C38.7069 40.9242 37.8053 42.5974 37.8053 44.6614C37.8053 46.7253 38.7069 48.3985 39.8188 48.3985C39.987 48.3985 40.1494 48.356 40.3056 48.2839C39.3572 47.9812 38.635 46.4515 38.635 44.6049Z" fill="#7CB4F2"/>
<path d="M19.0885 50.0001C20.6771 50.0001 21.9649 47.6098 21.9649 44.6613C21.9649 41.7128 20.6771 39.3226 19.0885 39.3226C17.4999 39.3226 16.2121 41.7128 16.2121 44.6613C16.2121 47.6098 17.4999 50.0001 19.0885 50.0001Z" fill="#262B47"/>
<path d="M19.0882 48.3987C20.2002 48.3987 21.1017 46.7256 21.1017 44.6616C21.1017 42.5976 20.2002 40.9245 19.0882 40.9245C17.9762 40.9245 17.0747 42.5976 17.0747 44.6616C17.0747 46.7256 17.9762 48.3987 19.0882 48.3987Z" fill="#C8CFE8"/>
<path d="M17.9048 44.6049C17.9048 42.8532 18.5551 41.387 19.4316 40.9823C19.3201 40.9466 19.2058 40.9242 19.0887 40.9242C17.9765 40.9242 17.0751 42.5974 17.0751 44.6614C17.0751 46.7253 17.9765 48.3985 19.0887 48.3985C19.2569 48.3985 19.4193 48.356 19.5754 48.2839C18.627 47.9812 17.9048 46.4515 17.9048 44.6049Z" fill="#7CB4F2"/>
<path d="M53.9105 39.1939H58.4615" stroke="white" stroke-width="1.5" stroke-miterlimit="10" stroke-linecap="round"/>
<path d="M58.4615 40.2151H53.9105" stroke="white" stroke-width="1.5" stroke-miterlimit="10" stroke-linecap="round"/>
<path d="M53.9105 38.1734H58.4615" stroke="white" stroke-width="1.5" stroke-miterlimit="10" stroke-linecap="round"/>
<path d="M53.9106 42.2969H58.4616" stroke="white" stroke-width="1.5" stroke-miterlimit="10" stroke-linecap="round"/>
<path d="M58.4615 43.3176H53.9105" stroke="white" stroke-width="1.5" stroke-miterlimit="10" stroke-linecap="round"/>
<path d="M53.9105 41.2758H58.4615" stroke="white" stroke-width="1.5" stroke-miterlimit="10" stroke-linecap="round"/>
<path d="M62.3085 36.4059L56.2343 34.2608H38.1306L46.2018 37.1112H62.8004C62.8004 36.7932 62.6029 36.51 62.3085 36.4059Z" fill="#4A5175"/>
<path d="M46.4307 37.1881L40.3641 34L34.9233 34.075V35.2564L39.6872 35.3827L46.5534 39.2344L46.4307 37.1881Z" fill="#878CB2"/>
<path d="M39.7907 36.0458H37.4271C36.9549 36.0458 36.5723 35.6548 36.5723 35.1728V34.4023C36.5723 33.9201 36.9551 33.5293 37.4271 33.5293H39.7907C40.2629 33.5293 40.6455 33.9203 40.6455 34.4023V35.1728C40.6457 35.6551 40.2629 36.0458 39.7907 36.0458Z" fill="#21243F"/>
<path d="M40.4614 36.0458H38.098C37.6258 36.0458 37.243 35.6549 37.243 35.1729V34.4024C37.243 33.9201 37.6258 33.5294 38.098 33.5294H40.4614C40.9336 33.5294 41.3164 33.9204 41.3164 34.4024V35.1729C41.3162 35.6551 40.9336 36.0458 40.4614 36.0458Z" fill="#3F4366"/>
<path d="M45.9471 21.6334H19.3079C18.8662 21.6334 18.5082 21.2678 18.5082 20.8167C18.5082 20.3656 18.8662 20 19.3079 20H45.9471C46.3889 20 46.7468 20.3656 46.7468 20.8167C46.7468 21.2678 46.3889 21.6334 45.9471 21.6334Z" fill="#878CB2"/>
<path d="M34.4389 21.6334H7.79968C7.35795 21.6334 7 21.2678 7 20.8167C7 20.3656 7.35795 20 7.79968 20H34.4389C34.8806 20 35.2386 20.3656 35.2386 20.8167C35.2386 21.2678 34.8806 21.6334 34.4389 21.6334Z" fill="#51597D"/>
</svg>
