<svg width="70" height="70" viewBox="0 0 70 70" fill="none" xmlns="http://www.w3.org/2000/svg">
<path d="M58.3894 41.7612C58.3894 38.3158 56.9352 35.5226 55.1412 35.5226C54.6377 35.5226 54.161 35.7428 53.7357 36.1354C53.3104 35.7426 52.8337 35.5226 52.3302 35.5226C50.5362 35.5226 49.082 38.3158 49.082 41.7612C49.082 45.2069 50.5362 47.9998 52.3302 47.9998C52.4569 47.9998 52.582 47.9858 52.7049 47.9586V47.9998H55.3286V47.9888C57.0352 47.8022 58.3894 45.0857 58.3894 41.7612Z" fill="#20233E"/>
<path d="M38.7427 41.7615C38.7427 38.3161 37.2885 35.5229 35.4945 35.5229C34.991 35.5229 34.5143 35.7431 34.089 36.1356C33.6637 35.7428 33.187 35.5229 32.6835 35.5229C30.8895 35.5229 29.4353 38.3161 29.4353 41.7615C29.4353 45.2071 30.8897 48.0001 32.6835 48.0001C32.8102 48.0001 32.9353 47.9861 33.0582 47.9589V48.0001H35.6819V47.989C37.3885 47.8024 38.7427 45.086 38.7427 41.7615Z" fill="#1A1E33"/>
<path d="M18.6596 41.7615C18.6596 38.3161 17.2054 35.5229 15.4114 35.5229C14.9079 35.5229 14.4312 35.7431 14.0059 36.1356C13.5806 35.7428 13.1039 35.5229 12.6004 35.5229C10.8064 35.5229 9.35222 38.3161 9.35222 41.7615C9.35222 45.2071 10.8066 48.0001 12.6004 48.0001C12.7271 48.0001 12.8522 47.9861 12.9751 47.9589V48.0001H15.5988V47.989C17.3054 47.8024 18.6596 45.086 18.6596 41.7615Z" fill="#1A1E33"/>
<path d="M53.974 30.8132C53.974 30.8132 51.2677 27.3306 48.7269 25.4659C45.3536 22.9902 41.6057 21.9999 41.6057 21.9999H20.4297C20.4297 21.9999 18.2746 22.198 17.2439 22.495C16.2131 22.7921 14.9014 23.3862 13.4022 24.4756C11.6671 25.7364 9.93541 27.9416 9.5605 28.6347C9.31829 29.0827 8.49075 29.5297 7.93441 29.7906C6.82754 30.0546 6 31.0984 6 32.3481V34.4771V36.0615V41.8051C6 43.8286 7.55208 45.4689 9.46677 45.4689H61.0481C62.6264 45.4689 63.9059 44.1167 63.9059 42.4487V34.4771H63.9999L53.974 30.8132Z" fill="#3F4366"/>
<path d="M63.729 34.3786H41.8401V45.4695H61.0485C62.6268 45.4695 63.9063 44.1173 63.9063 42.4493V34.4777H64L63.729 34.3786Z" fill="#51597D"/>
<path d="M13.9641 30.8132H53.9738C52.6013 28.9935 51.2286 27.1737 49.8561 25.3539C48.2699 23.2506 45.8643 22.0247 43.3195 22.0222L20.4292 21.9999C20.4292 21.9999 18.2742 22.198 17.2434 22.495C16.3437 22.7544 15.2297 23.2403 13.9639 24.084V30.8132H13.9641Z" fill="#B5DBFB"/>
<path d="M63.646 43.5552H61.3782C60.9068 43.5552 60.4574 43.3448 60.1407 42.976L59.6879 42.4486C59.3723 42.0811 58.9253 41.871 58.4557 41.8695L50.2183 41.8418C49.7117 41.8401 49.2314 42.0816 48.9131 42.4982L48.6066 42.8993C48.2895 43.3144 47.8116 43.5557 47.3067 43.5557H40.2342H37.3296H37.1111C26.8817 43.5574 16.6526 43.5589 6.42331 43.5606C7.01166 44.6982 8.15403 45.4701 9.46714 45.4701H60.9887C62.1972 45.4699 63.2282 44.6757 63.646 43.5552Z" fill="#2A2F4C"/>
<path d="M28.0611 37.8995C27.8196 37.8995 27.6238 37.6926 27.6238 37.4373V36.6451C27.6238 36.3899 27.8196 36.1829 28.0611 36.1829C28.3026 36.1829 28.4984 36.3899 28.4984 36.6451V37.4373C28.4982 37.6926 28.3026 37.8995 28.0611 37.8995Z" fill="#262B47"/>
<path d="M51.8517 27.9998C51.1863 27.1176 50.5211 26.2357 49.8558 25.3535C48.3568 23.3662 46.1261 22.1633 43.7377 22.0348L29.1431 28.3372L30.597 30.8129H44.2838L51.8517 27.9998Z" fill="#CFECFF"/>
<path d="M13.6318 31.4954L31.4626 30.8132C31.4626 30.8132 30.0829 27.8923 29.0349 26.4285C27.7399 24.6203 26.6924 22.5666 24.3987 21.9999H20.4301C20.4301 21.9999 18.275 22.198 17.2443 22.495C16.2135 22.7921 14.9018 23.3862 13.4026 24.4756C11.7071 25.7077 10.0184 27.8374 9.59221 28.581L13.6318 31.4954Z" fill="#7CB4F2"/>
<path d="M32.8662 32.9924L42.4025 36.8323C43.1614 36.5287 41.3469 35.0453 42.1058 34.7418C38.5 33.3596 35.0611 32.1629 31.4554 30.7807L16.4009 30.6486C15.4718 30.6442 14.3774 30.0702 13.7979 29.3025L13.509 28.9198C12.9569 28.4166 12.2521 28.1398 11.5229 28.1398H9.87964C9.73696 28.3421 9.62699 28.513 9.56087 28.6349C9.32052 29.0794 8.50435 29.5224 7.94824 29.7841C8.87137 31.4751 11.1352 32.728 13.8712 32.9539C20.2027 32.9671 26.5344 32.9798 32.8662 32.9924Z" fill="#878CB2"/>
<path d="M50.892 37.9428H44.0051C42.6855 37.9428 41.6158 36.8123 41.6158 35.4176V34.5759H50.892V37.9428Z" fill="white"/>
<path d="M63.9056 37.8318V34.5764H56.316V37.9433H63.2029C63.4474 37.9431 63.6834 37.9038 63.9056 37.8318Z" fill="white"/>
<path d="M32.6833 47.9998C34.4772 47.9998 35.9315 45.2067 35.9315 41.7612C35.9315 38.3157 34.4772 35.5226 32.6833 35.5226C30.8893 35.5226 29.4351 38.3157 29.4351 41.7612C29.4351 45.2067 30.8893 47.9998 32.6833 47.9998Z" fill="#262B47"/>
<path d="M32.6835 46.1284C33.9393 46.1284 34.9573 44.1732 34.9573 41.7613C34.9573 39.3494 33.9393 37.3942 32.6835 37.3942C31.4276 37.3942 30.4096 39.3494 30.4096 41.7613C30.4096 44.1732 31.4276 46.1284 32.6835 46.1284Z" fill="#C8CFE8"/>
<path d="M31.3464 41.6949C31.3464 39.6478 32.0807 37.9346 33.0704 37.4617C32.9444 37.42 32.8154 37.3938 32.6832 37.3938C31.4274 37.3938 30.4094 39.3489 30.4094 41.7608C30.4094 44.1727 31.4274 46.1279 32.6832 46.1279C32.8732 46.1279 33.0565 46.0784 33.233 45.994C32.1621 45.6402 31.3464 43.8525 31.3464 41.6949Z" fill="#7CB4F2"/>
<path d="M12.6009 47.9998C14.3949 47.9998 15.8492 45.2067 15.8492 41.7612C15.8492 38.3157 14.3949 35.5226 12.6009 35.5226C10.807 35.5226 9.35272 38.3157 9.35272 41.7612C9.35272 45.2067 10.807 47.9998 12.6009 47.9998Z" fill="#262B47"/>
<path d="M12.5997 46.1293C13.8555 46.1293 14.8735 44.1741 14.8735 41.7623C14.8735 39.3504 13.8555 37.3952 12.5997 37.3952C11.3439 37.3952 10.3259 39.3504 10.3259 41.7623C10.3259 44.1741 11.3439 46.1293 12.5997 46.1293Z" fill="#C8CFE8"/>
<path d="M11.2643 41.6944C11.2643 39.6473 11.9986 37.9341 12.9883 37.4612C12.8623 37.4195 12.7333 37.3932 12.6011 37.3932C11.3453 37.3932 10.3272 39.3484 10.3272 41.7603C10.3272 44.1722 11.3453 46.1274 12.6011 46.1274C12.7911 46.1274 12.9744 46.0778 13.1509 45.9935C12.08 45.6397 11.2643 43.852 11.2643 41.6944Z" fill="#7CB4F2"/>
<path d="M41.5122 34.595H63.9064V34.5596L53.9743 30.8134H31.4866L41.5122 34.595Z" fill="#4A5175"/>
<path d="M27.0618 32.1551H24.1258C23.5393 32.1551 23.064 31.6527 23.064 31.0328V30.0425C23.064 29.4227 23.5393 28.9203 24.1258 28.9203H27.0618C27.6483 28.9203 28.1237 29.4227 28.1237 30.0425V31.0328C28.1237 31.6524 27.6483 32.1551 27.0618 32.1551Z" fill="#21243F"/>
<path d="M27.895 32.155H24.9591C24.3726 32.155 23.8972 31.6526 23.8972 31.0327V30.0424C23.8972 29.4226 24.3726 28.9202 24.9591 28.9202H27.895C28.4815 28.9202 28.9569 29.4226 28.9569 30.0424V31.0327C28.9569 31.6523 28.4815 32.155 27.895 32.155Z" fill="#3F4366"/>
<path d="M55.7186 40.3195H53.1886C51.0927 40.3195 49.3938 38.5239 49.3938 36.3089V34.5759H59.5134V36.3089C59.5134 38.5239 57.8145 40.3195 55.7186 40.3195Z" fill="#21243F"/>
<path d="M51.6774 36.9019H57.3306" stroke="white" stroke-width="1.31797" stroke-miterlimit="10" stroke-linecap="round"/>
<path d="M57.3306 38.2134H51.6774" stroke="white" stroke-width="1.31797" stroke-miterlimit="10" stroke-linecap="round"/>
<path d="M51.6775 35.5893H57.3306" stroke="white" stroke-width="1.31797" stroke-miterlimit="10" stroke-linecap="round"/>
<path d="M6.0051 40.2973C7.29873 40.2973 8.3476 39.1888 8.3476 37.8216V36.5343C8.3476 35.1672 7.29873 34.0587 6.0051 34.0587C6.00325 34.0587 6.00162 34.0589 6 34.0589V34.4767V36.0611V40.297C6.00186 40.297 6.00348 40.2973 6.0051 40.2973Z" fill="#51597D"/>
<path d="M20.5233 21.9999H20.4296C20.4296 21.9999 20.2444 22.0171 19.9612 22.048V32.1005H20.5233V21.9999Z" fill="#878CB2"/>
<path d="M47.8886 23.4654C47.8703 23.4527 47.8522 23.4392 47.8336 23.4267C47.7652 23.3803 47.6958 23.3357 47.6262 23.2916C47.5677 23.2543 47.5093 23.2173 47.4501 23.1817C47.3768 23.1376 47.3026 23.0952 47.2278 23.0535C47.1708 23.0216 47.1135 22.99 47.0557 22.9593C46.9775 22.9179 46.8986 22.8782 46.8191 22.8395C46.7636 22.8125 46.7079 22.786 46.6518 22.7603C46.5685 22.722 46.485 22.685 46.4005 22.6497C46.3472 22.6274 46.2936 22.6058 46.2395 22.5845C46.1514 22.5496 46.0627 22.5158 45.9732 22.4842C45.9224 22.4663 45.8713 22.4494 45.8203 22.4324C45.7268 22.4013 45.6329 22.3711 45.5382 22.3437C45.4909 22.3299 45.4433 22.3174 45.396 22.3044C45.2965 22.2775 45.1967 22.2512 45.096 22.2279C45.0538 22.2181 45.0111 22.2101 44.9689 22.201C44.8624 22.1782 44.7559 22.1564 44.6485 22.138C44.613 22.1318 44.577 22.1274 44.5415 22.1218C44.4267 22.1036 44.3116 22.0867 44.1956 22.0737C44.1715 22.071 44.1471 22.0696 44.1228 22.0671C43.8569 22.0396 43.5894 22.0227 43.3198 22.0225L41.6807 22.0208C41.6332 22.0073 41.6058 21.9999 41.6058 21.9999H24.3984H20.5235H20.4298C20.4298 21.9999 20.4261 22.0002 20.4196 22.0009C20.312 22.011 18.2479 22.2059 17.244 22.4952C17.1231 22.53 16.9978 22.5697 16.8693 22.6131C16.8266 22.6276 16.7821 22.6445 16.7385 22.6597C16.651 22.6906 16.5631 22.7223 16.4724 22.7573C16.4178 22.7784 16.3619 22.8017 16.3063 22.8242C16.223 22.8581 16.1392 22.8929 16.0534 22.9304C15.9921 22.9571 15.9302 22.9853 15.8678 23.0138C15.7836 23.0523 15.6982 23.0927 15.6116 23.1349C15.5465 23.1665 15.4813 23.1987 15.4149 23.2325C15.3263 23.2776 15.2358 23.3259 15.1451 23.3747C15.0896 23.4046 15.0342 23.4345 14.9783 23.4654H47.8886Z" fill="#878CB2"/>
<path d="M16.7385 22.6597C16.651 22.6906 16.5631 22.7223 16.4724 22.7573C16.4179 22.7784 16.3619 22.8017 16.3065 22.8242C16.2833 22.8336 16.2594 22.8441 16.236 22.8539C16.1756 22.8789 16.1153 22.9034 16.0534 22.9304C15.9921 22.9571 15.9302 22.9853 15.8678 23.0138C15.856 23.0192 15.8434 23.0253 15.8316 23.0309C15.759 23.0645 15.6859 23.0989 15.6117 23.1349C15.5465 23.1665 15.4813 23.1987 15.4152 23.2325C15.3265 23.2776 15.2361 23.3259 15.1453 23.3747C15.0899 23.4046 15.0344 23.4345 14.9785 23.4654H26.8302C26.176 22.7875 25.4081 22.2495 24.3984 21.9999H20.5233H20.4296C20.4296 21.9999 20.4219 22.0007 20.4187 22.0009C20.4147 22.0011 20.4034 22.0024 20.3946 22.0031C20.383 22.0043 20.3674 22.0058 20.3498 22.0075C20.3428 22.0083 20.3352 22.009 20.3273 22.0097C20.3015 22.0122 20.2704 22.0154 20.2361 22.0188C20.2298 22.0195 20.2236 22.02 20.2171 22.0208C20.1797 22.0247 20.1373 22.0291 20.0918 22.0338C20.0844 22.0345 20.0774 22.0352 20.0698 22.0362C20.0222 22.0414 19.97 22.047 19.915 22.0531C19.9071 22.0541 19.8995 22.0548 19.8914 22.0558C19.8345 22.0622 19.7735 22.0691 19.7104 22.0764C19.7027 22.0774 19.6953 22.0781 19.6874 22.0791C19.6206 22.087 19.5505 22.0953 19.4784 22.1041C19.4733 22.1049 19.4684 22.1054 19.4633 22.1058C19.3939 22.1144 19.322 22.1235 19.2489 22.1328C19.2378 22.1343 19.2271 22.1355 19.216 22.137C19.1462 22.1461 19.0747 22.1556 19.0026 22.1657C18.9882 22.1676 18.974 22.1696 18.9596 22.1716C18.8896 22.1814 18.8186 22.1914 18.7474 22.202C18.7304 22.2044 18.7137 22.2069 18.6966 22.2093C18.6283 22.2194 18.5597 22.2302 18.4915 22.2407C18.4713 22.2439 18.4513 22.2468 18.4311 22.25C18.365 22.2606 18.2994 22.2716 18.234 22.2829C18.2124 22.2865 18.1906 22.29 18.1692 22.2937C18.1066 22.3047 18.0453 22.316 17.9843 22.3275C17.9611 22.3319 17.9375 22.3358 17.9145 22.3402C17.8551 22.3518 17.7978 22.3635 17.7407 22.3756C17.7182 22.3802 17.6946 22.3846 17.6725 22.3895C17.6168 22.4015 17.5644 22.414 17.5117 22.4263C17.4906 22.4312 17.4677 22.4361 17.4472 22.4413C17.3758 22.4589 17.3078 22.4768 17.244 22.4952C17.1231 22.53 16.9979 22.5697 16.8693 22.6131C16.8266 22.6274 16.7819 22.6443 16.7385 22.6597Z" fill="#3F4366"/>
</svg>
