<svg width="70" height="70" viewBox="0 0 70 70" fill="none" xmlns="http://www.w3.org/2000/svg">
<path d="M29.8512 20.7915L29.5746 19.3835C29.5746 19.3835 29.8512 18.8529 31.0696 19.4069C31.7251 19.7048 32.2881 20.5146 32.2881 20.5146L29.8512 20.7915Z" fill="#7CB4F2"/>
<path d="M29.728 49.3147C29.728 45.5722 28.0648 42.4899 25.9231 42.0708C24.6272 42.0539 23.3312 42.0373 22.0351 42.0205V44.8233C21.4631 46.0616 21.1213 47.6199 21.1213 49.3147C21.1213 51.0093 21.4631 52.5676 22.0351 53.8061V56.6089C23.331 56.5921 24.627 56.5754 25.9231 56.5586C28.065 56.1395 29.728 53.0571 29.728 49.3147Z" fill="#1A1E33"/>
<path d="M22.1182 56.6089C24.4949 56.6089 26.4215 53.3432 26.4215 49.3147C26.4215 45.2862 24.4949 42.0205 22.1182 42.0205C19.7416 42.0205 17.8149 45.2862 17.8149 49.3147C17.8149 53.3432 19.7416 56.6089 22.1182 56.6089Z" fill="#262B47"/>
<path d="M22.1681 53.4186C23.5078 53.4186 24.5939 51.596 24.5939 49.3478C24.5939 47.0995 23.5078 45.2769 22.1681 45.2769C20.8284 45.2769 19.7423 47.0995 19.7423 49.3478C19.7423 51.596 20.8284 53.4186 22.1681 53.4186Z" fill="#C8CFE8"/>
<path d="M35.7595 37.9497L34.8118 40.7373C34.333 42.1452 34.427 43.6848 35.0729 45.0243L38.1521 51.408L28.9804 51.2086L23.298 39.3452L24.1951 36.6535L35.7595 37.9497Z" fill="#51597D"/>
<path d="M34.5752 52.8537H28.2826C26.5758 52.8537 25.1921 51.47 25.1921 49.7632H36.5569V50.872C36.5569 51.9664 35.6698 52.8537 34.5752 52.8537Z" fill="#3F4366"/>
<path d="M36.4074 38.498H23.9458V33.4562H31.4446C34.1854 33.4562 36.4072 35.6782 36.4072 38.4189V38.498H36.4074Z" fill="#878CB2"/>
<path d="M30.725 37.9497L23.4223 37.1312L29.0294 51.3192L33.1175 51.408L30.0382 45.0243C29.3921 43.6848 29.2983 42.1452 29.7771 40.7373L30.725 37.9497Z" fill="#3F4366"/>
<path d="M30.7749 51.0591H25.2917L19.8087 37.7004H25.2917L30.7749 51.0591Z" fill="#3F4366"/>
<path d="M27.6345 50.4611H22.6166C21.6165 50.4611 20.8055 49.6503 20.8055 48.65C20.8055 47.6498 21.6163 46.8388 22.6166 46.8388H27.6345C28.6347 46.8388 29.4457 47.6496 29.4457 48.65C29.4457 49.6501 28.6348 50.4611 27.6345 50.4611Z" fill="#21243F"/>
<path d="M31.1737 38.498H18.7121V35.8319C18.7121 34.5972 19.6958 33.5871 20.9302 33.5546L26.2887 33.4135C28.9866 33.4137 31.1737 35.8001 31.1737 38.498Z" fill="#21243F"/>
<path d="M17.3995 37.9815L16.4977 41.0628C16.2166 42.0232 16.9367 42.984 17.9374 42.984H24.9883C25.8166 42.984 26.4882 42.3124 26.4882 41.4841V38.4028C26.4882 37.5744 25.8166 36.9028 24.9883 36.9028H18.839C18.1728 36.9028 17.5865 37.3423 17.3995 37.9815Z" fill="#21243F"/>
<path d="M27.8711 24.1146L28.5634 20.2377H33.4926L33.2711 23.7822L27.8711 24.1146Z" fill="#7CB4F2"/>
<path d="M38.3111 26.8838L45.6219 23.5607C46.4814 23.0713 47.5182 23.2074 48.1142 23.8376C48.7727 24.5339 48.5834 25.5059 48.5636 25.5994C46.023 26.9137 43.4826 28.2279 40.942 29.5423L38.3111 26.8838Z" fill="#7CB4F2"/>
<path d="M46.8404 26.3853C47.8192 26.3853 48.6126 25.7158 48.6126 24.8899C48.6126 24.0641 47.8192 23.3946 46.8404 23.3946C45.8616 23.3946 45.0682 24.0641 45.0682 24.8899C45.0682 25.7158 45.8616 26.3853 46.8404 26.3853Z" fill="#21243F"/>
<path d="M26.9988 34.25H18.1095C17.4671 34.25 16.9464 33.7293 16.9464 33.0869V24.53C16.9464 23.8876 17.4671 23.3669 18.1095 23.3669H26.9986C27.6411 23.3669 28.1617 23.8876 28.1617 24.53V33.0869C28.1619 33.7292 27.6411 34.25 26.9988 34.25Z" fill="#D8A235"/>
<path d="M31.1942 34.25H22.3049C21.6625 34.25 21.1418 33.7293 21.1418 33.0869V24.53C21.1418 23.8876 21.6625 23.3669 22.3049 23.3669H31.194C31.8364 23.3669 32.3571 23.8876 32.3571 24.53V33.0869C32.3573 33.7292 31.8366 34.25 31.1942 34.25Z" fill="#EFB93F"/>
<path d="M41.2464 29.5145L37.8819 23.9069C37.0252 23.2426 35.8353 23.3103 35.0157 23.8654C34.0671 24.5079 34.0216 25.6578 34.0188 25.7761C34.7192 26.6609 35.4013 27.7663 36.0893 28.7989C36.6868 29.6951 37.7614 30.1482 38.8212 29.9556L41.2464 29.5145Z" fill="#7CB4F2"/>
<path d="M34.7665 25.2777L38.0065 24.1146L37.1146 22.4339C36.3365 20.9675 34.801 20.0622 33.1412 20.0914L28.4162 20.1744C27.1568 20.1965 26.0088 20.9001 25.4175 22.0123L22.8864 26.7731L27.3727 24.613L28.0374 27.4376L34.4344 27.5208L34.7665 25.2777Z" fill="#7CB4F2"/>
<path d="M31.2554 32.3354L26.6903 31.8479L26.5542 33.3537C26.4645 34.347 27.0898 35.204 27.9604 35.2808L29.3309 35.4018C30.2211 35.4803 31.0281 34.7148 31.125 33.6996L31.2554 32.3354Z" stroke="#70757A" stroke-width="0.5599" stroke-miterlimit="10"/>
<path d="M37.383 31.1947L38.1798 30.509L37.383 29.7029L36.2155 29.8418" fill="url(#paint0_linear_2128_6302)"/>
<path d="M35.5649 42.5206L35.0646 46.0511L35.2035 46.9685H36.8715L37.5664 46.4404L38.1223 43.6604L35.5649 42.5206Z" fill="#5F6368"/>
<path d="M40.0037 46.9004L37.5043 45.7723C37.22 45.8121 37.0282 46.0085 36.9214 46.1564C36.846 46.2608 36.7207 46.3183 36.5858 46.3066L35.9633 46.253C35.4 46.2104 35.1863 45.8953 35.1051 45.6635L34.6895 47.2845C34.5384 47.8738 35.0439 48.4723 35.6719 48.4481L39.8141 48.2878C40.5872 48.2581 40.7281 47.2273 40.0037 46.9004Z" fill="#34A853"/>
<path d="M40.0037 46.9004L37.5043 45.7723C37.22 45.8121 37.0282 46.0085 36.9214 46.1564C36.846 46.2608 36.7207 46.3183 36.5858 46.3066L35.9633 46.253C35.4 46.2104 35.1863 45.8953 35.1051 45.6635L34.6895 47.2845C34.5384 47.8738 35.0439 48.4723 35.6719 48.4481L39.8141 48.2878C40.5872 48.2581 40.7281 47.2273 40.0037 46.9004Z" fill="#1A1E33"/>
<path d="M31.8324 42.6666L31.332 46.1971L31.4711 47.1144H33.1389L33.8339 46.5863L34.39 43.8063L31.8324 42.6666Z" fill="#5F6368"/>
<path d="M36.5205 48.2924L34.0211 47.1644C33.7368 47.2042 33.5448 47.4005 33.4381 47.5484C33.3628 47.6528 33.2375 47.7103 33.1025 47.6987L32.4801 47.645C31.9168 47.6024 31.703 47.2873 31.6218 47.0555L31.2062 48.6765C31.0552 49.2658 31.5606 49.8644 32.1887 49.8401L36.3308 49.6798C37.104 49.6501 37.245 48.6194 36.5205 48.2924Z" fill="#51597D"/>
<path d="M35.4312 46.2962H38.7543C38.7543 46.2962 39.502 38.8212 39.502 38.3209C39.502 37.8205 40.1352 33.6968 37.7444 32.9185C35.3537 32.14 31.4062 31.3618 31.4062 31.3618L29.4046 33.5857L34.9089 36.3099L35.4312 46.2962Z" fill="#1A1E33"/>
<path d="M23.9653 31.0279C23.9653 31.0279 22.437 34.3928 24.0394 36.4025C25.1328 37.774 27.468 37.8295 28.7468 37.9964C30.0256 38.1632 30.8595 38.3299 30.8595 38.3299L30.7788 47.4591C31.5633 48.5015 32.7913 48.5162 33.8527 48.2068C34.6601 47.9713 35.2695 47.1233 35.4312 46.8775C35.8945 43.7269 35.4556 39.6456 35.9189 36.495C35.9189 36.495 36.3637 34.1598 34.529 33.6039C33.1152 33.1754 28.6355 32.214 28.6355 32.214L27.8015 30.0456L23.9653 31.0279Z" fill="#262B47"/>
<path d="M44.6947 29.5016L43.5604 26.7299C43.4145 26.3734 43.0677 26.1406 42.6825 26.1406H39.7146C39.6945 26.1406 39.6752 26.1431 39.6554 26.1443L39.3773 25.9723L38.9411 26.5332L38.944 26.5383C38.7642 26.7899 38.7049 27.1269 38.8368 27.4486L39.971 30.2202C40.117 30.5767 40.4637 30.8096 40.8489 30.8096H43.8168C44.4912 30.8094 44.9501 30.1256 44.6947 29.5016Z" fill="#3F4366"/>
<path d="M46.8307 38.6695C45.4889 35.472 44.1471 32.2745 42.8053 29.0771L37.6416 28.9788C36.374 28.9545 35.4952 30.2354 35.974 31.4093L38.0811 36.5769C38.767 38.2589 38.784 40.1396 38.1285 41.8338L33.8654 52.8538H41.7585C43.4348 49.1545 45.111 45.4551 46.7873 41.7558C47.2303 40.7778 47.2461 39.6594 46.8307 38.6695Z" fill="#3F4366"/>
<path d="M49.769 37.7549C48.6328 35.0474 47.4966 32.34 46.3604 29.6323C46.2189 29.2951 45.8909 29.074 45.5252 29.0694L39.9968 28.9993C40.0014 29.0076 40.0071 29.0154 40.0115 29.0237L37.6415 28.9786C37.4746 28.9754 37.315 28.9961 37.1639 29.0349L40.8121 37.7917C41.4625 39.3413 41.4379 41.092 40.7442 42.6227L36.1082 52.8537H45.0805C46.6203 49.4555 48.1602 46.0573 49.7 42.659C50.4042 41.1051 50.4293 39.3281 49.769 37.7549Z" fill="#51597D"/>
<path d="M49.8548 26.9504C49.8548 26.3989 49.4161 25.9525 48.869 25.9346V25.9313H46.1108V27.9694H48.869V27.9661C49.4161 27.948 49.8548 27.5016 49.8548 26.9504Z" fill="#51597D"/>
<path d="M46.144 27.9694C46.7069 27.9694 47.1631 27.5132 47.1631 26.9504C47.1631 26.3875 46.7069 25.9313 46.144 25.9313C45.5812 25.9313 45.125 26.3875 45.125 26.9504C45.125 27.5132 45.5812 27.9694 46.144 27.9694Z" fill="#21243F"/>
<path d="M36.6234 27.0001H38.2186L39.0492 28.0635H40.3785" stroke="#21243F" stroke-width="4.32" stroke-miterlimit="10" stroke-linejoin="round"/>
<path d="M46.1274 27.0999L45.2635 27.0666L44.7649 28.0968L43.3693 28.0636" stroke="#21243F" stroke-width="4.32" stroke-miterlimit="10" stroke-linecap="round" stroke-linejoin="round"/>
<path d="M44.2656 30.24H41.2978C40.9126 30.24 40.5656 30.0072 40.4199 29.6507L39.2856 26.879C39.0301 26.255 39.4892 25.571 40.1635 25.571H43.1314C43.5165 25.571 43.8635 25.8039 44.0093 26.1604L45.1435 28.9321C45.399 29.5562 44.9399 30.24 44.2656 30.24Z" fill="#51597D"/>
<path d="M37.6758 27.2327C37.6758 26.6812 37.237 26.2349 36.69 26.217V26.2136H33.9317V28.2518H36.69V28.2484C37.237 28.2305 37.6758 27.7842 37.6758 27.2327Z" fill="#51597D"/>
<path d="M33.965 28.2518C34.5278 28.2518 34.9841 27.7955 34.9841 27.2327C34.9841 26.6699 34.5278 26.2136 33.965 26.2136C33.4022 26.2136 32.9459 26.6699 32.9459 27.2327C32.9459 27.7955 33.4022 28.2518 33.965 28.2518Z" fill="#21243F"/>
<path d="M52.5244 49.3147C52.5244 45.5722 50.8612 42.4899 48.7195 42.0707C47.4235 42.0539 46.1276 42.0373 44.8314 42.0205V44.8233C44.2594 46.0616 43.9176 47.6199 43.9176 49.3147C43.9176 51.0092 44.2594 52.5676 44.8314 53.806V56.6088C46.1274 56.592 47.4234 56.5754 48.7195 56.5586C50.8612 56.1395 52.5244 53.0571 52.5244 49.3147Z" fill="#1A1E33"/>
<path d="M44.9146 56.6088C47.2913 56.6088 49.2179 53.3431 49.2179 49.3147C49.2179 45.2862 47.2913 42.0205 44.9146 42.0205C42.538 42.0205 40.6113 45.2862 40.6113 49.3147C40.6113 53.3431 42.538 56.6088 44.9146 56.6088Z" fill="#262B47"/>
<path d="M44.9643 53.4186C46.3041 53.4186 47.3901 51.596 47.3901 49.3477C47.3901 47.0995 46.3041 45.2769 44.9643 45.2769C43.6246 45.2769 42.5385 47.0995 42.5385 49.3477C42.5385 51.596 43.6246 53.4186 44.9643 53.4186Z" fill="#C8CFE8"/>
<path d="M44.7976 49.8187C44.3599 49.8187 43.9555 49.5344 43.8224 49.0935L41.9283 42.8129C41.7659 42.2742 42.0711 41.7055 42.6098 41.5431C43.1494 41.3807 43.7172 41.6856 43.8799 42.2246L45.7741 48.5052C45.9365 49.044 45.6313 49.6126 45.0926 49.775C44.9942 49.8047 44.8951 49.8187 44.7976 49.8187Z" fill="#51597D"/>
<path d="M35.2095 25.1116L34.2132 25.0199L34.3425 23.008C34.4112 21.9413 33.5903 20.9806 32.3465 20.6719L32.6533 19.8363C34.3666 20.2616 35.4971 21.5848 35.4027 23.054L35.2095 25.1116Z" fill="#3F4366"/>
<path d="M45.8625 24.8582L46.328 24.2838C46.7907 23.713 47.6058 23.5382 48.239 23.9105C48.4523 24.0359 48.6631 24.2024 48.8455 24.4232C49.5724 25.3029 49.4254 26.1431 49.4254 26.1431L47.202 26.4458C47.202 26.4458 46.5824 25.5999 46.1723 25.5886C46.0697 25.5858 45.988 25.5525 45.9229 25.5042C45.7203 25.3542 45.7037 25.0543 45.8625 24.8582Z" fill="#EFCB84"/>
<path d="M49.2818 26.3607C49.4579 26.3607 49.6008 26.2179 49.6008 26.0417C49.6008 25.8655 49.4579 25.7227 49.2818 25.7227C49.1056 25.7227 48.9628 25.8655 48.9628 26.0417C48.9628 26.2179 49.1056 26.3607 49.2818 26.3607Z" fill="#EFCB84"/>
<path d="M48.6659 26.4783C48.8396 26.4783 48.9805 26.3375 48.9805 26.1638C48.9805 25.99 48.8396 25.8492 48.6659 25.8492C48.4922 25.8492 48.3513 25.99 48.3513 26.1638C48.3513 26.3375 48.4922 26.4783 48.6659 26.4783Z" fill="#EFCB84"/>
<path d="M48.0461 26.6025C48.2199 26.6025 48.3607 26.4617 48.3607 26.288C48.3607 26.1142 48.2199 25.9734 48.0461 25.9734C47.8724 25.9734 47.7316 26.1142 47.7316 26.288C47.7316 26.4617 47.8724 26.6025 48.0461 26.6025Z" fill="#EFCB84"/>
<path d="M47.4264 26.7267C47.6001 26.7267 47.7409 26.5859 47.7409 26.4122C47.7409 26.2384 47.6001 26.0976 47.4264 26.0976C47.2527 26.0976 47.1118 26.2384 47.1118 26.4122C47.1118 26.5859 47.2527 26.7267 47.4264 26.7267Z" fill="#EFCB84"/>
<path d="M48.8759 24.8398C48.8759 24.8398 47.9745 24.115 47.0769 24.7105C46.6555 24.99 46.0265 25.1709 45.7633 25.2292C45.525 25.282 45.387 25.5304 45.471 25.7595C45.534 25.9309 45.7049 26.0383 45.8866 26.0204L46.945 25.8941" fill="#EFCB84"/>
<path d="M28.9512 22.9515L25.2126 25.8593L23.468 32.5054C23.468 32.5054 27.5388 34.1669 32.2741 32.7547C34.2436 32.1673 34.8496 32.1731 34.8496 32.1731L35.0989 25.2777L28.9512 22.9515Z" fill="#7CB4F2"/>
<path d="M24.1049 30.1792L24.9633 26.9392L34.2679 26.7177L35.2095 26.5516L34.8772 29.3208C34.8772 29.3208 31.7204 30.1516 28.1757 30.4285C25.2471 30.6573 24.1049 30.1792 24.1049 30.1792Z" fill="#61A3E0"/>
<path d="M26.832 33.2497C28.3475 33.3996 30.2494 33.3583 32.2741 32.7545C34.2436 32.1671 34.8496 32.1729 34.8496 32.1729L34.9328 27.853L35.3482 23.7822L28.8682 24.3637L26.832 33.2497Z" fill="#3F4366"/>
<path d="M28.6741 28.8222L27.6772 28.7668L27.4556 30.4837L33.914 29.8685C34.256 29.836 34.5858 29.7241 34.8772 29.5421L35.2095 27.0498L28.6741 28.8222Z" fill="#363C63"/>
<path d="M28.065 28.1023L28.2898 28.1308L34.6003 28.9332L34.1573 29.21L26.5696 29.7084L28.065 28.1023Z" fill="#7CB4F2"/>
<path d="M34.1573 29.21C34.8608 29.21 35.4312 28.3545 35.4312 27.2993C35.4312 26.244 34.8608 25.3885 34.1573 25.3885C33.4538 25.3885 32.8835 26.244 32.8835 27.2993C32.8835 28.3545 33.4538 29.21 34.1573 29.21Z" fill="#21243F"/>
<path d="M32.3653 26.6365L33.1874 25.8885C33.7686 25.3597 34.6591 25.2926 35.2742 25.7814C35.4913 25.9539 35.6994 26.1732 35.8652 26.45C36.501 27.5126 36.2057 28.3898 36.2057 28.3898L33.7713 28.3507C33.7713 28.3507 33.2451 27.3421 32.807 27.2628C32.3688 27.1836 32.3653 26.6365 32.3653 26.6365Z" fill="#EFCB84"/>
<path d="M36.0261 28.5673C36.2173 28.5673 36.3722 28.4123 36.3722 28.2212C36.3722 28.0301 36.2173 27.8752 36.0261 27.8752C35.835 27.8752 35.6801 28.0301 35.6801 28.2212C35.6801 28.4123 35.835 28.5673 36.0261 28.5673Z" fill="#EFCB84"/>
<path d="M35.3457 28.5926C35.5342 28.5926 35.687 28.4398 35.687 28.2513C35.687 28.0628 35.5342 27.91 35.3457 27.91C35.1572 27.91 35.0044 28.0628 35.0044 28.2513C35.0044 28.4398 35.1572 28.5926 35.3457 28.5926Z" fill="#EFCB84"/>
<path d="M34.6607 28.6244C34.8491 28.6244 35.0019 28.4716 35.0019 28.2832C35.0019 28.0947 34.8491 27.9419 34.6607 27.9419C34.4722 27.9419 34.3194 28.0947 34.3194 28.2832C34.3194 28.4716 34.4722 28.6244 34.6607 28.6244Z" fill="#EFCB84"/>
<path d="M33.9756 28.6563C34.1641 28.6563 34.3169 28.5035 34.3169 28.315C34.3169 28.1265 34.1641 27.9737 33.9756 27.9737C33.7871 27.9737 33.6343 28.1265 33.6343 28.315C33.6343 28.5035 33.7871 28.6563 33.9756 28.6563Z" fill="#EFCB84"/>
<path d="M33.6136 26.0152C33.6136 26.0152 34.3953 25.1627 35.3724 25.616C35.8312 25.8289 36.4801 25.9127 36.7492 25.9306C36.9927 25.9469 37.1666 26.1716 37.1181 26.4108C37.0817 26.5898 36.929 26.7216 36.7466 26.7315L35.6813 26.7662" fill="#EFCB84"/>
<path d="M26.2096 26.1915L34.7665 25.2777C34.4747 25.3741 33.9484 25.5974 33.5204 26.1085C32.5829 27.2279 33.56 29.0306 33.6035 29.1824C32.7727 29.1824 27.2897 29.8471 25.9605 29.7639L26.2096 26.1915Z" fill="#7CB4F2"/>
<path d="M23.5968 24.4687C24.7473 22.6448 26.5602 20.1526 27.7049 20.8747C28.8496 21.5967 28.893 25.2599 27.7424 27.0838C26.5919 28.9077 24.7312 29.8008 23.5863 29.0788C22.4415 28.3564 22.4462 26.2924 23.5968 24.4687Z" fill="#7CB4F2"/>
<path d="M25.3787 26.7731L23.5863 29.0786C24.2735 29.4747 25.0429 29.7065 25.8347 29.756L25.9605 29.7638L29.782 28.0191L25.3787 26.7731Z" fill="#7CB4F2"/>
<path d="M32.7311 21.027L33.0358 20.9024C33.0358 20.9024 33.3405 21.2486 33.4096 21.5809C33.4542 21.7952 33.3681 22.0793 33.3681 22.0793L32.3435 22.2732L31.7066 21.927L32.7311 21.027Z" fill="#6EACE5"/>
<path d="M33.5257 20.2248C33.5262 20.2237 33.6796 19.929 33.6802 19.9279C33.6802 19.9279 33.6895 19.9307 33.7067 19.9355C34.5492 20.1685 35.3673 19.4895 35.3096 18.6174L35.2948 18.392C35.2401 17.6235 35.1854 16.8551 35.1307 16.0866C35.0504 14.9581 33.9926 14.0231 32.7403 14.0461C32.0484 14.0588 31.3499 14.2996 30.8855 15.0378C29.5771 17.117 31.7004 18.6052 29.5826 19.7867C28.4316 20.429 31.6324 21.3212 32.4097 22.3694C32.439 22.3127 33.496 20.2818 33.5257 20.2248Z" fill="#EFCB84"/>
<path d="M33.917 14.395C34.5906 14.5394 35.0755 15.1225 35.1058 15.8107C35.1325 16.4165 35.2289 17.0525 35.5099 17.1484L35.5265 17.1541C35.8446 17.2627 35.8466 17.7119 35.5294 17.8234L34.7376 18.1015L33.1956 15.5269L33.917 14.395Z" fill="#EFCB84"/>
<path d="M27.8711 31.6746L26.832 33.2497L32.108 34.416C32.108 34.416 34.8772 35.219 37.8681 34.1391C39.4386 33.5719 37.8403 33.0868 37.8403 33.0868L33.8526 31.7575L27.8711 31.6746Z" fill="#3F4366"/>
<path d="M28.7295 20.1684C28.5639 20.1574 28.3672 20.157 28.1479 20.1822C27.8275 20.219 27.5604 20.2986 27.3587 20.3761C27.5919 20.5139 28.1071 20.8577 28.4687 21.5195C28.7309 21.9992 28.87 22.5515 28.8411 23.0979L28.7118 25.5451L29.7719 25.601L29.9013 23.1538C29.9186 22.8312 29.9041 22.3606 29.7418 21.826C29.4862 20.9819 29.0002 20.4329 28.7295 20.1684Z" fill="#3F4366"/>
<path d="M32.5303 22.109C32.0162 21.7483 31.5415 21.5553 31.118 21.2483C30.2066 20.588 29.6801 19.7349 29.7355 19.2245C29.607 19.2593 29.5035 19.3213 29.4356 19.415L29.1776 19.8094C28.8477 20.2648 29.4473 21.2621 30.5168 22.037C31.507 22.7546 32.4166 22.8054 32.9527 22.7092L32.5303 22.109Z" fill="#6EACE5"/>
<path d="M33.0634 22.5639L33.3681 22.0515L32.6618 21.9546L32.551 22.1207L32.9618 22.7026L33.0634 22.5639Z" fill="#6EACE5"/>
<path d="M31.748 15.4192L31.4157 16.6931C31.4157 16.6931 33.4096 17.7454 34.5725 17.5793C35.7356 17.4131 35.5263 16.8219 35.5263 16.8219L35.5336 16.1945C35.5382 15.7966 35.2199 15.47 34.822 15.4642L31.748 15.4192Z" fill="#7CB4F2"/>
<path d="M33.4372 17.4408L35.0158 15.8622L35.3758 16.1115L33.7973 17.5793L33.4372 17.4408Z" fill="#CFECFF"/>
<path d="M32.9802 16.4992C33.9239 16.4992 34.8015 16.3916 35.5357 16.2072C35.537 16.2058 35.5378 16.2046 35.5389 16.2032C35.6116 14.5742 34.2707 13.2316 32.6064 13.2316C32.266 13.2316 31.9408 13.2907 31.637 13.394H31.6369C31.5557 13.4216 31.4762 13.4522 31.3985 13.4863C31.3968 13.487 31.395 13.4879 31.3932 13.4886C31.3172 13.5223 31.2429 13.5583 31.1705 13.598C31.1664 13.6001 31.1627 13.6026 31.1586 13.6049C31.0888 13.6436 31.0203 13.6841 30.9539 13.7282C30.9465 13.733 30.9396 13.7385 30.9324 13.7434C30.8699 13.7857 30.8085 13.8292 30.7496 13.8761C30.7351 13.8876 30.7218 13.9003 30.7075 13.912C30.6569 13.9538 30.6063 13.9957 30.5589 14.0406C30.0111 14.5565 29.6707 15.2777 29.6707 16.077C29.6707 16.2324 29.6847 16.3843 29.7095 16.5328C29.7388 17.0239 29.8505 17.5067 30.0398 17.9609C30.3857 18.791 31.0767 19.4287 31.9318 19.7068L33.3581 20.1707C33.4563 20.2027 33.5637 20.1636 33.6184 20.076L33.6669 19.9985C33.6893 19.9628 33.681 19.9159 33.6478 19.8899L32.8309 19.25C32.419 18.9274 32.1085 18.4929 31.9366 17.9982C31.901 17.8961 31.8881 17.7875 31.889 17.6794L31.8994 16.4493C32.2472 16.4808 32.6078 16.4992 32.9802 16.4992Z" fill="#3F4366"/>
<path d="M46.1957 36.5486C47.1374 36.0048 47.3931 34.6847 46.7668 33.6C46.1405 32.5153 44.8694 32.0767 43.9277 32.6204C42.986 33.1641 42.7303 34.4843 43.3566 35.569C43.9828 36.6537 45.254 37.0923 46.1957 36.5486Z" fill="white"/>
<path d="M18.9329 28.7857C19.0812 28.6301 19.1374 28.4061 19.0803 28.2017C19.03 28.0216 18.8961 27.8746 18.722 27.8086C18.687 27.7953 18.6472 27.8033 18.6194 27.8291C18.5914 27.8548 18.5805 27.8942 18.5906 27.9307L18.6443 28.1228C18.673 28.2254 18.609 28.3413 18.5067 28.3716C18.4009 28.4029 18.2916 28.3422 18.2618 28.236L18.2082 28.0441C18.1981 28.0078 18.1682 27.9806 18.1313 27.9739C18.0943 27.9671 18.0566 27.9822 18.0336 28.0126C17.92 28.164 17.8823 28.3601 17.9329 28.5412C17.9903 28.7463 18.1536 28.9052 18.3593 28.9556L18.9202 30.9637H18.92C18.7726 31.1185 18.7156 31.3433 18.7726 31.5477C18.8229 31.7278 18.9568 31.8748 19.1309 31.9408C19.1659 31.9541 19.2057 31.9461 19.2335 31.9203C19.2613 31.8946 19.2724 31.8552 19.2623 31.8187L19.2086 31.6266C19.1799 31.524 19.2439 31.4081 19.3462 31.3778C19.452 31.3465 19.5613 31.4072 19.5911 31.5134L19.6447 31.7053C19.6548 31.7416 19.6847 31.7688 19.7216 31.7756C19.7586 31.7823 19.7963 31.7673 19.8193 31.7368C19.9327 31.5859 19.9713 31.3922 19.92 31.2082C19.8626 31.0031 19.6993 30.8442 19.4936 30.7938L18.9329 28.7857Z" fill="#51597D"/>
<path d="M18.3728 23.3669H16.1573V26.3576H18.3728V23.3669Z" fill="#D8A235"/>
<path d="M22.2497 23.3669H20.0343V26.3576H22.2497V23.3669Z" fill="#EFB93F"/>
<defs>
<linearGradient id="paint0_linear_2128_6302" x1="37.9445" y1="29.1721" x2="36.9531" y2="30.504" gradientUnits="userSpaceOnUse">
<stop stop-color="#202124"/>
<stop offset="1" stop-color="#202124" stop-opacity="0"/>
</linearGradient>
</defs>
</svg>
